<svg xmlns="http://www.w3.org/2000/svg" width="103.761" height="102.704" viewBox="0 0 103.761 102.704">
  <g id="Untitled-2" transform="translate(-399 1256)">
    <path id="Path_784" data-name="Path 784" d="M406.647-1255.862a.465.465,0,0,1-.3.138,7.983,7.983,0,0,0-1.645.524c-.358.156-.937.4-1.287.551a10.064,10.064,0,0,0-1.167.91,11.613,11.613,0,0,0-2.913,3.878,3.61,3.61,0,0,0-.248.891c-.055.331-.083,14.447-.083,36.137l.009,35.577.322.763a8.206,8.206,0,0,1,.313.836,11.012,11.012,0,0,0,.607,1.1,8.714,8.714,0,0,0,2.794,2.987c.432.285.864.588.965.68a1.493,1.493,0,0,0,.579.221c.221.037.423.12.45.193.037.11,2.72.129,18.151.129h18.105l-.055-.441c-.055-.4-.239-1.3-.561-2.776-.074-.331-.156-.781-.193-1.011a6.446,6.446,0,0,0-.184-.873,26.681,26.681,0,0,1-.147-3.906c-.028-3.143-.009-3.492.147-4.016.221-.735.165-.882-.184-.5a3.275,3.275,0,0,1-.607.524l-.349.22h-4.669c-4.182,0-4.687-.019-4.889-.156a4.169,4.169,0,0,1-1.066-1.057c-.221-.34-.221-.386-.221-2.444v-2.1l.285-.386a4.2,4.2,0,0,1,.735-.717l.46-.331,4.191-.046c5.11-.056,5.211-.046,5.845.468a2.5,2.5,0,0,1,.965,2.3c.037.891.055.983.156.781a2.822,2.822,0,0,0,.184-.726,6.608,6.608,0,0,1,.625-2.114c.12-.23.524-1,.9-1.727s.9-1.737,1.186-2.252.542-1,.579-1.075.165-.3.294-.505.267-.459.313-.57.211-.376.349-.6.3-.5.368-.625.239-.441.386-.689c.368-.616.358-.836-.037-1.241-.533-.542-.643-1.516-.441-3.741a2.406,2.406,0,0,1,.478-1.618,3.435,3.435,0,0,1,.735-.836l.34-.239h4.228l.551-.579c.3-.312.9-.965,1.323-1.443s1.333-1.489,2.022-2.243a18.518,18.518,0,0,0,1.314-1.544c.046-.129-.018-.3-.211-.588a2.935,2.935,0,0,1-.276-.478,1.44,1.44,0,0,0-.23-.322l-.221-.248h-8.4l-.377-.239a2.4,2.4,0,0,1-.956-1.305,8.667,8.667,0,0,1-.156-2.592v-2.16l.276-.414a1.959,1.959,0,0,1,1.489-.763c.193-.037,1.967-.064,3.933-.064l3.566-.009.882-.846c.487-.469,1.158-1.094,1.507-1.388a4.093,4.093,0,0,0,.616-.6c0-.028-.607-.717-1.333-1.526a8.7,8.7,0,0,1-1.93-2.683c-.542-1.112-.6-1.268-.6-1.8a1.9,1.9,0,0,0-.11-.726c-.11-.138-1.948-.157-22.149-.221l-22.039-.064-.542-.487-.542-.5-.055-2.592c-.028-1.434-.074-3.823-.1-5.322l-.046-2.711.34-.35a3.14,3.14,0,0,1,.625-.487,2.014,2.014,0,0,0,.478-.331c.2-.184.221-.184,13.51-.11,7.316.046,18.252.083,24.29.083l10.992.009.469.367c.735.579.79.745.845,2.463l.055,1.489,1.7.065a8.743,8.743,0,0,1,2.141.211c.542.184.561.165,1.149-.726a5.6,5.6,0,0,1,1.516-1.673,2.8,2.8,0,0,0,.459-.377.261.261,0,0,1,.193-.119.873.873,0,0,0,.358-.184.85.85,0,0,1,.349-.184.5.5,0,0,0,.257-.12,5.34,5.34,0,0,1,1.461-.533l.386-.1v-3.244c0-2.693-.018-3.263-.129-3.345a.974.974,0,0,1-.193-.5,1.966,1.966,0,0,0-.184-.57,1.873,1.873,0,0,1-.175-.487,2.128,2.128,0,0,0-.331-.717,3.806,3.806,0,0,1-.276-.46,11.257,11.257,0,0,0-1.636-1.893,12.488,12.488,0,0,0-1.783-1.36,2.051,2.051,0,0,1-.349-.184,3.417,3.417,0,0,0-.368-.184,2.329,2.329,0,0,1-.368-.175,3.209,3.209,0,0,0-.781-.175,1.541,1.541,0,0,1-.671-.2c-.028-.064-8.593-.092-28.123-.092C410.332-1255.991,406.748-1255.972,406.647-1255.862Zm15.385,35.843a4.494,4.494,0,0,1,.763.735l.478.552-.028,2.022c-.028,1.865-.046,2.049-.23,2.389a2.9,2.9,0,0,1-.993,1.029c-.267.184-.432.193-5.018.221l-4.742.036-.6-.505c-.91-.763-.947-.873-.873-3.254l.064-1.93.331-.487a2.233,2.233,0,0,1,1.149-.974c.12-.028,2.289-.037,4.816-.028C421.581-1220.2,421.756-1220.194,422.031-1220.019Zm17.655.129a3.605,3.605,0,0,1,1.048,1.259,8.316,8.316,0,0,1,.092,1.9c-.037,2.261-.175,2.656-1.213,3.428l-.432.313-4.3-.009c-2.371,0-4.531-.037-4.788-.073a2.085,2.085,0,0,1-1.47-1.075l-.3-.45v-4.044l.322-.487a3.5,3.5,0,0,1,.708-.754l.377-.276h9.595Zm-17.8,14.751a2.568,2.568,0,0,1,1.158,1.084c.211.423.221.5.221,2.408v1.967l-.414.561a3.746,3.746,0,0,1-.781.79l-.368.23h-9.356l-.432-.3a2.534,2.534,0,0,1-1.057-1.406,16.607,16.607,0,0,1-.092-2.059c0-1.875.018-1.966.671-2.794.561-.708.45-.689,5.579-.671C421.287-1205.314,421.581-1205.305,421.884-1205.14Zm17.471.009a3.237,3.237,0,0,1,1.323,1.305c.138.294.165.588.147,2.132-.018,1.59-.037,1.848-.2,2.179a3.782,3.782,0,0,1-1.388,1.369c-.119.027-2.288.046-4.816.027l-4.6-.027-.45-.3a3.486,3.486,0,0,1-.754-.763l-.294-.451v-4.053l.266-.386a2.775,2.775,0,0,1,1.323-1.14c.267-.064,1.755-.1,4.687-.11l4.3-.009Zm-16.975,15.311c.919.836.91.8.864,3.052a7.96,7.96,0,0,1-.184,2.27,3.27,3.27,0,0,1-1.369,1.278,46.874,46.874,0,0,1-4.825.128l-4.494.019-.505-.3a2.222,2.222,0,0,1-.8-.8l-.3-.487v-4.081l.34-.505a2.879,2.879,0,0,1,.754-.772l.414-.267h9.595Z" transform="translate(0 0)" fill="#fdc500"/>
    <path id="Path_785" data-name="Path 785" d="M1034.376-1096.871c0,.073-.156.193-.34.276a6.874,6.874,0,0,0-.68.349c-.184.12-.5.313-.689.423-.662.4-1.222,1.241-1.921,2.858a2.918,2.918,0,0,1-1.535,1.8,3.571,3.571,0,0,1-2.959-.23,6.376,6.376,0,0,0-.965-.377,3.483,3.483,0,0,0-1.516-.147,6.912,6.912,0,0,0-2.564.588c-.1.092-.487.524-.846.956a3.676,3.676,0,0,0-1.011,1.939,1.015,1.015,0,0,1-.184.478c-.156.156-.184.331-.046.331.055,0,.092.138.092.294a7.661,7.661,0,0,0,.45,2.049,66.7,66.7,0,0,0,4.953,5.3c.092.037,5,.064,10.909.064l10.753.009,1.378-1.4c3.189-3.244,3.667-3.777,3.787-4.237.064-.239.156-.432.211-.432a3.919,3.919,0,0,0,.092-1.287,4.9,4.9,0,0,0-.083-1.287,1.764,1.764,0,0,1-.386-.625c-.726-1.489-1.342-2.169-2.16-2.371a5.326,5.326,0,0,1-.653-.239,3.729,3.729,0,0,0-1.471-.175,6.907,6.907,0,0,0-1.36.092,5.45,5.45,0,0,0-1.25.533,3.036,3.036,0,0,1-1.406.3c-.956.074-1.112.064-1.462-.083a1.923,1.923,0,0,1-.579-.386,5.877,5.877,0,0,1-.818-1.728,4.293,4.293,0,0,0-1.259-2.086,6.986,6.986,0,0,0-.946-.873,2.106,2.106,0,0,1-.322-.175,2.332,2.332,0,0,0-.4-.184.525.525,0,0,1-.312-.276c-.046-.175-.129-.184-1.278-.184C1034.615-1097,1034.376-1096.972,1034.376-1096.871Z" transform="translate(-563.048 -144.387)" fill="#fdc500"/>
    <path id="Path_786" data-name="Path 786" d="M1030.308-886.835a4.736,4.736,0,0,0-2.371,1.746,4.126,4.126,0,0,0-.616.965c-.037.156-.119.285-.193.285-.1,0-.129.193-.129.956a2.747,2.747,0,0,0,.092.993,1.576,1.576,0,0,1,.174.652,3.156,3.156,0,0,0,1.011,1.838,7.4,7.4,0,0,0,1.893,1.186l.552.211,12.03.028c11.681.018,12.039.018,12.324-.156a2.774,2.774,0,0,1,.607-.239,1.325,1.325,0,0,0,.533-.267,15.4,15.4,0,0,0,1.663-2.123,8.24,8.24,0,0,0,.092-1.452,4.456,4.456,0,0,0-.983-3.355,4.325,4.325,0,0,0-1.737-1.3C1054.728-887.01,1030.878-886.982,1030.308-886.835Z" transform="translate(-570.284 -335.123)" fill="#fdc500"/>
    <path id="Path_787" data-name="Path 787" d="M886.81-767.611c-.331.377-1.425,1.608-2.435,2.73-1.884,2.1-2.656,3.033-4.834,5.808-1.9,2.435-2.344,3.024-3.6,4.834-.193.267-.5.708-.68.965-.744,1.066-2.077,3.07-2.123,3.2-.018.073-.193.469-.386.873s-.432.937-.542,1.195-.248.533-.294.625a17.494,17.494,0,0,0-.956,2.316c-.074.248-.211.772-.312,1.149-.459,1.765-.551,2.086-.643,2.316a38.049,38.049,0,0,0-.413,5.4,12.283,12.283,0,0,0,.147,2.573c.083.432.248,1.342.358,2.022a10.4,10.4,0,0,0,.368,1.627,2.066,2.066,0,0,1,.175.459,4,4,0,0,0,.184.533c.092.248.386,1,.652,1.673a18.508,18.508,0,0,0,1.516,2.941c.57.947,1.186,1.985,1.369,2.307a43.649,43.649,0,0,0,4.751,5.1c.267.184.653.45.855.6.992.708,1.893,1.314,2.371,1.59.3.175.689.4.873.515s.4.23.478.267.671.377,1.314.744a9.964,9.964,0,0,0,1.314.671,1.513,1.513,0,0,1,.469.184,1.589,1.589,0,0,0,.515.184,2.234,2.234,0,0,1,.6.175c.239.092.744.257,1.121.377s.9.285,1.149.377c.46.156.836.257,2.436.653.864.211.91.211,6.893.211,5.284,0,6.112-.018,6.755-.156.4-.083,1-.175,1.333-.211a11.587,11.587,0,0,0,3.906-1.241c2.077-.956,2.619-1.195,2.665-1.195a11.038,11.038,0,0,0,1.93-.993c1.783-1.149,4.182-2.748,4.522-3.005a28.3,28.3,0,0,0,3.208-3.143c.193-.294.79-1.112,1.323-1.82a16.134,16.134,0,0,0,1.719-2.573c.156-.3.368-.7.469-.873a21.385,21.385,0,0,0,1.4-2.858,5.936,5.936,0,0,1,.193-.892c.11-.386.248-.919.322-1.167a9.641,9.641,0,0,0,.184-1.057,12.326,12.326,0,0,1,.193-1.241,34.733,34.733,0,0,0,.3-3.75c0-.147.037-.239.092-.2s.092-.211.092-.68a1.65,1.65,0,0,0-.092-.763,2.784,2.784,0,0,1-.193-.947,22.767,22.767,0,0,0-.947-4.182c-.064-.175-.211-.616-.322-.965a14.351,14.351,0,0,0-1.608-3.86c-.551-.993-1.3-2.371-1.921-3.538-.184-.331-.432-.781-.56-1.011s-.267-.478-.3-.542-.469-.68-.956-1.333-1.121-1.507-1.388-1.866-.735-1-1.039-1.4-.983-1.314-1.516-2.04-1.149-1.553-1.369-1.857-1.094-1.314-1.93-2.252-1.783-2.013-2.1-2.389-.818-.919-1.1-1.222l-.524-.551-12.407-.055-12.407-.055Zm14.052,9.356a4.29,4.29,0,0,1,.726.763c.23.358.248.469.276,1.5l.037,1.112.515.12a9.3,9.3,0,0,1,5.367,3.74c1.029,1.535,1.176,1.884,1.176,2.729a1.592,1.592,0,0,1-.276,1.158,1.6,1.6,0,0,1-.818.68,1.773,1.773,0,0,1-1.461.129,2.785,2.785,0,0,1-1.443-1.278c-.092-.175-.4-.634-.671-1.029a4.945,4.945,0,0,0-2.527-1.829,5.239,5.239,0,0,0-1.9-.211,5.08,5.08,0,0,0-3.18.708,2.8,2.8,0,0,0-1.443,1.452,3.118,3.118,0,0,0-.377,1.3,1.9,1.9,0,0,0,.221,1.314,4.185,4.185,0,0,0,1.562,1.728,22,22,0,0,0,3.492,1.048,21.7,21.7,0,0,1,5.156,1.553,8.612,8.612,0,0,1,2.812,2.233,6.076,6.076,0,0,1,1.186,1.958l.432,1.048.037,1.489a4.654,4.654,0,0,1-.193,2.206,13.3,13.3,0,0,1-.68,1.526A9.329,9.329,0,0,1,904-727.421a9.288,9.288,0,0,1-1.526.469l-.5.055v1.048c0,1-.009,1.066-.257,1.4-.745,1.039-1.011,1.176-2.151,1.094-1.388-.092-1.893-.735-1.994-2.518a6.558,6.558,0,0,0-.1-1.066c-.028-.018-.625-.211-1.333-.432a6.82,6.82,0,0,1-2.39-1.13,14.2,14.2,0,0,1-1.967-1.572,5.729,5.729,0,0,1-1.746-3.024c-.377-1.186-.368-1.59.028-2.316a2.1,2.1,0,0,1,1.608-1.066,1.569,1.569,0,0,1,1.406.294,2.49,2.49,0,0,1,1.039,1.6,4.9,4.9,0,0,0,1.8,2.334,6.736,6.736,0,0,0,2.969,1.066,7.9,7.9,0,0,0,4.577-.754,3.716,3.716,0,0,0,1.645-1.259c.239-.322.267-.432.267-1.057a3.7,3.7,0,0,0-.542-2.04,2.724,2.724,0,0,0-1.039-1.011,11.165,11.165,0,0,0-4.163-1.461c-3.152-.625-4.4-1.066-5.726-2.04a9.391,9.391,0,0,1-2.9-3.336,8.714,8.714,0,0,1-.312-3.952c.441-3.088,2.564-5.422,5.909-6.479l.928-.294.064-1.1c.074-1.277.2-1.618.79-2.049a2.79,2.79,0,0,1,1.581-.588A1.12,1.12,0,0,1,900.862-758.255Z" transform="translate(-427.336 -442.878)" fill="#fdc500"/>
  </g>
</svg>
