<svg xmlns="http://www.w3.org/2000/svg" width="96.654" height="89.056" viewBox="0 0 96.654 89.056">
  <g id="Untitled-4_1_" data-name="Untitled-4 (1)" transform="translate(-29.86 -16.206)">
    <path id="Path_789" data-name="Path 789" d="M-599.748,0h.447V.156h.521l.074.234.67.078V.779h.819v.234l.745.078-.074.312h.819v.234l.745.078-.074.312h.819l-.074.312h.745v.312l.289,0c.289,0,.289,0,.456.083v.234l.745.078v.234l.745.078v.234l.745.078V3.9l.819.078-.075.234.819.078.075.234.67.078-.074.234.819.078.074.234.67.078.075.234.67.078.074.234.67.078.074.234.745.078v.234l.67.078v.312h.819v.234l.745.078v.234l.745.078v.234l.745.078-.074.312h.745l.074.234a1.093,1.093,0,0,0,.335.083,2.472,2.472,0,0,1,.335.073l.074.156a5.077,5.077,0,0,0,.5.1.8.8,0,0,1,.389.285.933.933,0,0,0,.312.054l.284.024v.156l.745.156v.156l.745.156.074.234.67.078v.156l.745.156.074.234.67.078.074.234.67.078.075.234.67.078.074.234.745.078v.234l.745.078v.234l.745.078v.234l.745.078V12.7l.745.078v.234l.745.078v.234l.745.078v.234l.745.078v.234l.745.156v.156l.745.156v.156l.745.156v.156l.745.156v.156l.745.156v.234l.745.078.074.234.67.078.074.234.67.078.075.234.745.078v.234l.745.078v.234l.745.078v.234l.745.078v.234l.745.078v.234l.745.078v.234l.745.078V18.7l.745.078v.234l.745.078v.234l.745.078v.234l.67.078.075.234.819.156v10.44h.149v2.026H-648v-.779h.149V20.258h.223l.074-.156a2.617,2.617,0,0,1,.377-.088l.207-.04.16-.029.074-.234.67-.078V19.4l.745-.078v-.234l.745-.078v-.234l.745-.078v-.234l.745-.078v-.234l.745-.078v-.234l.745-.078v-.234l.745-.078v-.234l.745-.078.074-.234.67-.078.075-.234.67-.078.074-.234.67-.078.074-.234.67-.078.074-.234.67-.078.074-.234.819-.078v-.234l.745-.078v-.234l.745-.078v-.234l.745-.078V14.1a1.444,1.444,0,0,1,.745-.078v-.312h.745l-.075-.312h.819l-.074-.312.819-.078v-.234l.16-.012.207-.018.207-.016.17-.032.074-.156-.149-.078.819-.078v-.234l.745-.078v-.234l.745-.078v-.234l.745-.078V11.22l.745-.078v-.234l.819-.078V10.6l.67-.078.074-.234.745-.078V9.973l.67-.078.075-.234.745-.156V9.35l.745-.156V9.038l.745-.156V8.726l.155-.026.2-.037.2-.036a.774.774,0,0,0,.408-.291,3.745,3.745,0,0,1,.521-.078V8.025l.745-.078V7.714l.745-.078V7.4h.819l-.074-.312.745-.078V6.779h.819V6.467l.67-.078V6.155h.819V5.844l.67-.078.074-.234.819-.078-.074-.234.819-.078-.074-.234.819-.078-.075-.234.819-.078V4.285l.745-.078V3.974l.745-.078V3.662l.745-.078V3.35l.745-.078V3.039l.745-.078V2.727l.745-.156V2.337l.745-.078V2.026l.745-.078V1.714l.745-.078V1.4l.745-.078V1.091l.745-.078V.779l.745-.078V.467l.745-.078V.156h.521Zm-7.3,18.621a10.559,10.559,0,0,0,.079,1.986l.025.346q.026.36.052.719.033.461.066.921.025.356.051.712.012.17.024.34.017.237.034.474l.02.272a2.059,2.059,0,0,0,.1.542h14.446c-.058-2.472-.058-2.472-.154-4.943q-.01-.227-.021-.454-.024-.535-.049-1.07l-5.672-.008-2.633,0-2.294,0-1.216,0H-606.5A.579.579,0,0,0-607.045,18.621Z" transform="translate(677.86 16.206)" fill="#fdc500"/>
    <path id="Path_790" data-name="Path 790" d="M-292.47,0h73.123V11.375h-96.5l-.074-1.169H-316V.156h23.53Z" transform="translate(345.86 93.887)" fill="#fdc500"/>
    <path id="Path_791" data-name="Path 791" d="M-63.862,0h5.585V13.791h.149v23.53H-69V.156h5.138Z" transform="translate(180.621 52.67)" fill="#fdc500"/>
    <path id="Path_792" data-name="Path 792" d="M-63.862,0h5.585V13.791h.149v23.53H-69V.156h5.138Z" transform="translate(162.303 52.67)" fill="#fdc500"/>
    <path id="Path_793" data-name="Path 793" d="M-63.862,0h5.585V13.791h.149v23.53H-69V.156h5.138Z" transform="translate(105.487 52.67)" fill="#fdc500"/>
    <path id="Path_794" data-name="Path 794" d="M-62.011,0h5.585c0,.469,0,.938.006,1.422q.009,2.337.02,4.674.006,1.416.012,2.831,0,1.236.01,2.471,0,.653.005,1.305c.007,1.844.02,3.686.1,5.528l.149-.234V37.321H-67V.156h4.989Z" transform="translate(120.986 52.67)" fill="#fdc500"/>
    <path id="Path_795" data-name="Path 795" d="M-64.794,0h6.7c.033,1.738.033,1.738.042,2.287q0,.215.009.43l0,.226,0,.216,0,.187a.875.875,0,0,0,.086.395l.6.078.074.234q.259.082.521.156l.074.156c.147.057.3.109.447.156v.234l.3.078v.312h.372v.39h.3l.074.234.149.156c.149.156.149.156.158.36l-.009.185h.3v.39h.3v.312h.372v.623h.3v.7h.3a7.482,7.482,0,0,1,.158,1.958q0,.158,0,.316,0,.383-.007.765l-2.322,0-1.078,0-1.04,0h-1.12c-.38,0-.38,0-.545-.088q-.082-.27-.149-.545h-.3l.074-.39h-.3v-.312l-.372-.078V9.9H-62.56v.234l-.447.156v.234h-.149l-.023.151-.051.161-.223.078v.857l.149.078.074.234.372.078.074.234.968.078V12.7a2.622,2.622,0,0,0,.721.122l.266.02.2.014v.156a2.539,2.539,0,0,0,.684.122l.245.02.188.014V13.4l1.117.078.074.234.174.006.226.013.225.011.194.047a1.9,1.9,0,0,1,.149.312,1.466,1.466,0,0,0,.447.078l.074.234.521.078.074.234a2.287,2.287,0,0,0,.447.156v.234h.447l.023.151.051.161.223.078.074.234.223.078v.312l.135.068a6.315,6.315,0,0,1,.61.4l-.074.078.149.078v.39l.3.078v.623h.3a5.774,5.774,0,0,1,.166,1.778q0,.168,0,.335,0,.35,0,.7,0,.447,0,.894,0,.345,0,.691,0,.165,0,.33,0,.23,0,.461c0,.087,0,.174,0,.264a3.151,3.151,0,0,1-.159.858l-.223.078-.074.623-.223.078a3.279,3.279,0,0,0-.149.545h-.3v.39l-.223.078a1.141,1.141,0,0,0-.074.312l-.074.234-.223.078-.074.234-.372.078.074.312-.447.078V27.5l-.447.078v.312l-.447.078-.074.234-.521.078v.234l-.819.078-.074,3.74h-6.7V28.906l-.447-.078v-.234l-.521-.078V28.2h-.447l-.074-.312h-.372l-.074-.39H-67.1l-.074-.234-.372-.078-.074-.312-.144-.024-.154-.054L-68,26.569l-.223-.078-.074-.234-.149-.078-.074-.234-.149-.078v-.312h-.223l-.074-.312-.3-.078-.074-.935-.223-.078-.074-1.013-.223.078a2.187,2.187,0,0,1-.1-.649l-.009-.243-.009-.253-.01-.256q-.012-.313-.023-.626a1.517,1.517,0,0,1,.747-.087h1.226l1.12,0,1.142,0,2.243,0v.39h.3v.312l.223.078v.156l.3.156v.234h2.383v-.234l.372-.078v-.312l.3-.078V21.5l.223-.078v-.545l-.223-.078v-.234l-.3-.078V20.18h-.67v-.312h-1.564l.074-.312-1.266-.078.074-.234-.894-.078v-.234l-.819-.078-.074-.312h-.894l-.074-.312-.6-.078-.074-.234-.372-.078-.074-.234a1.744,1.744,0,0,0-.372-.156V17.3l-.372-.156v-.312h-.372v-.312h-.3l-.023-.151-.051-.161-.223-.078V15.5h-.372v-.7h-.3V14.18h-.3a2.309,2.309,0,0,1-.1-.69l-.009-.277-.009-.295-.009-.3c-.029-.957-.038-1.908.009-2.865l.009-.182a2.631,2.631,0,0,1,.108-.689l.223-.078.006-.2.013-.259.01-.258.045-.22a1.749,1.749,0,0,1,.3-.156,2.216,2.216,0,0,0,.074-.545h.3V6.856l.223-.078a1.036,1.036,0,0,0,.074-.312h.3V6.155h.3l.074-.39h.223l.023-.151.051-.161.223-.078.074-.234h.3V4.831h.372l.074-.39h.3l.074-.312.521-.078V3.818l.745-.078A17.778,17.778,0,0,0-64.794,0Z" transform="translate(139.778 55.163)" fill="#fdc500"/>
    <path id="Path_796" data-name="Path 796" d="M-131.426,0h.3V23.452H-142v-.467h10.648l-.074-.156c-.006-.229-.007-.457,0-.686q0-.216,0-.432c0-.076,0-.152,0-.23.006-1.115.007-2.228-.036-3.342l-.01-.272-.01-.258a8.348,8.348,0,0,1,.02-2.045,6.885,6.885,0,0,0,.047-.88c0-.085,0-.085,0-.171q0-.28,0-.56,0-.2,0-.4,0-.535,0-1.071,0-.333,0-.665,0-3.318-.062-6.635c-.025-1.33-.027-2.655.016-3.985l.011-.352Q-131.44.423-131.426,0Z" transform="translate(253.621 66.539)" fill="#fdc500"/>
    <path id="Path_797" data-name="Path 797" d="M-134.2,0h.074V16.829H-145v-.39h10.35c.043-.9.085-1.792.079-2.695q0-.235,0-.471t0-.494q0-.518,0-1.037,0-1.472-.01-2.943,0-.817-.005-1.635,0-.515,0-1.03c0-.263,0-.525,0-.788,0-.095,0-.189,0-.286s0-.174,0-.263,0-.15,0-.228a1.366,1.366,0,0,1,.251-.6,1.306,1.306,0,0,0,.019-.39l0-.218-.007-.224q0-.222-.009-.444l-.005-.2a.531.531,0,0,1,.079-.318c.011-.164.019-.328.024-.492l.009-.3.009-.311.01-.313Q-134.214.384-134.2,0Z" transform="translate(198.986 73.161)" fill="#fdc500"/>
    <path id="Path_798" data-name="Path 798" d="M-2.09,0h.074a10.317,10.317,0,0,1,.074,1.417c-.006.731.013,1.461.037,2.191l.005.161q.015.453.032.906l.149-.234c.008,1.244.009,2.487-.033,3.73l-.009.282-.009.258-.008.226a.645.645,0,0,1-.09.334c0,.12,0,.24,0,.359l0,.217q0,.226.012.452l0,.218,0,.2a.612.612,0,0,1-.136.37,1.18,1.18,0,0,0-.138.67v.278l0,.3q0,.161,0,.321,0,.345,0,.691,0,.547,0,1.094,0,.866.006,1.731.007,1.548.01,3.1,0,.543,0,1.085,0,.339,0,.678,0,.23,0,.46a12.6,12.6,0,0,1-.081,1.569h-.074q-.005-4.289-.008-8.578,0-.506,0-1.013v-.2q0-1.632,0-3.265,0-1.675,0-3.349,0-1.033,0-2.067,0-.709,0-1.417,0-.409,0-.818,0-.443,0-.887V1.205A3.559,3.559,0,0,1-2.09,0Z" transform="translate(66.575 66.227)" fill="#fdc500"/>
    <path id="Path_799" data-name="Path 799" d="M-132.873,0l.181,0V.472h-10.872V.161h.163l3.911-.025L-137.6.122l1.648-.011.873-.006.821-.006.447,0,.266,0,.233,0C-133.1.08-133.092.006-132.873,0Z" transform="translate(236.866 89.518)" fill="#fdc500"/>
    <path id="Path_800" data-name="Path 800" d="M-135.128,0v.39H-146V.077l4.088-.03,1.9-.014L-138.36.02l.876-.007.825-.006.447,0,.269,0,.234,0Z" transform="translate(199.986 89.602)" fill="#fdc500"/>
    <path id="Path_801" data-name="Path 801" d="M-135.128,0v.39H-146V.077l4.088-.03,1.9-.014L-138.36.02l.876-.007.825-.006.447,0,.269,0,.234,0Z" transform="translate(182.487 89.602)" fill="#fdc500"/>
    <path id="Path_802" data-name="Path 802" d="M-135.128,0V.39H-146V.078l4.154-.03,1.928-.014,1.681-.012.89-.007.837-.006.308,0,.419,0,.237,0Z" transform="translate(257.621 89.601)" fill="#fdc500"/>
    <path id="Path_803" data-name="Path 803" d="M-.926,0h14.3l.074.234H-1Z" transform="translate(71.964 34.438)" fill="#fdc500"/>
    <path id="Path_804" data-name="Path 804" d="M-5.818-.088H7.995c.383,0,.383,0,.466.088.006.1.008.21.007.314,0,.063,0,.126,0,.191s0,.132,0,.2,0,.133,0,.2q0,.247,0,.495H8.386L8.372,1.17l-.019-.3-.018-.3a.614.614,0,0,0-.1-.41H-6.06l-.149.312h-.074q0-.234,0-.467C-6.155-.134-5.989-.087-5.818-.088Z" transform="translate(77.098 34.359)" fill="#fdc500"/>
    <path id="Path_805" data-name="Path 805" d="M0,0H5.51V.39H.074Z" transform="translate(116.833 52.67)" fill="#fdc500"/>
    <path id="Path_806" data-name="Path 806" d="M0,0H5.51V.39H.074Z" transform="translate(41.7 52.67)" fill="#fdc500"/>
    <path id="Path_807" data-name="Path 807" d="M0,0H5.51V.39Q4.482.4,3.454.4L2.5.407q-.461,0-.921,0l-.352,0c-.164,0-.328,0-.492,0l-.283,0A.513.513,0,0,1,.08.281.349.349,0,0,1,0,0Z" transform="translate(59.049 52.67)" fill="#fdc500"/>
    <path id="Path_808" data-name="Path 808" d="M0,0H5.436V.312H.074Z" transform="translate(98.59 52.67)" fill="#fdc500"/>
    <path id="Path_809" data-name="Path 809" d="M-4.7,0V4.285h-.223L-5,6.545h-.074q0-.893,0-1.786,0-.3,0-.6c0-1.361.018-2.717.08-4.076A.432.432,0,0,1-4.7,0Z" transform="translate(52.063 66.539)" fill="#fdc500"/>
    <path id="Path_810" data-name="Path 810" d="M-29.617,0l.447.078q-.015.368-.033.735l-.009.212-.009.2-.008.187c-.015.145-.015.145-.09.223q-.186,0-.372,0v.312l-.214.024c-.254.029-.254.029-.382.287l-.521.078a2.328,2.328,0,0,0-.3.234h-.223l-.074.39h-.3v.156H-32V2.961h.149V2.649h.372l.074-.39h.3l.074-.312.521-.078V1.636l.745-.078A5.134,5.134,0,0,0-29.65.6l.01-.176Q-29.628.214-29.617,0Z" transform="translate(104.602 57.345)" fill="#fdc500"/>
    <path id="Path_811" data-name="Path 811" d="M-1.954,0h.223q.014.857.02,1.714,0,.292.008.583c0,.279.007.558.008.838l.006.264c0,.605,0,.605-.231.866l-.184.1c-.014-2.311-.014-2.311.033-3.453l.009-.226C-2.038.176-2.038.176-1.954,0Z" transform="translate(105.905 68.876)" fill="#fdc500"/>
    <path id="Path_812" data-name="Path 812" d="M-.111,0h.074L.335,5.376H-.037C-.111,5.3-.111,5.3-.12,5.088V4.646q0-.257,0-.515,0-.178,0-.356,0-.469,0-.939t0-.957Q-.114.94-.111,0Z" transform="translate(70.926 35.607)" fill="#fdc500"/>
    <path id="Path_813" data-name="Path 813" d="M-19.436,0l.3.078a1.016,1.016,0,0,1-.247.687.792.792,0,0,1-.5.248l.028.195a1.469,1.469,0,0,1-.475.9h-.149l.009.3a.719.719,0,0,1-.158.56,1.585,1.585,0,0,1-.372,0V2.727l.223-.078.006-.2.013-.259.01-.257.045-.22a1.749,1.749,0,0,1,.3-.156,2.217,2.217,0,0,0,.074-.545h.3V.7l.223-.078a1.035,1.035,0,0,0,.074-.312h.3Z" transform="translate(90.921 61.318)" fill="#fdc500"/>
    <path id="Path_814" data-name="Path 814" d="M-19.436,0a3.659,3.659,0,0,1-.149,1.247l-.223.078-.074.623-.223.078a3.282,3.282,0,0,0-.149.545h-.3v.39h-.3l-.074.234A.656.656,0,0,1-21,2.883a2.11,2.11,0,0,1,.3-.545l.223-.078,0-.229c0-.239,0-.239.079-.317q.186,0,.372,0V1.169h.149l-.005-.14C-19.9.391-19.9.391-19.734.078A.432.432,0,0,1-19.436,0Z" transform="translate(106.037 78.07)" fill="#fdc500"/>
    <path id="Path_815" data-name="Path 815" d="M0,0H.223V.234H5.51V.39H.074Z" transform="translate(41.7 52.67)" fill="#fdc500"/>
    <path id="Path_816" data-name="Path 816" d="M0,0H.223V.234H5.51V.39H.074Z" transform="translate(116.833 52.67)" fill="#fdc500"/>
    <path id="Path_817" data-name="Path 817" d="M0-.086a3.416,3.416,0,0,1,.447,0c.207.217.176.4.191.694C.657.8.657.8.894.926a3.633,3.633,0,0,1,.074.623h.149a1.114,1.114,0,0,1,.149.7l-.3.078V1.706H.6V1H.3V.381H0Z" transform="translate(69.921 68.963)" fill="#fdc500"/>
    <path id="Path_818" data-name="Path 818" d="M-.029,0,.12.234A1.971,1.971,0,0,0,.629.267l.159,0c.173,0,.346,0,.52,0l.36,0q.474.006.948.008L3.583.3q.949.01,1.9.016V.467l-2.122,0-.985,0-.95,0H.261C.046.467.046.467-.029.39Q-.033.195-.029,0Z" transform="translate(98.544 52.67)" fill="#fdc500"/>
    <path id="Path_819" data-name="Path 819" d="M0,0H.372L.447.234H.968l.051.141a1.014,1.014,0,0,0,.47.4c.074.078.074.078.082.324l0,.3,0,.3,0,.236-.3-.078.074-.078q0-.273,0-.545l-.223-.078V.935L.819.857V.545H.149V.234H0Z" transform="translate(79.006 74.798)" fill="#fdc500"/>
    <path id="Path_820" data-name="Path 820" d="M-.926,0-.4.078v.39h.149l.061.141A.559.559,0,0,0,.015.9c.1.117.1.117.1.429l.447.156v.545H.34L.266,1.792.042,1.714-.032,1.48-.181,1.4l-.074-.234L-.4,1.091V.779H-.628L-.7.467-1,.39Z" transform="translate(71.517 79.94)" fill="#fdc500"/>
    <path id="Path_821" data-name="Path 821" d="M-1.016,0l.149.078v.39l.3.078v.623h.3A3.669,3.669,0,0,1-.122,2.337L-.495,2.26a2.821,2.821,0,0,1-.074-.935H-.718V.857L-1.09.779q0-.173,0-.346l0-.194C-1.09.078-1.09.078-1.016,0Z" transform="translate(86.723 71.837)" fill="#fdc500"/>
    <path id="Path_822" data-name="Path 822" d="M-5.553,0l.447.078q-.015.368-.033.735l-.009.212-.009.2-.008.187c-.015.145-.015.145-.09.223q-.186,0-.372,0v.156H-6V1.636l.3-.078A4.651,4.651,0,0,0-5.586.6l.01-.176Q-5.564.214-5.553,0Z" transform="translate(80.538 57.345)" fill="#fdc500"/>
    <path id="Path_823" data-name="Path 823" d="M-8.33,0l.3.078a1.016,1.016,0,0,1-.247.687.792.792,0,0,1-.5.248l.014.224-.014.243L-9,1.636-8.926.7-8.7.623A1.035,1.035,0,0,0-8.628.312h.3Z" transform="translate(79.815 61.318)" fill="#fdc500"/>
    <path id="Path_824" data-name="Path 824" d="M0,0H.074Q.113.5.149.993l.022.28c.043.59.062,1.174.053,1.765L0,2.961Z" transform="translate(70.964 37.71)" fill="#fdc500"/>
    <path id="Path_825" data-name="Path 825" d="M-2.063,0l.149.078v1.48h-.223A1.74,1.74,0,0,1-2.226.779l0-.174c0-.15.008-.3.017-.449Z" transform="translate(71.984 65.526)" fill="#fdc500"/>
    <path id="Path_826" data-name="Path 826" d="M-1.031,0h.149c.006.292.01.584.014.877l.006.251,0,.242,0,.223a.84.84,0,0,1-.249.512q0-.482,0-.964l0-.278V.352A.606.606,0,0,1-1.031,0Z" transform="translate(105.056 66.539)" fill="#fdc500"/>
    <path id="Path_827" data-name="Path 827" d="M0,0H.223V.312h.3V.623L.745.7v.312a1.585,1.585,0,0,1-.372,0L.223.779,0,.7Z" transform="translate(76.027 76.356)" fill="#fdc500"/>
    <path id="Path_828" data-name="Path 828" d="M-1.851,0l.074.156.149.078h-.149l0,.189q-.011.424-.023.848l-.007.3-.009.285-.007.263A.716.716,0,0,1-2,2.571V.078Z" transform="translate(105.802 66.305)" fill="#fdc500"/>
    <path id="Path_829" data-name="Path 829" d="M-6.479,0h.3V.623A5.021,5.021,0,0,1-7,.857V.623h.149V.39l.372-.078Z" transform="translate(86.304 76.979)" fill="#fdc500"/>
    <path id="Path_830" data-name="Path 830" d="M0,0C.551.17.551.17.745.39a4.68,4.68,0,0,1,.023.672l0,.186C.757,1.7.757,1.7.67,1.792q-.223,0-.447,0L.149,1.48.6,1.558A2,2,0,0,0,.4.311,1.692,1.692,0,0,0,0,.078Z" transform="translate(79.974 75.187)" fill="#fdc500"/>
    <path id="Path_831" data-name="Path 831" d="M-11.106,0h.149l-.074.39-.3.078-.074.39h-.3v.156H-12V.857h.149V.545h.372l.074-.39h.3Z" transform="translate(84.602 59.448)" fill="#fdc500"/>
    <path id="Path_832" data-name="Path 832" d="M0,0H.894C.8.408.8.408.6.545A2.045,2.045,0,0,1,.149.467Z" transform="translate(77.889 77.68)" fill="#fdc500"/>
    <path id="Path_833" data-name="Path 833" d="M0,0A7.356,7.356,0,0,1,.745.234V.857H.521L.447.623.074.545Z" transform="translate(72.602 72.46)" fill="#fdc500"/>
    <path id="Path_834" data-name="Path 834" d="M0,0H.074V.152Q.083.935.094,1.718.1,2.011.1,2.3q0,.42.011.84v.265l0,.246,0,.217a.563.563,0,0,0,.253.416L0,4.207Z" transform="translate(70.889 36.62)" fill="#fdc500"/>
    <path id="Path_835" data-name="Path 835" d="M-.926,0A2.812,2.812,0,0,1-.553.078l.074.156a1.439,1.439,0,0,0,.3.078l.074.545H-.33V.623H-.7L-.777.234H-1Z" transform="translate(73.825 82.433)" fill="#fdc500"/>
    <path id="Path_836" data-name="Path 836" d="M0-.029q.223,0,.447,0C.59.121.558.388.575.592.58.75.58.75.67.828q0,.195,0,.39L.6.906H.3V.283H0Z" transform="translate(69.921 69.061)" fill="#fdc500"/>
    <path id="Path_837" data-name="Path 837" d="M-.926,0-.4.078-.33.857l-.3-.078L-.7.467-1,.39Z" transform="translate(71.517 79.94)" fill="#fdc500"/>
    <path id="Path_838" data-name="Path 838" d="M-.926,0-.6.034l.186.019c.154.025.154.025.228.1q0,.195,0,.39H-.7L-.628.312-1,.234Z" transform="translate(77.102 74.096)" fill="#fdc500"/>
    <path id="Path_839" data-name="Path 839" d="M-5.553,0H-5.4V.156l.3.078-.2.175a6.765,6.765,0,0,0-.54.526L-6,.857A2.219,2.219,0,0,1-5.926.39a1.458,1.458,0,0,1,.3-.156Z" transform="translate(78.006 60.306)" fill="#fdc500"/>
    <path id="Path_840" data-name="Path 840" d="M0,0H.372L.447.234H.968V.39H.67V.545H.149V.234H0Z" transform="translate(79.006 74.798)" fill="#fdc500"/>
    <path id="Path_841" data-name="Path 841" d="M-3.85,0l.219,0V.317l-.223.078v.39l-.3.078q0-.192,0-.385l0-.216C-4.149-.014-4.119.006-3.85,0Z" transform="translate(80.18 65.677)" fill="#fdc500"/>
    <path id="Path_842" data-name="Path 842" d="M-.926,0C-.5.058-.5.058-.33.234a3.581,3.581,0,0,1,.074.39H-.777L-.7.312H-1Z" transform="translate(78.367 74.408)" fill="#fdc500"/>
    <path id="Path_843" data-name="Path 843" d="M-2.061,0l.074.234.149.078L-2.061.39l-.074,2.493H-2.21q-.006-.578-.008-1.157,0-.2,0-.394,0-.283,0-.565l0-.178c0-.145.008-.289.017-.433Z" transform="translate(124.33 66.227)" fill="#fdc500"/>
    <path id="Path_844" data-name="Path 844" d="M-.093,0C.2.068.2.068.28.156Q.284.428.28.7h-.3A1.446,1.446,0,0,1-.093,0Z" transform="translate(76.12 66.85)" fill="#fdc500"/>
    <path id="Path_845" data-name="Path 845" d="M0,0A.806.806,0,0,1,.624.248,1,1,0,0,1,.745.935L.6.857A2.161,2.161,0,0,1,.521.545h-.3L.3.156H0Z" transform="translate(79.825 65.526)" fill="#fdc500"/>
    <path id="Path_846" data-name="Path 846" d="M0,0,.447.078A.953.953,0,0,1,.372.857,1.64,1.64,0,0,1,0,0Z" transform="translate(70.293 79.005)" fill="#fdc500"/>
    <path id="Path_847" data-name="Path 847" d="M-7.4-.679l.074.312-.3.156Q-7.818-.361-8-.523V-.679A.8.8,0,0,1-7.4-.679Z" transform="translate(84.474 78.047)" fill="#fdc500"/>
    <path id="Path_848" data-name="Path 848" d="M-1.031,0l.074.234.223.078-.3.078V2.415h-.074q0-.5,0-.994,0-.169,0-.339,0-.243,0-.486V.3C-1.105.078-1.105.078-1.031,0Z" transform="translate(48.091 66.227)" fill="#fdc500"/>
    <path id="Path_849" data-name="Path 849" d="M-.135,0h.3V.779L.014.857A1.2,1.2,0,0,1-.135,0Z" transform="translate(69.908 76.356)" fill="#fdc500"/>
    <path id="Path_850" data-name="Path 850" d="M-3.7,0h.372V.39H-4V.156h.3Z" transform="translate(50.689 89.601)" fill="#fdc500"/>
    <path id="Path_851" data-name="Path 851" d="M0,0H.447L.521.545H.074Z" transform="translate(74.463 83.446)" fill="#fdc500"/>
    <path id="Path_852" data-name="Path 852" d="M0,0H.3A2.577,2.577,0,0,1,.149.935L0,.857Z" transform="translate(86.303 78.304)" fill="#fdc500"/>
    <path id="Path_853" data-name="Path 853" d="M0,0C.1.05.2.1.3.156L.5.263.67.39V.7h-.3V.467L.074.39Z" transform="translate(79.75 75.265)" fill="#fdc500"/>
    <path id="Path_854" data-name="Path 854" d="M0-.216a.95.95,0,0,1,.372,0,2.878,2.878,0,0,1,.372.39L.67.407.3.329V.018H0Z" transform="translate(71.187 71.663)" fill="#fdc500"/>
    <path id="Path_855" data-name="Path 855" d="M0,0,.3.078V.7H0Z" transform="translate(74.985 86.796)" fill="#fdc500"/>
    <path id="Path_856" data-name="Path 856" d="M-4.628,0h.074q0,.212,0,.424l0,.238c-.007.2-.007.2-.082.273q-.186,0-.372,0A1.377,1.377,0,0,1-4.926.623L-4.7.545Z" transform="translate(75.219 62.331)" fill="#fdc500"/>
    <path id="Path_857" data-name="Path 857" d="M-.926-.09l.358,0,.2,0a.955.955,0,0,1,.408.086A.593.593,0,0,1,.117.3,1.039,1.039,0,0,1-.106.533L-.181.144C-.289.126-.4.11-.507.095L-.69.068l-.161,0L-1,.222Z" transform="translate(77.027 74.108)" fill="#fdc500"/>
    <path id="Path_858" data-name="Path 858" d="M-.16,0l.074.234H.287v.39H.51V.779A.909.909,0,0,1-.034.565.65.65,0,0,1-.16,0Z" transform="translate(83.931 60.072)" fill="#fdc500"/>
    <path id="Path_859" data-name="Path 859" d="M-.993,0l.149.078A2.209,2.209,0,0,1-.8.433l.017.2L-.77.779-1.068.7c-.007-.479-.007-.479,0-.623Z" transform="translate(87.371 73.239)" fill="#fdc500"/>
    <path id="Path_860" data-name="Path 860" d="M-.926,0h.149V1.169H-1Z" transform="translate(75.91 57.579)" fill="#fdc500"/>
    <path id="Path_861" data-name="Path 861" d="M-7.4,0l-.074.467L-8,.545V.234C-7.572,0-7.572,0-7.4,0Z" transform="translate(91.101 82.589)" fill="#fdc500"/>
    <path id="Path_862" data-name="Path 862" d="M-.926-.216a1.861,1.861,0,0,1,.521,0,2.056,2.056,0,0,1,.372.39L-.106.407H-.255L-.3.217C-.388-.007-.388-.007-.628-.055l-.223,0L-1,.1Z" transform="translate(78.293 74.546)" fill="#fdc500"/>
    <path id="Path_863" data-name="Path 863" d="M0,0H.223L.3.312H.149V.935l.223.078v.156L0,1.091Z" transform="translate(86.229 73.006)" fill="#fdc500"/>
    <path id="Path_864" data-name="Path 864" d="M-1.851,0h.372V.234l-.149.078L-1.7.545-2,.467Z" transform="translate(78.921 64.747)" fill="#fdc500"/>
    <path id="Path_865" data-name="Path 865" d="M-1.851,0a1.344,1.344,0,0,1,.3.078V.623h-.223L-1.8.477C-1.842.3-1.842.3-2,.156Z" transform="translate(75.793 83.056)" fill="#fdc500"/>
    <path id="Path_866" data-name="Path 866" d="M0-.029q.223,0,.447,0C.521.049.521.049.53.187V.554l0,.2v.2q0,.247,0,.495H.447L.433,1.224.414.926.4.63A2.944,2.944,0,0,0,.3.049Z" transform="translate(85.037 34.311)" fill="#fdc500"/>
    <path id="Path_867" data-name="Path 867" d="M-.029,0H.12V.312h.3V.623C.055.555.055.555-.029.467Q-.033.234-.029,0Z" transform="translate(76.131 76.356)" fill="#fdc500"/>
    <path id="Path_868" data-name="Path 868" d="M-.954,0l.149.078v.39l.223.078L-.806.7-1.029.623q0-.273,0-.545Z" transform="translate(86.662 71.837)" fill="#fdc500"/>
    <path id="Path_869" data-name="Path 869" d="M0,0,.372.156l.074.7h-.3L.163.393C.159.209.159.209,0,0Z" transform="translate(80.346 65.76)" fill="#fdc500"/>
    <path id="Path_870" data-name="Path 870" d="M-.926,0h.3l.149.545h-.3V.312L-1,.234Z" transform="translate(75.463 73.395)" fill="#fdc500"/>
    <path id="Path_871" data-name="Path 871" d="M0,0H.223A1.36,1.36,0,0,1,.372.857h.3v.156H.3A1.782,1.782,0,0,1,.223.39.944.944,0,0,0,.149.078Z" transform="translate(70.889 70.434)" fill="#fdc500"/>
    <path id="Path_872" data-name="Path 872" d="M-2.777,0h.223q0,.234,0,.467c-.074.078-.074.078-.265.083L-3,.545V.312l.223-.078Z" transform="translate(76.868 58.981)" fill="#fdc500"/>
    <path id="Path_873" data-name="Path 873" d="M-.926,0h.6V.234H-1Z" transform="translate(65.187 89.757)" fill="#fdc500"/>
    <path id="Path_874" data-name="Path 874" d="M0,0,.447.156V.623L.149.545.223.156,0,.078Z" transform="translate(71.708 71.681)" fill="#fdc500"/>
    <path id="Path_875" data-name="Path 875" d="M0,0H.149A1.114,1.114,0,0,1,.3.7L0,.779Z" transform="translate(70.889 70.512)" fill="#fdc500"/>
    <path id="Path_876" data-name="Path 876" d="M-7.4,0V.234h-.3v.39L-8,.545A4.262,4.262,0,0,1-7.777.078.778.778,0,0,1-7.4,0Z" transform="translate(93.186 80.407)" fill="#fdc500"/>
    <path id="Path_877" data-name="Path 877" d="M-5.553,0V.312L-5.777.39l-.149.156L-6,.156C-5.721,0-5.721,0-5.553,0Z" transform="translate(91.707 79.706)" fill="#fdc500"/>
    <path id="Path_878" data-name="Path 878" d="M-3.7,0h.149V.467L-4,.545l.074-.234H-3.7Z" transform="translate(83.527 76.979)" fill="#fdc500"/>
    <path id="Path_879" data-name="Path 879" d="M0,0H.521V.467H.372L.3.234A.919.919,0,0,0,0,.156Z" transform="translate(72.751 72.85)" fill="#fdc500"/>
    <path id="Path_880" data-name="Path 880" d="M0,0H.223L.372.467H0Z" transform="translate(76.697 67.318)" fill="#fdc500"/>
    <path id="Path_881" data-name="Path 881" d="M-3.7,0l.3.078a3.265,3.265,0,0,1-.3.467H-4V.39l.223-.078A1.035,1.035,0,0,0-3.7,0Z" transform="translate(74.889 61.63)" fill="#fdc500"/>
    <path id="Path_882" data-name="Path 882" d="M-5.553,0V.234h-.3l-.074.7H-6c.006-.127.015-.253.023-.38l.013-.214A.357.357,0,0,1-5.553,0Z" transform="translate(92.154 78.07)" fill="#fdc500"/>
    <path id="Path_883" data-name="Path 883" d="M-.926,0H-.4V.156H-.7V.312H-1Z" transform="translate(80.378 75.031)" fill="#fdc500"/>
    <path id="Path_884" data-name="Path 884" d="M-.926,0h.3V.467H-.851L-1,.078Z" transform="translate(80.304 64.825)" fill="#fdc500"/>
    <path id="Path_885" data-name="Path 885" d="M-.926,0H-.7V.467H-.926Q-.968.274-1,.078Z" transform="translate(83.133 58.981)" fill="#fdc500"/>
    <path id="Path_886" data-name="Path 886" d="M0,0H.223V.467H.074L0,.7Z" transform="translate(70.666 62.331)" fill="#fdc500"/>
    <path id="Path_887" data-name="Path 887" d="M-6.479,0h.149a1.966,1.966,0,0,1-.521.7L-7,.545l.223-.078a3.125,3.125,0,0,0,.223-.39Z" transform="translate(79.006 60.539)" fill="#fdc500"/>
    <path id="Path_888" data-name="Path 888" d="M-3.7,0h.149l-.074.39H-4V.156h.3Z" transform="translate(77.198 59.448)" fill="#fdc500"/>
    <path id="Path_889" data-name="Path 889" d="M-.926,0h.447V.234H-1Z" transform="translate(122.971 89.757)" fill="#fdc500"/>
    <path id="Path_890" data-name="Path 890" d="M-4.628,0H-4.4a.977.977,0,0,1-.172.453C-4.7.545-4.7.545-4.865.521L-5,.467l.144-.058c.168-.083.168-.083.209-.263Z" transform="translate(83.187 77.68)" fill="#fdc500"/>
    <path id="Path_891" data-name="Path 891" d="M0,0,.372.078V.7H.3V.234H0Z" transform="translate(69.921 69.11)" fill="#fdc500"/>
    <path id="Path_892" data-name="Path 892" d="M-.926,0q.187.033.372.078l.074.39L-.628.545-.646.4C-.688.219-.688.219-.856.136L-1,.078Z" transform="translate(71.517 80.174)" fill="#fdc500"/>
    <path id="Path_893" data-name="Path 893" d="M0,0H.3L.447.467h-.3L.223.156H0Z" transform="translate(77.442 74.564)" fill="#fdc500"/>
    <path id="Path_894" data-name="Path 894" d="M0,0,.447.078V.312L.074.234Z" transform="translate(77.889 67.941)" fill="#fdc500"/>
    <path id="Path_895" data-name="Path 895" d="M0,0,.372.078l.074.39L.223.545.3.156H0Z" transform="translate(79.825 65.526)" fill="#fdc500"/>
    <path id="Path_896" data-name="Path 896" d="M-1.851,0h.372l-.074.312L-1.628.156-2,.312Z" transform="translate(85.325 82.433)" fill="#fdc500"/>
    <path id="Path_897" data-name="Path 897" d="M0,0,.372.078l.074.39H.3L.223.234,0,.156Z" transform="translate(71.559 81.498)" fill="#fdc500"/>
    <path id="Path_898" data-name="Path 898" d="M-.926,0l.372.078V.39H-.7V.234L-1,.156Z" transform="translate(77.176 74.174)" fill="#fdc500"/>
    <path id="Path_899" data-name="Path 899" d="M-.954,0h.3V.156L-.88.234v.39L-1.029.545q0-.234,0-.467Z" transform="translate(77.205 65.837)" fill="#fdc500"/>
    <path id="Path_900" data-name="Path 900" d="M-.926,0q.187.033.372.078L-.926.39A3.026,3.026,0,0,1-1,.078Z" transform="translate(83.431 83.134)" fill="#fdc500"/>
    <path id="Path_901" data-name="Path 901" d="M0,0,.372.078V.545H.223L.154.36A2.566,2.566,0,0,0,0,0Z" transform="translate(70.293 79.161)" fill="#fdc500"/>
    <path id="Path_902" data-name="Path 902" d="M-2.777,0l.223.078V.39H-3l.223-.078Z" transform="translate(79.399 74.252)" fill="#fdc500"/>
  </g>
</svg>
