<svg xmlns="http://www.w3.org/2000/svg" width="81.135" height="79.315" viewBox="0 0 81.135 79.315">
  <g id="dashbord" transform="translate(-25.727 -6.965)">
    <path id="Path_1670" data-name="Path 1670" d="M-407.834,0h5.647V.188h.5l.063.125a1.435,1.435,0,0,0,.255.1l.139.05.108.037V.69l.251.063V.941h.251l.125.188.192.063.184.063.063.188.188.063v.188h.314l.063.188.188.059.188.067a.538.538,0,0,1,.063.251h.251l.063.314h.188l.063.314.188.063v.314h.251l.063.439.251.063v.627l.188-.063c.122.122.088.343.1.506l.016.245.012.19h.125V43.234l-.125.063a1.276,1.276,0,0,0-.039.286l-.014.157-.009.121h-.251v.565l-.188.063a.986.986,0,0,0-.063.282,1.306,1.306,0,0,1-.063.282l-.188.063-.063.439-.188.063-.063.376-.188.063-.063.188h-.251l-.063.251h-.125l-.063.188a1.064,1.064,0,0,1-.251.063l-.063.251h-.251v.188l-.188.063a1.124,1.124,0,0,0-.125.251l-.063-.126-.063.126-.122.027c-.153.027-.153.027-.255.224a3.106,3.106,0,0,1-.439.063l-.063.188h-.5v.188h-20.645v-.125l-8.6-.063v-.188l-.69-.063-.063-.251h-.5l-.063-.188a.8.8,0,0,0-.251-.063v-.188l-.141-.016a.8.8,0,0,1-.424-.3l-.188-.063-.063-.188-.188-.063a1.067,1.067,0,0,1-.063-.251h-.188l-.063-.314-.188-.063v-.314h-.251l-.016-.149-.047-.165-.126-.063-.125-.063a1.235,1.235,0,0,1-.063-.314l-.188-.063-.063-.5h-.188c-.081-.822-.072-1.644-.071-2.469q0-.243,0-.486,0-.527,0-1.055,0-.784,0-1.568,0-1.4,0-2.8,0-1.225,0-2.451v-.164q0-.33,0-.66,0-3.1,0-6.192,0-2.75,0-5.5,0-3.091,0-6.182,0-.329,0-.659v-.164q0-1.225,0-2.45,0-1.392,0-2.785,0-.779,0-1.558,0-.581,0-1.163,0-.235,0-.471,0-.32,0-.639c0-.061,0-.122,0-.185a8.371,8.371,0,0,1,.071-1.059h.251V2.949l.188-.063.063-.188h.251l.063-.314.188-.063.063-.376h.188l.02-.122.043-.129.188-.063V1.443h.251l.125-.251H-433l.063-.251.439-.063.063-.188.439-.063.063-.188.172-.009.224-.014.223-.013a.655.655,0,0,0,.448-.214c.122-.006.245-.008.367-.009h.8l.787,0,.848,0,1.47,0,2.125-.005,3.447-.008,3.35-.008h.208l1.035,0,8.592-.02Z" transform="translate(504.154 6.965)" fill="#fdc500"/>
    <path id="Path_1671" data-name="Path 1671" d="M-59.984,0h29.116V.125h.439V.314l.565.063V.565l.565.063V.816l.376.063v.251h.376V1.38l.376.063v.251h.251l.063.188a.8.8,0,0,0,.251.063V2.2h.314v.251h.188l.126.439h.188l.063.5h.188v.627l.251.063.063,4.894h.063V43.109h-.063l-.063.816h-.251v.5h-.251l0,.212a.557.557,0,0,1-.067.353h-.188v.439l-.251.063-.063.251h-.251V46l-.251.063-.02.122-.043.129-.188.063-.063.188h-.251v.251l-.251.125v.126l-.122.02-.129.043-.063.188-.314.063v.188h-.565v.125H-60.235v-.125h-.5l-.063-.188-.439-.063v-.251h-.5v-.188l-.251-.063v-.188l-.251-.125v-.125q-.124-.1-.251-.188l-.063-.126-.188-.125.063-.125-.188-.063-.063-.188-.188-.063v-.251h-.251v-.251h-.188l-.125-.439h-.188v-.376H-64V6.651h.125V3.514h.251v-.5l.251-.063,0-.18a.505.505,0,0,1,.067-.322l.188-.063.063-.188h.188V1.945l.188-.063.063-.188a1.069,1.069,0,0,1,.251-.063l.063-.251h.251l.063-.251.314-.063V.878h.439V.627h.439V.376l.314-.063V.125h.5Z" transform="translate(89.727 38.591)" fill="#fdc500"/>
    <path id="Path_1672" data-name="Path 1672" d="M-59.984,0h29.555V.125h.314V.376h.565l-.063.251h.439l-.063.251.314.063.063.188.125.031.126.031.063.188a.8.8,0,0,0,.251.063v.188l.376.063.063.188a.8.8,0,0,0,.251.063l.063.5.251.063-.063.188.251.063.126.439h.188v.565h.251v.753l.251.063v.5h.125v17.57h-.125v.753l-.251.063v.5h-.251v.376l-.188.063-.063.188-.063.188-.188.063v.188l-.251.063v.188l-.251.063v.188l-.122.02-.129.043-.063.188-.251.063-.063.188a2,2,0,0,1-.314.125v.126l-.376.126v.188l-.376.063v.188l-.439.063v.188h-.251v.125H-60.235v-.125h-.439v-.188l-.565-.063v-.251h-.314v-.188l-.122-.051c-.129-.075-.129-.075-.192-.263l-.188-.063-.063-.188-.188-.063-.063-.188-.188-.063-.063-.188a1.123,1.123,0,0,0-.251-.125V25.1l-.251-.125v-.125l-.188-.063a1.027,1.027,0,0,1-.075-.255l-.03-.139-.021-.108h-.188V23.97h-.251v-.69H-64V4.016h.125V3.577l.251-.063v-.5h.251l-.008-.176a.509.509,0,0,1,.133-.388l.188-.063V2.2l.251-.063V1.945l.251-.063V1.694l.377-.063V1.443l.314-.125V1.192l.314-.063.063-.188.439-.063-.063-.251.376-.063V.376L-60.3.314V.125h.314Z" transform="translate(89.727 6.965)" fill="#fdc500"/>
    <path id="Path_1673" data-name="Path 1673" d="M-59.984,0h29.555V.125h.314V.314l.439.063.063.251.376.063.063.188.125.031.125.031.063.188a.8.8,0,0,0,.251.063v.251h.376v.188l.314.063v.251h.314l.063.5h.188v.314h.251l.063.5.251-.063v.5l.251.125v.753h.251v.5h.125v17.57h-.125v.753l-.251.063v.5l-.251.063v.251l-.188.063a2.549,2.549,0,0,0-.126.439h-.251v.251l-.188.063v.188l-.122.02-.129.043-.063.188-.188.063-.063.188-.251.063-.063.188a2,2,0,0,1-.314.125v.126l-.184.051-.192.074-.063.188-.314.063v.188l-.439.063v.188h-.251v.125H-60.235v-.125h-.439v-.188l-.565-.063v-.251h-.251l-.016-.118c-.035-.145-.035-.145-.176-.212l-.122-.047v-.188h-.251V25.79h-.251v-.251h-.251v-.251h-.251l-.063-.188-.188-.063v-.251h-.251l-.125-.5h-.188v-.251l-.251-.063v-.69H-64V4.016h.125V3.577l.251-.063v-.5h.251l.063-.5L-63,2.447V2.2l.188-.063V1.945l.251-.063V1.694l.314-.063V1.443l.376-.063V1.192l.314-.063.063-.188.439-.063V.69l.314-.063.063-.251h.439V.125h.251Z" transform="translate(133.024 59.047)" fill="#fdc500"/>
    <path id="Path_1674" data-name="Path 1674" d="M0,0H.251A1.484,1.484,0,0,1,.4.584a1.733,1.733,0,0,0,.4.937c.078.11.078.11.078.361H.627V1.631H.439L.314,1.192H.125V.816H0Z" transform="translate(25.727 81.95)" fill="#fdc500"/>
    <path id="Path_1675" data-name="Path 1675" d="M-23.431,0h.188V.439L-23.4.463-23.557.5l-.063.125h-.251L-23.91.78-24,.941A1.349,1.349,0,0,1-24.373,1v.125c-.256.307-.256.307-.49.333L-25,1.443l.063-.188h.125l.02-.122L-24.749,1l.188-.063V.753h.251L-24.184.5H-24l.063-.251.439-.063Z" transform="translate(95.154 7.655)" fill="#fdc500"/>
    <path id="Path_1676" data-name="Path 1676" d="M0,0H.125A1.178,1.178,0,0,1,.314.941L.565,1v.5l-.188.063V1.255H.125V.565H0Z" transform="translate(25.727 29.68)" fill="#fdc500"/>
    <path id="Path_1677" data-name="Path 1677" d="M0,0,.314.063V.69L.627.816v.5H.376V1.067L.125,1V.314H0Z" transform="translate(69.024 82.013)" fill="#fdc500"/>
    <path id="Path_1678" data-name="Path 1678" d="M-8.435,0h.125a3.012,3.012,0,0,1,0,.376L-8.435.5-8.5.722a.528.528,0,0,1-.188.345c-.025.146-.046.292-.063.439L-9,1.569l.063-.753h.251V.251L-8.5.188Z" transform="translate(78.024 9.663)" fill="#fdc500"/>
    <path id="Path_1679" data-name="Path 1679" d="M-9.373,0l.251.063a2.117,2.117,0,0,1-.125.376Q-9.371.505-9.5.565c-.045.1-.087.208-.125.314l-.125.063V1.38L-10,1.506l.063-.69.251-.063,0-.18A.505.505,0,0,1-9.624.251l.188-.063Z" transform="translate(36.041 40.787)" fill="#fdc500"/>
    <path id="Path_1680" data-name="Path 1680" d="M0,0H.314V.753H.188V1H0Z" transform="translate(63.251 28.865)" fill="#fdc500"/>
    <path id="Path_1681" data-name="Path 1681" d="M-8.435,0h.251a1.349,1.349,0,0,1-.063.376A2.616,2.616,0,0,1-8.561.5a.592.592,0,0,0-.063.251l-.063.063q-.035.219-.063.439L-9,1.318l.125-.188c.045-.146.086-.292.125-.439l.071-.247.055-.192H-8.5Z" transform="translate(78.338 9.412)" fill="#fdc500"/>
    <path id="Path_1682" data-name="Path 1682" d="M-12.184,0l.063.125a1.872,1.872,0,0,1-.125.251h-.125V.627a1.324,1.324,0,0,1-.314.314.837.837,0,0,1-.314,0l.063-.188h.125l.02-.122L-12.749.5l.188-.063V.251h.251Z" transform="translate(83.154 8.157)" fill="#fdc500"/>
    <path id="Path_1683" data-name="Path 1683" d="M-2,0h.251V.314l-.125.063Q-1.909.6-1.933.816L-2.122.753C-2.14.215-2.14.215-2,0Z" transform="translate(108.607 49.886)" fill="#fdc500"/>
    <path id="Path_1684" data-name="Path 1684" d="M0,0C.243.055.243.055.314.125.328.231.34.337.349.443L.365.618.376.753H.125V.376H0Z" transform="translate(25.727 82.39)" fill="#fdc500"/>
    <path id="Path_1685" data-name="Path 1685" d="M0,0,.278.059.435.092c.13.034.13.034.192.1q0,.188,0,.376L.439.627V.376H.188L.165.259C.134.114.134.114,0,0Z" transform="translate(71.346 85.276)" fill="#fdc500"/>
    <path id="Path_1686" data-name="Path 1686" d="M-1.059,0h.125V.188h.125v.5A1.676,1.676,0,0,1-1.059.627,1.069,1.069,0,0,1-1.121.063Z" transform="translate(64.372 11.86)" fill="#fdc500"/>
    <path id="Path_1687" data-name="Path 1687" d="M-4.864,0V.5H-4.99V.69h-.125A.983.983,0,0,1-5.178.125C-4.99,0-4.99,0-4.864,0Z" transform="translate(111.726 81.197)" fill="#fdc500"/>
    <path id="Path_1688" data-name="Path 1688" d="M-.062,0H.126L.252.753H0A2.174,2.174,0,0,1-.062,0Z" transform="translate(106.548 11.671)" fill="#fdc500"/>
    <path id="Path_1689" data-name="Path 1689" d="M-4.686,0l.125.063A2.278,2.278,0,0,1-4.624.5a.45.45,0,0,1-.251.125L-5,.565l.063-.188h.125V.063Z" transform="translate(74.463 61.682)" fill="#fdc500"/>
    <path id="Path_1690" data-name="Path 1690" d="M-3.749,0-3.5.063c-.118.369-.118.369-.188.439q-.157,0-.314,0V.251l.188-.063Z" transform="translate(30.417 40.787)" fill="#fdc500"/>
    <path id="Path_1691" data-name="Path 1691" d="M-2.058,0h.251V.251L-2.12.376l.063.565h-.125c0-.11-.006-.22-.008-.329l0-.185A.824.824,0,0,1-2.058,0Z" transform="translate(108.668 80.946)" fill="#fdc500"/>
    <path id="Path_1692" data-name="Path 1692" d="M0,0H.565L.439.314H.063Z" transform="translate(73.103 59.047)" fill="#fdc500"/>
    <path id="Path_1693" data-name="Path 1693" d="M-4.686,0H-4.5V.439H-5V.251l.122-.02.129-.043Z" transform="translate(76.409 7.655)" fill="#fdc500"/>
    <path id="Path_1694" data-name="Path 1694" d="M-1.875,0a2.958,2.958,0,0,1,.314.314V.565h-.251V.314H-2V.125h.125Z" transform="translate(28.166 83.268)" fill="#fdc500"/>
    <path id="Path_1695" data-name="Path 1695" d="M-1.875,0h.251l.063.376H-2C-1.945.071-1.945.071-1.875,0Z" transform="translate(103.967 54.78)" fill="#fdc500"/>
    <path id="Path_1696" data-name="Path 1696" d="M-1.875,0l.125.063c.008.486.008.486-.063.627H-2v-.5h.125Z" transform="translate(27.727 10.793)" fill="#fdc500"/>
    <path id="Path_1697" data-name="Path 1697" d="M-1.875,0h.251q0,.188,0,.376c-.063.063-.063.063-.224.067L-2,.439C-1.964.29-1.923.146-1.875,0Z" transform="translate(74.099 7.404)" fill="#fdc500"/>
    <path id="Path_1698" data-name="Path 1698" d="M-.937,0h.376V.439L-.749.5V.188H-1Z" transform="translate(26.853 30.747)" fill="#fdc500"/>
    <path id="Path_1699" data-name="Path 1699" d="M-5.624,0a.509.509,0,0,1,0,.439l-.125.125H-6V.439h.188V.063Z" transform="translate(32.166 9.538)" fill="#fdc500"/>
    <path id="Path_1700" data-name="Path 1700" d="M0,0H.314V.188H.188V.565L0,.5Z" transform="translate(62.749 30.747)" fill="#fdc500"/>
    <path id="Path_1701" data-name="Path 1701" d="M-3.841,0V.439h-.125l-.063.188C-4.092.565-4.092.565-4.1.449l.006-.386A.377.377,0,0,1-3.841,0Z" transform="translate(67.405 29.178)" fill="#fdc500"/>
    <path id="Path_1702" data-name="Path 1702" d="M0,0,.439.063V.439L.251.5V.251L0,.188Z" transform="translate(69.15 82.829)" fill="#fdc500"/>
    <path id="Path_1703" data-name="Path 1703" d="M0,0H.251V.627H.125V.314H0Z" transform="translate(69.024 82.013)" fill="#fdc500"/>
    <path id="Path_1704" data-name="Path 1704" d="M-1.875,0c.125.125.125.125.133.353l-.008.212H-2V.125h.125Z" transform="translate(71.024 62.937)" fill="#fdc500"/>
    <path id="Path_1705" data-name="Path 1705" d="M-1.062,0h.125V.125h-.125q.026.186.055.373l.031.21.04.171.125.063v.314a1.124,1.124,0,0,1-.322-.89V.2C-1.124.063-1.124.063-1.062,0Z" transform="translate(107.547 11.546)" fill="#fdc500"/>
    <path id="Path_1706" data-name="Path 1706" d="M-3.749,0h.063c0,.089.006.178.008.267l0,.15a.849.849,0,0,1-.138.4H-4V.5l.251-.063Z" transform="translate(73.024 10.73)" fill="#fdc500"/>
    <path id="Path_1707" data-name="Path 1707" d="M0,0H.565L.5.251.063.188Z" transform="translate(101.34 6.965)" fill="#fdc500"/>
    <path id="Path_1708" data-name="Path 1708" d="M-.937,0h.314V.188H-.749L-.812.439H-1Z" transform="translate(63.184 83.896)" fill="#fdc500"/>
    <path id="Path_1709" data-name="Path 1709" d="M-1.054,0h.188a2.736,2.736,0,0,1,0,.439l-.188.125C-1.117.5-1.117.5-1.125.282-1.117.063-1.117.063-1.054,0Z" transform="translate(64.431 81.26)" fill="#fdc500"/>
    <path id="Path_1710" data-name="Path 1710" d="M0,0H.439L.376.314,0,.251Z" transform="translate(58.796 6.965)" fill="#fdc500"/>
    <path id="Path_1711" data-name="Path 1711" d="M0,0H.376L.439.251.188.376V.251H.063Z" transform="translate(102.093 59.047)" fill="#fdc500"/>
    <path id="Path_1712" data-name="Path 1712" d="M0,0,.439.125V.5H.314V.251H0Z" transform="translate(28.174 33.32)" fill="#fdc500"/>
    <path id="Path_1713" data-name="Path 1713" d="M-4.686,0l.063.188-.125.125c-.045.145-.087.292-.125.439L-5,.69l.063-.565h.251Z" transform="translate(74.024 10.354)" fill="#fdc500"/>
    <path id="Path_1714" data-name="Path 1714" d="M0,0H.314L.251.11C.171.263.171.263.188.5H0Z" transform="translate(106.046 82.829)" fill="#fdc500"/>
    <path id="Path_1715" data-name="Path 1715" d="M-.937,0h.251A1.714,1.714,0,0,1-.749.376.684.684,0,0,1-1,.5Z" transform="translate(70.84 9.412)" fill="#fdc500"/>
    <path id="Path_1716" data-name="Path 1716" d="M0,0C.306.055.306.055.376.125q0,.157,0,.314L.188.376V.251L0,.188Z" transform="translate(26.417 31.563)" fill="#fdc500"/>
    <path id="Path_1717" data-name="Path 1717" d="M0,0,.251.125V.565H.125V.314H0Z" transform="translate(25.727 29.931)" fill="#fdc500"/>
    <path id="Path_1718" data-name="Path 1718" d="M-3.749,0h.125V.376L-4,.439V.251l.188-.063Z" transform="translate(73.338 9.663)" fill="#fdc500"/>
    <path id="Path_1719" data-name="Path 1719" d="M0,0C.306.055.306.055.376.125q0,.157,0,.314H.251V.188H0Z" transform="translate(69.714 83.645)" fill="#fdc500"/>
    <path id="Path_1720" data-name="Path 1720" d="M-.937,0l.188.063V.376L-1,.5Z" transform="translate(27.041 41.791)" fill="#fdc500"/>
    <path id="Path_1721" data-name="Path 1721" d="M-.937,0l.314.063V.439L-.749.376V.251L-1,.188Z" transform="translate(29.802 33.634)" fill="#fdc500"/>
    <path id="Path_1722" data-name="Path 1722" d="M0,0H.376V.251H.063Z" transform="translate(29.806 6.965)" fill="#fdc500"/>
    <path id="Path_1723" data-name="Path 1723" d="M-.937,0l.314.063V.439L-.749.376V.251L-1,.125Z" transform="translate(73.099 85.715)" fill="#fdc500"/>
    <path id="Path_1724" data-name="Path 1724" d="M-3.749,0h.063c.005.1.009.2.012.3l.007.17a.37.37,0,0,1-.105.27A.259.259,0,0,1-4,.816V.627h.188Z" transform="translate(29.727 10.856)" fill="#fdc500"/>
    <path id="Path_1725" data-name="Path 1725" d="M-5.624,0l.063.125a1.872,1.872,0,0,1-.125.251h-.125l-.063.188H-6V.251h.251Z" transform="translate(76.593 8.157)" fill="#fdc500"/>
    <path id="Path_1726" data-name="Path 1726" d="M-2.812,0c.125.125.125.125.138.248l-.012.38h-.063ZM-3,.627l.251.063L-3,.816Z" transform="translate(72.024 62.875)" fill="#fdc500"/>
    <path id="Path_1727" data-name="Path 1727" d="M-1.113,0h.125L-1.05.627C-1.176.5-1.176.5-1.187.278-1.176.063-1.176.063-1.113,0Z" transform="translate(64.427 11.86)" fill="#fdc500"/>
    <path id="Path_1728" data-name="Path 1728" d="M-.967,0h.125V.125l.125.063H-.841L-.967.439h-.063q0-.188,0-.376Z" transform="translate(107.577 64.004)" fill="#fdc500"/>
    <path id="Path_1729" data-name="Path 1729" d="M-3.749,0h.063V.376L-4,.439V.314l.125-.063A1.87,1.87,0,0,0-3.749,0Z" transform="translate(74.781 8.22)" fill="#fdc500"/>
    <path id="Path_1730" data-name="Path 1730" d="M0,0H.188V.314H.063L0,.439Z" transform="translate(106.674 81.386)" fill="#fdc500"/>
    <path id="Path_1731" data-name="Path 1731" d="M-.937,0h.188V.251L-1,.376Z" transform="translate(107.611 80.946)" fill="#fdc500"/>
    <path id="Path_1732" data-name="Path 1732" d="M-1.962,0a1.175,1.175,0,0,1,.251.063V.188l-.118.02c-.156.035-.156.035-.259.231a2.092,2.092,0,0,1,0-.314Z" transform="translate(108.573 49.697)" fill="#fdc500"/>
  </g>
</svg>
