<svg xmlns="http://www.w3.org/2000/svg" width="116.912" height="114.262" viewBox="0 0 116.912 114.262">
  <g id="یطرلذ" transform="translate(-14.235 -30.491)">
    <path id="Path_3251" data-name="Path 3251" d="M-451.356,0h.735V.184l.367.092V.459l.643.092V.827l.643.184v.276l.735.092v.276l.643.092v.367h.735v.276l.258.075a1.262,1.262,0,0,1,.568.385,2.025,2.025,0,0,0,.459.092l.092.276.643.092v.276l.735.092v.276l.643.092v.276l.316.075.327.109.092.276.643.092v.276l.643.092.092.276.643.092v.276l.643.184v.184l.316.075.327.109.092.276.643.092v.276l.735.092-.092.367h.643V7.9l.735.092.092.276.643.092v.276l.643.092v.367h.735l-.092.367.735.092.092.276.551.092.092.276.643.092v.276l.735.092-.092.367h.643v.367l.735.092.092.276.643.092v.276l.643.092v.276l.643.092v.367l.735.092v.367h.643l.092.276.643.092v.276l.643.092v.367h.551l.052.178c.127.228.127.228.465.258l.31.023.092.276.643.092v.276l.643.092v.276l.643.092.092.367.643.092.092.276.551.092.092.276.643.092v.276l.643.092v.276l.316.075.327.109.092.276.643.092.092.276.551.092.092.276.643.092v.276l.643.092.092.367.551.092V20.3l.735.092v.276l.643.092v.367h.735l.092.367.551.092v.276l.735.092-.092.276.735.092v.367h.735v.276l.643.092v.367l.643.092v.276l.735.092v.367h.735l-.092.367h.735l.092.367.551.092v.276l.735.092v.184l.276.092V55.2h.184v48.767h-15.337V41.7l-60.89.092V54.828l-.092-.184h-.184v.276h-.184v.367l-5.6.092v.276l-.643.092v.367q-.276.006-.551,0c-.092-.092-.092-.092-.1-.344,0-.114,0-.227,0-.344,0-.063,0-.126,0-.191q0-.319,0-.639,0-.228,0-.456,0-.621,0-1.242,0-.648,0-1.3,0-1.229,0-2.457,0-1.4,0-2.8,0-2.877,0-5.754l-.367-.092a5.859,5.859,0,0,1-.092-1.1h-.367v-.827h-.367v-.735h-.367V37.1l-.367-.092-.075-.31c-.078-.353-.078-.353-.385-.517l.092-.276h-.367v-.367h-.276v-.276l-.276-.184v-.276l-.367-.092v-.367h-.367v-.367h-.643v-.276l-.224-.075-.235-.109-.092-.276a1.177,1.177,0,0,0-.367-.092v-.276l-.643-.092v-.367h-.551v-.276L-497,32.052V25.44l.459-.092v-.276l.643-.184v-.276h.735v-.367l.643-.092.092-.276.643-.092.092-.276.643-.184.092-.276.551-.092v-.276h.735v-.367l.643-.092.092-.276.735-.092v-.276l.643-.184v-.276l.643-.092v-.276h.735v-.367l.643-.092.092-.276.735-.092v-.367l.643-.092v-.276l.643-.092v-.276l.643-.092.092-.276.643-.092.092-.276.735-.092-.092-.367.735-.092v-.276l.643-.092.092-.276a4.992,4.992,0,0,1,.643-.184v-.184l.643-.092.092-.367.643-.092V15.7l.827-.092-.092-.276.643-.092.092-.276a4.988,4.988,0,0,1,.643-.184V14.6a1.4,1.4,0,0,1,.735-.092v-.367l.643-.092.092-.276a4.983,4.983,0,0,1,.643-.184v-.184l.735-.092v-.276l.643-.184v-.276h.735v-.367l.643-.092.092-.276a4.988,4.988,0,0,1,.643-.184V11.48l.735-.092.092-.367.551-.092v-.276H-470v-.367l.643-.092.092-.276a4.988,4.988,0,0,1,.643-.184V9.551l.735-.092-.092-.367.735-.092V8.725h.735V8.357l.643-.092.092-.276.643-.184.092-.276h.643l-.092-.367.735-.092V6.8h.735V6.429l.643-.092.092-.276a4.968,4.968,0,0,1,.643-.184V5.6L-461,5.51V5.235l.735-.092.092-.276a4.975,4.975,0,0,1,.643-.184V4.5l.735-.092V4.041l.643-.092V3.674l.643-.092.092-.276.643-.092.092-.276a4.976,4.976,0,0,1,.643-.184V2.572a1.4,1.4,0,0,1,.735-.092V2.112l.643-.092V1.745l.643-.092.092-.276.643-.092.092-.276a4.977,4.977,0,0,1,.643-.184V.551h.735V.184h.459Zm-35.726,30.491v7.715l71.635.551c.061-2.728.121-5.455.184-8.266Z" transform="translate(536.583 30.491)" fill="#fdc500"/>
    <path id="Path_3252" data-name="Path 3252" d="M-18.163,0h8.541q0,2.25.006,4.5c0,.113,0,.226,0,.342q0,5.383-.052,10.765l0,.32q-.02,1.909-.043,3.819l.551-.092V19.47l.264-.029c.314-.034.314-.034.471-.339a2.505,2.505,0,0,1,.459-.092v-.276h.643l.092-.367h.551v-.276h.551l.092-.367.224-.034.235-.057.092-.184a5.016,5.016,0,0,1,.551-.092v-.276l.643-.092v-.276l.551-.092.092-.276H-3.1l-.092-.276h.643v.184l.643.184v.276h.643l.092.276.551.092-.092.276.316.034.327.057.092.184a3.753,3.753,0,0,0,.551.092L.664,18l.551.092v.276h.643v.367h.735v.276l.551.092.092.276.551.092v.276l.27-.006c.281.006.281.006.373.1.011-2.726.005-5.449-.092-8.174l-.184.184c-.008-2.6.014-5.2.046-7.795L4.246.184h8.174V.367l.735.092.092.367h.459V1.1h.367l.184.367h.092l.029.31.063.333.276.184a2.49,2.49,0,0,1,.092.459H14.9v28.47h-.092l-.092,1.745h-.367v.735h-.367v.367h-.367v.276l-.276.092-.092.276-.276.092v.276a3.172,3.172,0,0,1-1.068.1h-.259l-.9,0h-.669L7.8,35.175l-.779,0Q3.2,35.161-.625,35.144l-.682,0-.342,0-2.787-.011-2.713-.011-1.61-.007-1.5-.007-.55,0-.747,0h-.222c-.5,0-.5,0-.6-.106-.022-.2-.038-.4-.052-.6l-.023-.333-.017-.258-.276-.092-.034-.224-.057-.235-.184-.092v-.459l-.367-.092v-.551h-.276l-.092-.276-.276-.092v-.367h-.276a1.854,1.854,0,0,1-.367-.367v-.276l-.178-.034-.189-.057-.092-.184-.276-.092-.092-.276-.143-.143-.132-.132v-.184l-.276-.092a1.56,1.56,0,0,1-.276-.276v-.184l-.367-.092v-.276h-.459v-.276l-.643-.092v-.276l-.367-.092v-.276h-.459l-.092-.276-.459-.092V27l-.212.023c-.247-.023-.247-.023-.408-.207l-.115-.184H-20v-11.2h.092l.092-13.684h.184l.184-.643h.276V.827h.367l.092-.367h.276V.184h.276Z" transform="translate(66.195 89.544)" fill="#fdc500"/>
    <path id="Path_3253" data-name="Path 3253" d="M-138.335-.012h.318a5.985,5.985,0,0,1,2.237.2h-.184V.458l.155,0a8.879,8.879,0,0,1,1.406.1V.826l.735.092v.367h.735V1.56l.643.184V2.02h.643l.092.184-.092.184.551.092.092.276a1.645,1.645,0,0,0,.367.184v.184l.367.092v.367h.367l.092.276a1.645,1.645,0,0,0,.367.184v.367h.367v.367h.367l.092.276.275.092a1.569,1.569,0,0,1,.092.367h.276l.031.157.044.2.042.2.067.17.276.092.092.735h.276v.367l.367.092.092.735.367.092.092,1.378h.276l.092,3.214h.092v1.929h-.184v2.572l-.184-.184-.276,1.01h-.276c0,.1.008.2.011.31-.011.333-.011.333-.2.517h-.276v.735h-.367l.052.161a.994.994,0,0,1-.052.574h-.367v.735l-.459.092v.367h-.367v.367l-.276.092q-.094.183-.184.367l-.276.184v.184h-.367l-.092.367h-.276v.367l-.459.092.092.276-.735.092.092.276c-.181.181-.491.153-.735.184V24.8a1.4,1.4,0,0,1-.735.092v.367h-.735v.367l-.643.092-.092.276-1.01.184.092.276a17.38,17.38,0,0,1-2.238.1h-3.493a6.84,6.84,0,0,1-1.983-.1l-.184-.276a6.449,6.449,0,0,0-.7-.109l-.2-.023c-.16-.018-.32-.035-.481-.052l.092-.276-.827-.092-.092-.276-.643-.092-.092-.276-.643-.092-.092-.367h-.551l-.029-.178-.063-.189-.276-.092-.092-.276a1.177,1.177,0,0,0-.367-.092v-.367h-.367v-.367h-.367v-.367h-.367l-.029-.178-.063-.189-.276-.092v-.367h-.367l-.092-.276-.276-.092-.184-.643-.276-.092-.092-.367-.275-.092-.092-.735-.367-.092.092-.276-.178-.034-.189-.057a1.4,1.4,0,0,1-.092-.735h-.367c-.071-.973-.106-1.941-.1-2.917q0-.2,0-.4,0-.414,0-.828,0-.525,0-1.05,0-.411,0-.821,0-.194,0-.387c0-.809.029-1.609.1-2.415h.367v-1.1l.367-.092-.011-.31c.011-.333.011-.333.2-.517h.276V6.7h.367V5.969l.367-.092.092-.367h.367l-.092-.367h.367l.092-.459h.276V4.316h.184l.034-.178.057-.189.184-.092V3.581h.459V3.213l.178-.029.189-.063.092-.276a2.944,2.944,0,0,1,.459-.184V2.479l.459-.092.092-.367h.459l.092-.367h.459V1.285l.827-.092V.917l.918-.092V.55l.827-.092-.092-.367C-139.99-.01-139.99-.01-138.335-.012Zm-6.605,7.591a6.9,6.9,0,0,0-.851.961l-.12.161a8.566,8.566,0,0,0-1.349,6.267,5.384,5.384,0,0,0,.367,1.194l.071.2a7.933,7.933,0,0,0,.95,1.747l.171.263a4.425,4.425,0,0,0,1.471,1.373l.417.278a8.277,8.277,0,0,0,6.212,1.5,8.126,8.126,0,0,0,4.576-2.883l.2-.241q.273-.335.536-.677l.13-.158a7.453,7.453,0,0,0,1.306-5.079,9.825,9.825,0,0,0-1.252-3.12l-.134-.284c-.932-1.755-2.874-2.785-4.642-3.482l-.231-.091C-139.932,4.475-142.836,5.721-144.94,7.579Z" transform="translate(178.578 118.199)" fill="#fdc500"/>
    <path id="Path_3254" data-name="Path 3254" d="M-.09-.081,1.058-.087l.326,0a10.274,10.274,0,0,1,1.648.1V.286l.459.092.092.276.459.092.092.276.551.092V1.48h.367l.092.276.276.092.092.643.367.092V2.95l.367.092v.184l.367.092.092,1.01h.276l.092,1.1.276.092.092.643h.092V49.329H1.563V6.532H1.379l-.092-.184c-.151-.066-.3-.128-.459-.184V5.889l-.264.006a.74.74,0,0,1-.471-.1L.086,5.5Q.073,4.938.059,4.38.053,4.14.048,3.9.04,3.552.03,3.2l0-.215A10.141,10.141,0,0,0-.09,1.756C-.1,1.6-.1,1.446-.1,1.291V1.046L-.1.8V.541Q-.093.23-.09-.081Z" transform="translate(35.816 66.848)" fill="#fdc500"/>
    <path id="Path_3255" data-name="Path 3255" d="M0,0H32.511L32.6.459l.276.092V.918l.367.092.023.264c.037.3.037.3.258.413l.178.057V2.02h.184v.735h-.184V4.133l-.367.184a2.5,2.5,0,0,0-.092.643l-.643.184v.276l-.551.092v.276H.918V5.97H.276V5.694H0V5.051H.276V3.674l.184-.092a3.29,3.29,0,0,0,.1-1.125V2.249q0-.252,0-.5L.276,1.653V.551H0Z" transform="translate(56.114 128.484)" fill="#fdc500"/>
    <path id="Path_3256" data-name="Path 3256" d="M0,0H9V15.613l-.918-.092v-.367H7.531v-.367H7.072v-.276H6.521v-.367H6.061l-.092-.276-.551-.092V13.5l-.459-.092v-.276H4.684v.276l-.459.092v.276H3.582v.367H3.031v.367H2.48v.276l-.551.092v.276l-.643.092v.276a3.5,3.5,0,0,1-1.194.092Z" transform="translate(59.145 89.544)" fill="#fdc500"/>
    <path id="Path_3257" data-name="Path 3257" d="M-19.071,0h10.1V.184H-4.01c0,.9,0,.9.006,1.825,0,.186,0,.373,0,.565,0,.8-.006,1.6-.049,2.4l-.011.208a2.884,2.884,0,0,1-.132.784H-18.98V5.786l-.184-.092V5.6l-.459-.092V5.235h-.551l.092-.276-.459-.092V4.316h-.276V3.674H-21V2.2h.184l.038-.157c.055-.214.118-.424.186-.635l.069-.216a.761.761,0,0,1,.259-.37V.735L-20.041.7l.235-.057.092-.184.367-.092.092-.184h.184Z" transform="translate(35.235 66.768)" fill="#fdc500"/>
    <path id="Path_3258" data-name="Path 3258" d="M-67.422-7.42l.15.11.235.155a4.329,4.329,0,0,1,1.342,2.726c.05,2.133.05,2.133-.384,3l-.118.244A4.2,4.2,0,0,1-68.665.782,4.866,4.866,0,0,1-71.956.5l-.218-.118a4.462,4.462,0,0,1-1.9-2.558,5.589,5.589,0,0,1,.286-3.569L-73.668-6a4.042,4.042,0,0,1,2.431-2A4.567,4.567,0,0,1-67.422-7.42Z" transform="translate(109.059 135.151)" fill="#fdc500"/>
    <path id="Path_3259" data-name="Path 3259" d="M-57.288-.123h25.294l8.566,0,9.619,0H2.378a1.221,1.221,0,0,1,.573.207V5.032H2.584V.348L-58.306.44V13.481L-58.4,13.3h-.184v.276h-.184v.367h-4.316c.092-.551.092-.551.184-.643.285-.008.568-.011.853-.009h.259l.823,0h.556l1.367,0c0-.068,0-.135,0-.2q-.006-2.461-.009-4.923,0-1.19,0-2.381,0-1.037,0-2.074,0-.549,0-1.1,0-.517,0-1.033,0-.19,0-.38c0-.172,0-.345,0-.517,0-.1,0-.193,0-.293.023-.228.023-.228.206-.411A6.278,6.278,0,0,1-57.288-.123Z" transform="translate(113.226 71.838)" fill="#fdc500"/>
    <path id="Path_3260" data-name="Path 3260" d="M-3.111-.006H16.576L27.3,0,37.723,0H48.144l20.179,0V.281H-3.311V8l2.124,0q9.851-.01,19.7.072l2.887.023.2,0,1,.008,6.939.055,6.712.053.212,0,2.105.017,4.283.034.2,0,12.97.1v.092l-16.935.008H38.83l-5.442,0H30.45l-8.615,0-8.85,0h-1.5l-3.964,0H-3.041c-.179-.023-.179-.023-.362-.207-.018-.26-.024-.51-.022-.77V7.26q0-.4,0-.792,0-.274,0-.548,0-.575,0-1.15,0-.739,0-1.478,0-.566,0-1.132,0-.273,0-.545,0-.38,0-.76c0-.076,0-.152,0-.23C-3.413.012-3.413.012-3.111-.006Z" transform="translate(52.813 60.7)" fill="#fdc500"/>
    <path id="Path_3261" data-name="Path 3261" d="M-146.214,0h.276V.367h.184V49.134H-161v-.459l.551.092-.092-.367.184.184h14.143Z" transform="translate(276.902 85.319)" fill="#fdc500"/>
    <path id="Path_3262" data-name="Path 3262" d="M0,0C.459.092.459.092.551.184.56.406.563.625.562.848v.214q0,.36,0,.719,0,.259,0,.517,0,.714,0,1.429,0,.769,0,1.538,0,1.334,0,2.667,0,1.928,0,3.856,0,3.128,0,6.256,0,3.039,0,6.079c0,.062,0,.125,0,.189q0,.94,0,1.88,0,7.889,0,15.779H0Z" transform="translate(37.379 74.207)" fill="#fdc500"/>
    <path id="Path_3263" data-name="Path 3263" d="M-57.288-.123h25.294l8.566,0,9.619,0H2.378a1.221,1.221,0,0,1,.573.207V5.032H2.584V.348H1.941l.092-.367L-58.122.073l.092.276-.276.092V13.481L-58.4,13.3h-.184v.276h-.184v.367h-4.316c.092-.551.092-.551.184-.643.285-.008.568-.011.853-.009h.259l.823,0h.556l1.367,0c0-.068,0-.135,0-.2q-.006-2.461-.009-4.923,0-1.19,0-2.381,0-1.037,0-2.074,0-.549,0-1.1,0-.517,0-1.033,0-.19,0-.38c0-.172,0-.345,0-.517,0-.1,0-.193,0-.293.023-.228.023-.228.206-.411A6.278,6.278,0,0,1-57.288-.123Z" transform="translate(113.226 71.838)" fill="#fdc500"/>
    <path id="Path_3264" data-name="Path 3264" d="M0,0H32.511L32.6.459l.276.092V.735l-.193-.04A14.423,14.423,0,0,0,29.835.436H1.168a2.409,2.409,0,0,0-.892.3V.551H0Z" transform="translate(56.114 128.484)" fill="#fdc500"/>
    <path id="Path_3265" data-name="Path 3265" d="M-6.93-.02l.267,0,.294,0h.313c.35,0,.7,0,1.049,0h2.4q1.225,0,2.451,0,2.188,0,4.377,0H9.341q4.835,0,9.669,0,4.3,0,8.6,0H42.114l4.606,0H53.5A2.124,2.124,0,0,1,54.177.2V.382L54.021.337A2.867,2.867,0,0,0,53.37.279H36.726l-9.194,0L18.6.285H9.665l-17.3,0A.716.716,0,0,1-6.93-.02Z" transform="translate(62 71.529)" fill="#fdc500"/>
    <path id="Path_3266" data-name="Path 3266" d="M0,0H.092L.184.459H.276Q.285,5.895.29,11.331q0,.641,0,1.282v.258q0,2.069.006,4.138,0,2.122,0,4.244,0,1.31,0,2.62,0,.9,0,1.795,0,.518,0,1.037c0,.374,0,.748,0,1.122l0,.334,0,.3v.262l-.034.205L0,29.113Z" transform="translate(80.819 91.84)" fill="#fdc500"/>
    <path id="Path_3267" data-name="Path 3267" d="M-1.816,0c.356.161.356.161.459.367.009.17.011.34.011.51v.691q0,.19,0,.38,0,.517,0,1.034,0,.54,0,1.08,0,1.023,0,2.045,0,1.164,0,2.328,0,2.395,0,4.79l-.092-.184h-.184v.276h-.184v.276H-2q.015-2.638.031-5.276.008-1.225.015-2.45.006-1.067.013-2.134,0-.565.007-1.131,0-.532.007-1.063,0-.2,0-.391,0-.266,0-.532l0-.3C-1.908.092-1.908.092-1.816,0Z" transform="translate(56.277 72.094)" fill="#fdc500"/>
    <path id="Path_3268" data-name="Path 3268" d="M0,0H71.635l-.092.276V.092L51.172.114h-.3L44.32.122l-3.211,0h-.323L30.423.138,19.776.15l-1.5,0h-.3L13.207.157,8.419.163l-2.848,0-1.9,0H2.587l-1.165,0H.5a.96.96,0,0,0-.5.1Z" transform="translate(49.502 60.706)" fill="#fdc500"/>
    <path id="Path_3269" data-name="Path 3269" d="M0-.046q8.862-.016,17.724.04l.2,0,4.923.04L25.69.059l.207,0,1.03.008,8.339.069V.23H.092Z" transform="translate(49.685 68.742)" fill="#fdc500"/>
    <path id="Path_3270" data-name="Path 3270" d="M0,0H.276L.459.367H.551L.585.683l.057.327L.827,1.1.918,30.491.643,30.4v-.186q-.011-5.448-.025-10.9,0-.654,0-1.307v-.263Q.608,15.638.6,13.528.6,11.365.593,9.2q0-1.336-.006-2.671,0-.915,0-1.829,0-.528,0-1.057,0-.572,0-1.144V2.161l0-.307V1.586c0-.227,0-.227-.207-.393a3.061,3.061,0,0,1,0-.459L0,.551Z" transform="translate(79.992 90.646)" fill="#fdc500"/>
    <path id="Path_3271" data-name="Path 3271" d="M-150.755,0V.551H-166V.092l.193.045a5.06,5.06,0,0,0,.855.063l.361,0,.394,0,.416,0,1.128.01.705.006,2.206.017q1.273.009,2.546.021l1.969.016,1.176.01Q-153.5.3-152.946.3l.406,0c.185,0,.369,0,.554,0l.313,0C-151.322.267-151.09,0-150.755,0Z" transform="translate(281.902 133.902)" fill="#fdc500"/>
    <path id="Path_3272" data-name="Path 3272" d="M-144.4,0V.367H-159V.091l5.468-.036,2.539-.017,2.213-.015,1.172-.008,1.1-.007.4,0,.553,0,.312,0Z" transform="translate(175.439 72.371)" fill="#fdc500"/>
    <path id="Path_3273" data-name="Path 3273" d="M-39.959,0h.092V13.684l.184.092H-44c.092-.551.092-.551.184-.643h3.857Z" transform="translate(94.145 72.002)" fill="#fdc500"/>
    <path id="Path_3274" data-name="Path 3274" d="M-65.388,0h.276a2.045,2.045,0,0,1,0,.459l-.276.184-.092.276-.264.029c-.314.034-.314.034-.471.339-.181.068-.366.128-.551.184a6.452,6.452,0,0,0-1.751.991c-.177.111-.177.111-.545.111l-.057.172c-.176.272-.374.289-.677.379l-.092.184a2.484,2.484,0,0,1-.723.356,1.958,1.958,0,0,0-.614.344.909.909,0,0,1-.585.247L-72,4.225V3.674l.643-.092V3.4l.264-.029c.314-.034.314-.034.471-.339a2.5,2.5,0,0,1,.459-.092V2.663h.643l.092-.367h.551V2.02h.551l.092-.367.224-.034.235-.057.092-.184a5.013,5.013,0,0,1,.551-.092V1.01l.643-.092V.643l.551-.092.092-.276h.551Z" transform="translate(128.39 105.616)" fill="#fdc500"/>
    <path id="Path_3275" data-name="Path 3275" d="M0,0H9.735l.092.276a1.049,1.049,0,0,1-.572.1H6.868L5.16.374l-1.741,0L0,.367Z" transform="translate(16.256 66.768)" fill="#fdc500"/>
    <path id="Path_3276" data-name="Path 3276" d="M-6.357,0H2.092V.276l-.255,0L-.562.3-1.795.314-2.988.327l-.452,0A12.337,12.337,0,0,0-7,.735l.092-.276h.276V.184h.276Z" transform="translate(54.389 89.544)" fill="#fdc500"/>
    <path id="Path_3277" data-name="Path 3277" d="M0,0,.184.184A2.98,2.98,0,0,0,.741.207l.361,0H6.23q1.153,0,2.305,0h5.549c.257,0,.257,0,.427-.207a1.228,1.228,0,0,1-.092.367,1.451,1.451,0,0,1-.933.2h-.352l-.385,0-.406,0-1.1-.007L10.089.55,8.153.536Q7.034.527,5.914.521L3.993.509,2.845.5,1.766.493l-.4,0-.54,0-.306,0A.785.785,0,0,1,0,.276Z" transform="translate(116.361 133.719)" fill="#fdc500"/>
    <path id="Path_3278" data-name="Path 3278" d="M-37.235,0l.643.092V.551l-.276.092V.827l-.3.034a.809.809,0,0,0-.614.241c-.214.007-.429.008-.643,0l-.092.459-.643-.092-.092.459H-39.9V2.3c-.738.209-.738.209-1.1.092l.184-.092a1.841,1.841,0,0,0,.092-.367h.459l.092-.367h.459V1.194l.827-.092V.827l.918-.092V.459l.827-.092Z" transform="translate(72.501 118.29)" fill="#fdc500"/>
    <path id="Path_3279" data-name="Path 3279" d="M-50.857,0l-.092.551H-56l.184-.367.169,0,1.739-.031.649-.011.932-.017.294,0,.273-.006.24,0C-51.286.09-51.092,0-50.857,0Z" transform="translate(129.839 124.167)" fill="#fdc500"/>
    <path id="Path_3280" data-name="Path 3280" d="M0,0H.551V4.959H.184V.276H0Z" transform="translate(115.626 71.911)" fill="#fdc500"/>
    <path id="Path_3281" data-name="Path 3281" d="M-20.944,0l.27.006V.74l-.184-.184-.276,1.01h-.276l.011.31c-.011.333-.011.333-.2.517h-.276v.735h-.367l.052.161a.994.994,0,0,1-.052.574H-22.6V4.6l-.459.092A2.807,2.807,0,0,1-22.7,3.5h.276l.034-.218a.6.6,0,0,1,.241-.425l.04-.321.052-.321.276-.184.04-.321.052-.321a1.7,1.7,0,0,1,.367-.184l0-.238,0-.307,0-.307C-21.314-.007-21.3.007-20.944,0Z" transform="translate(73.299 134.907)" fill="#fdc500"/>
    <path id="Path_3282" data-name="Path 3282" d="M-.076,0,.016.184H.291V.551L.658.643l.092.735.367.092L1.21,2.847h.276l-.092.459a3.061,3.061,0,0,1-.459,0C.678,3.05.717,2.838.7,2.488.674,2.26.674,2.26.383,2.112A1.764,1.764,0,0,1,.337,1.7a.719.719,0,0,0-.183-.573L.016,1.01A2.546,2.546,0,0,1-.076,0Z" transform="translate(51.139 125.086)" fill="#fdc500"/>
    <path id="Path_3283" data-name="Path 3283" d="M-1.017,0C-.737.281-.8.61-.8.987l.005.247q.008.393.014.786.005.257.011.513.032,1.58.024,3.161L-.834,5.51h-.184l-.092.276q0-1.111,0-2.222,0-.516,0-1.032,0-.5,0-1,0-.19,0-.38,0-.266,0-.531V.319C-1.109.092-1.109.092-1.017,0Z" transform="translate(55.662 79.625)" fill="#fdc500"/>
    <path id="Path_3284" data-name="Path 3284" d="M0,0H.276V.276H.918V.643h.735V.918L2.2,1.01l.092.276.551.092v.276H3.4l.092.184L3.4,2.112H2.939V1.929l-.172-.034a.612.612,0,0,1-.379-.241l-.321-.046c-.321-.046-.321-.046-.505-.23l-.189-.046-.178-.046L1.1,1.1Q.83.958.551.827V.551H0Z" transform="translate(67.135 107.636)" fill="#fdc500"/>
    <path id="Path_3285" data-name="Path 3285" d="M-.025,0A2.193,2.193,0,0,1,.382,1.544l.053.293q.182.094.367.184a2.473,2.473,0,0,1,.069.6l.016.324c0,.152.007.3.007.456l.184.184a4.054,4.054,0,0,1,.092.459L.8,3.949l.092-.276L.716,3.639.527,3.582a1.4,1.4,0,0,1-.092-.735H.067C0,1.9-.037.954-.025,0Z" transform="translate(26.291 133.627)" fill="#fdc500"/>
    <path id="Path_3286" data-name="Path 3286" d="M-35.418,0V.459l.184.092H-39l.092-.367a3.115,3.115,0,0,1,1.02-.1h.189l.594,0,.784.006.351,0C-35.753.094-35.614,0-35.418,0Z" transform="translate(89.696 85.227)" fill="#fdc500"/>
    <path id="Path_3287" data-name="Path 3287" d="M0,0,.092.184H.459l.034.27L.551.735.735.827l.029.253a1.218,1.218,0,0,0,.522.758c.092.092.092.092.1.373l-.006.27H1.63c.3.092.3.092.4.258q.089.2.165.4c.084.185.084.185.291.235l.173.023.184.643H2.48l-.092-.276-.276-.092V3.306H1.745l-.092-.276-.276-.092L1.194,2.3.918,2.2.827,1.837.551,1.745a3.807,3.807,0,0,1-.138-.585A1.281,1.281,0,0,0,0,.276Z" transform="translate(27.001 136.658)" fill="#fdc500"/>
    <path id="Path_3288" data-name="Path 3288" d="M-2.04,0h.367l.092.367L-2.04.276l-.092,13.041h-.092q-.006-2.564-.01-5.128,0-1.19,0-2.381,0-1.037,0-2.074,0-.549,0-1.1,0-.517,0-1.033,0-.19,0-.38c0-.172,0-.345,0-.517V.411C-2.223.184-2.223.184-2.04,0Z" transform="translate(56.501 71.911)" fill="#fdc500"/>
    <path id="Path_3289" data-name="Path 3289" d="M-25.428,0l.184.092-.092.459H-25.8l-.017.212a.536.536,0,0,1-.276.4,2.646,2.646,0,0,1-.522.2,1.958,1.958,0,0,0-.614.344.909.909,0,0,1-.585.247L-28,1.929V1.378l.643-.092V1.1l.264-.029c.314-.034.314-.034.471-.339a2.5,2.5,0,0,1,.459-.092V.367h.643Z" transform="translate(84.39 107.912)" fill="#fdc500"/>
    <path id="Path_3290" data-name="Path 3290" d="M0,0,.459.184V3.214H.276V3.4H.092Z" transform="translate(54.461 72.278)" fill="#fdc500"/>
    <path id="Path_3291" data-name="Path 3291" d="M-19.98,0h.459V.184h-.367V.551l-.276.092q-.094.182-.184.367l-.276.184v.184h-.367l-.092.367h-.276v.367l-.459.092.092.276H-22c.062-.7.718-1.2,1.211-1.653a1.609,1.609,0,0,0,.35-.643h.459Z" transform="translate(69.757 139.78)" fill="#fdc500"/>
    <path id="Path_3292" data-name="Path 3292" d="M-11.806,0h.184A.806.806,0,0,1-11.6.614c-.115.212-.115.212-.39.3v.735l-.459.092.011.264c-.011.287-.011.287-.2.471h-.276L-13,2.663l.092-.459h.184l-.011-.31c.011-.333.011-.333.2-.517h.276V.643h.367L-11.9.373C-11.9.092-11.9.092-11.806,0Z" transform="translate(39.817 124.259)" fill="#fdc500"/>
    <path id="Path_3293" data-name="Path 3293" d="M-15.439,0h.276a2.045,2.045,0,0,1,0,.459l-.276.184-.092.276-.264.029c-.314.034-.314.034-.471.339A4.88,4.88,0,0,1-17,1.469V1.01l.459-.092V.643l.551-.092L-15.9.276h.551Z" transform="translate(78.441 105.616)" fill="#fdc500"/>
    <path id="Path_3294" data-name="Path 3294" d="M-46.316,0V.271H-51V.087l1.735-.039.59-.013.849-.019.265-.006C-47.145,0-46.731-.007-46.316,0Z" transform="translate(125.023 124.448)" fill="#fdc500"/>
    <path id="Path_3295" data-name="Path 3295" d="M0,0H.276V.367H.459V.551L.324.658a1.153,1.153,0,0,0-.18.84l0,.206c0,.225,0,.45,0,.675q0,.234,0,.468Q.125,3.465.122,4.081T.111,5.339Q.1,6.573.092,7.806H0Z" transform="translate(130.688 85.319)" fill="#fdc500"/>
    <path id="Path_3296" data-name="Path 3296" d="M-3.179,0h.627l.343,0h.344l.844,0-.092.367h-2.3L-3.5.1C-3.408.01-3.408.01-3.179,0Z" transform="translate(42.348 118.187)" fill="#fdc500"/>
    <path id="Path_3297" data-name="Path 3297" d="M-.937,0h.184l.092.276L-.11.367-.2.643.114.677.441.735.533.918a3.762,3.762,0,0,0,.551.092l.092.367A.73.73,0,0,1,.5,1.366,4.566,4.566,0,0,1-.32.839,2.281,2.281,0,0,0-1.028.551q-.006-.23,0-.459Z" transform="translate(65.684 106.259)" fill="#fdc500"/>
    <path id="Path_3298" data-name="Path 3298" d="M0,0H.184c.184.184.184.184.2.382l0,.242,0,.262,0,.274,0,.276q0,.338-.009.677H.184v.551L0,2.572Z" transform="translate(52.441 130.964)" fill="#fdc500"/>
    <path id="Path_3299" data-name="Path 3299" d="M-.908,0l.092.184h.184V.551l.367.092V1.01L.1,1.1v.184l.367.092v.551l-.551-.092V1.286l-.224-.069L-.541,1.1A2.453,2.453,0,0,1-.633.735L-.908.643Q-.961.369-1,.092Z" transform="translate(41.961 68.788)" fill="#fdc500"/>
    <path id="Path_3300" data-name="Path 3300" d="M-5.506,0l.27.006V.74L-5.42.557-5.7,1.567h-.276l-.092.184q.042-.41.086-.821l.024-.237.024-.225L-5.906.26C-5.858-.025-5.8.006-5.506,0Z" transform="translate(57.86 134.907)" fill="#fdc500"/>
    <path id="Path_3301" data-name="Path 3301" d="M0,0C.464.071.92.171,1.378.276l.092.367h.643L2.2,1.01l.367.092-.092.276L2.331,1.3,1.653.941,1.42.818Q.714.446,0,.092Z" transform="translate(41.879 123.892)" fill="#fdc500"/>
    <path id="Path_3302" data-name="Path 3302" d="M-20.263-.05l.294,0h.539a1.825,1.825,0,0,1,.7.206l.092.184-.186-.043A7.988,7.988,0,0,0-21.119.23c-.4.026-.8.02-1.194.012V.059A17.041,17.041,0,0,1-20.263-.05Z" transform="translate(59.783 123.374)" fill="#fdc500"/>
    <path id="Path_3303" data-name="Path 3303" d="M0,0A4.433,4.433,0,0,1,1.01.276.787.787,0,0,1,1.1.643l.643.184-.092.367L1.561,1.1Q1.241,1.051.918,1.01L.827.643H.276L.241.465.184.276,0,.184Z" transform="translate(31.134 142.076)" fill="#fdc500"/>
    <path id="Path_3304" data-name="Path 3304" d="M-5.858,0c.133.266.022.434-.063.7a10.091,10.091,0,0,0-.3,3.521,2.481,2.481,0,0,1-.212-1.487l0-.336A3.63,3.63,0,0,1-6.134.735q.055-.18.1-.362C-5.95.092-5.95.092-5.858,0Z" transform="translate(37.543 128.759)" fill="#fdc500"/>
    <path id="Path_3305" data-name="Path 3305" d="M-11.806,0h.276q.006.275,0,.551c-.092.092-.092.092-.373.1l-.27-.006-.092.459h-.551L-13,.735h.459V.367L-11.9.276Z" transform="translate(57.45 52.441)" fill="#fdc500"/>
    <path id="Path_3306" data-name="Path 3306" d="M0,0A6.342,6.342,0,0,1,1.285.373,4.523,4.523,0,0,0,3.065.58l.32,0a6.085,6.085,0,0,0,1.3-.118L4.592.735Q3.965.745,3.337.75L2.912.756C1.49.779,1.49.779.827.459l-.3-.04A.527.527,0,0,1,.1.178Z" transform="translate(36.46 139.137)" fill="#fdc500"/>
    <path id="Path_3307" data-name="Path 3307" d="M-.085,0H.1V.367L.466.459l.092.735.367.092-.092.367L.374,1.561.32,1.39.248,1.165.177.942A1.228,1.228,0,0,0-.085.459,3.056,3.056,0,0,1-.085,0Z" transform="translate(51.332 125.27)" fill="#fdc500"/>
    <path id="Path_3308" data-name="Path 3308" d="M-1.017,0h.276L-.834.367H-.926l-.092,5.51h-.092q0-1.129,0-2.258,0-.524,0-1.049,0-.506,0-1.011,0-.193,0-.387,0-.27,0-.54V.323C-1.109.092-1.109.092-1.017,0Z" transform="translate(38.488 74.574)" fill="#fdc500"/>
    <path id="Path_3309" data-name="Path 3309" d="M-.908,0H.469V.276H.194V.459H-1Z" transform="translate(42.42 144.28)" fill="#fdc500"/>
    <path id="Path_3310" data-name="Path 3310" d="M0,0,.092.184H.459l.034.27L.551.735.735.827l.034.264c.069.346.155.362.425.563a1.534,1.534,0,0,1,0,.459L.918,2.2.89,2.026.827,1.837.551,1.745a3.807,3.807,0,0,1-.138-.585A1.281,1.281,0,0,0,0,.276Z" transform="translate(27.001 136.658)" fill="#fdc500"/>
    <path id="Path_3311" data-name="Path 3311" d="M0,0H.184V.184H.367V1.837L.276,1.653H.092L0,1.929Z" transform="translate(54.553 83.482)" fill="#fdc500"/>
    <path id="Path_3312" data-name="Path 3312" d="M0,0H.276L.367.276.918.367V.643h.551l.092.184L1.469,1.1H1.01V.918L.844.89A.975.975,0,0,1,.367.551,2.716,2.716,0,0,0,0,.367Z" transform="translate(69.064 108.647)" fill="#fdc500"/>
    <path id="Path_3313" data-name="Path 3313" d="M-20.888-.955a2.742,2.742,0,0,1-.723.356,1.958,1.958,0,0,0-.614.344.909.909,0,0,1-.585.247L-23-.037V-.588l.194.006.253.005.252.006c.236,0,.236,0,.4-.2C-21.23-1.105-21.23-1.105-20.888-.955Z" transform="translate(79.39 109.877)" fill="#fdc500"/>
    <path id="Path_3314" data-name="Path 3314" d="M0,0H.276V1.929L0,1.837Z" transform="translate(35.726 66.768)" fill="#fdc500"/>
    <path id="Path_3315" data-name="Path 3315" d="M0,0H1.01L1.1.459l.276.092V.735A4.312,4.312,0,0,1,.43.453L.185.353,0,.276Z" transform="translate(87.615 128.484)" fill="#fdc500"/>
    <path id="Path_3316" data-name="Path 3316" d="M-.028,0H.155L.247.276.8.367V.735h.367l.092.367q-.321.006-.643,0C.523,1.01.523,1.01.517.775L.523.551.3.557C.063.551.063.551-.028.459Q-.034.23-.028,0Z" transform="translate(39.703 67.594)" fill="#fdc500"/>
    <path id="Path_3317" data-name="Path 3317" d="M0,0H1.1l.184.459Q1.042.467.8.471L.523.477A.743.743,0,0,1,0,.276Z" transform="translate(41.052 115.718)" fill="#fdc500"/>
    <path id="Path_3318" data-name="Path 3318" d="M-1.816,0h.184l-.092,1.745L-2,1.653V.184h.184Z" transform="translate(16.235 68.788)" fill="#fdc500"/>
    <path id="Path_3319" data-name="Path 3319" d="M0,0H.459L.513.2c.123.458.248.912.405,1.36l-.276.092V1.194H.276L.262,1.026.241.8.222.584A1.7,1.7,0,0,0,0,0Z" transform="translate(46.471 68.696)" fill="#fdc500"/>
    <path id="Path_3320" data-name="Path 3320" d="M0,0A1.191,1.191,0,0,1,.85.448L1.04.642a.944.944,0,0,1,.245.46l.276.092-.092.367L.735.832.522.622l-.2-.2L.135.237C0,.092,0,.092,0,0Z" transform="translate(44.45 125.27)" fill="#fdc500"/>
    <path id="Path_3321" data-name="Path 3321" d="M0,0H.276L.459.367H.551l.034.31c.025.336.025.336.241.517a4.942,4.942,0,0,1-.092.735H.643L.557,1.613C.493,1.305.493,1.305.367,1.194Q.362.964.367.735L0,.551Z" transform="translate(79.992 90.646)" fill="#fdc500"/>
    <path id="Path_3322" data-name="Path 3322" d="M-6.357,0h.827l-.092.367L-5.932.4c-.336.025-.336.025-.517.241C-6.632.679-6.815.711-7,.735l.092-.276h.276V.184h.276Z" transform="translate(54.389 89.544)" fill="#fdc500"/>
    <path id="Path_3323" data-name="Path 3323" d="M-2.724,0l.643.092a2.044,2.044,0,0,1,0,.459,1.07,1.07,0,0,1-.827.184L-3,.459l.367-.092Z" transform="translate(37.991 118.29)" fill="#fdc500"/>
    <path id="Path_3324" data-name="Path 3324" d="M-8.173,0h.092V.643l-.459.092-.092.276H-9l.092-.643.316-.08.327-.1Z" transform="translate(48.95 55.196)" fill="#fdc500"/>
    <path id="Path_3325" data-name="Path 3325" d="M-1.816,0H2.041V.092l-.3,0Q1.182.1.624.116L.143.124c-.231,0-.463.008-.694.013l-.215,0A2.685,2.685,0,0,0-2,.459Z" transform="translate(52.145 85.136)" fill="#fdc500"/>
    <path id="Path_3326" data-name="Path 3326" d="M-.029,0,.43.092V1.1l-.367.092A4.417,4.417,0,0,1-.029,0Z" transform="translate(42.918 72.921)" fill="#fdc500"/>
    <path id="Path_3327" data-name="Path 3327" d="M-4.541,0l.027.194.042.253L-4.433.7c.054.234.054.234.263.325l.181.077a1.807,1.807,0,0,1,.092.459l-.367-.092.092-.276-.178-.034L-4.541,1.1A1.4,1.4,0,0,1-4.633.367H-5V.092A.688.688,0,0,1-4.541,0Z" transform="translate(31.358 136.107)" fill="#fdc500"/>
    <path id="Path_3328" data-name="Path 3328" d="M-1.816,0h.184V2.2h-.276L-2,1.929h.184Z" transform="translate(37.818 66.768)" fill="#fdc500"/>
    <path id="Path_3329" data-name="Path 3329" d="M-19.16,0V.276l-.459.092-.092.276a5.167,5.167,0,0,1-.551.184l-.092.092a6,6,0,0,1-.643,0c-.092-.092-.092-.092-.1-.262l.009-.565h.276l-.092.735A3.671,3.671,0,0,0-19.8.276C-19.591.174-19.378.087-19.16,0Z" transform="translate(77.295 109.014)" fill="#fdc500"/>
    <path id="Path_3330" data-name="Path 3330" d="M-5.449,0h.276a.768.768,0,0,1-.092.735L-6,.827l.092-.459.276-.092Z" transform="translate(52.563 141.984)" fill="#fdc500"/>
    <path id="Path_3331" data-name="Path 3331" d="M-11.806-.636h-.276v.367l-.212.063a1.064,1.064,0,0,0-.522.58H-13V-.177l.367-.092V-.544A.9.9,0,0,1-11.806-.636Z" transform="translate(59.655 90.914)" fill="#fdc500"/>
    <path id="Path_3332" data-name="Path 3332" d="M-7.94,0h.092V.643h-.459L-8.4.918h-.276a.792.792,0,0,1,0-.643l.316-.034.327-.057Z" transform="translate(59.186 49.41)" fill="#fdc500"/>
    <path id="Path_3333" data-name="Path 3333" d="M-23.612,0l.184.092a1.454,1.454,0,0,1-.827.459,2.261,2.261,0,0,0-.735.459h-.276l-.092.367L-26,1.469V1.286l.184-.057a3.041,3.041,0,0,0,.643-.4,2.745,2.745,0,0,1,.827-.459q.288-.148.572-.3Z" transform="translate(85.329 106.902)" fill="#fdc500"/>
    <path id="Path_3334" data-name="Path 3334" d="M-9.99,0h.184V.459c-.436.1-.436.1-.643,0l.006.224c-.006.235-.006.235-.1.327q-.23.006-.459,0V.735h.276V.367l.643-.092Z" transform="translate(52.144 54.369)" fill="#fdc500"/>
    <path id="Path_3335" data-name="Path 3335" d="M-8.173,0a2.911,2.911,0,0,1-.092.706l-.052.225-.04.171h-.459v.184H-9l.092-.459h.276L-8.61.568c.069-.293.069-.293.258-.465Z" transform="translate(58.594 138.678)" fill="#fdc500"/>
    <path id="Path_3336" data-name="Path 3336" d="M-8.173,0c.184.184.184.184.2.425L-7.99.643c-.588.283-.588.283-.867.247L-9,.827l.184-.092A1.841,1.841,0,0,0-8.724.367h.459Z" transform="translate(40.501 119.851)" fill="#fdc500"/>
    <path id="Path_3337" data-name="Path 3337" d="M-3.633,0l.459.092-.367.092V.918L-4,1.01A1.479,1.479,0,0,1-3.633,0Z" transform="translate(54.236 138.586)" fill="#fdc500"/>
    <path id="Path_3338" data-name="Path 3338" d="M0,0A2.334,2.334,0,0,1,1.01.643l.276.092L1.194.918.827.827.735,1.01.643.735A1.176,1.176,0,0,0,.276.643V.276L0,.184Z" transform="translate(30.307 141.25)" fill="#fdc500"/>
    <path id="Path_3339" data-name="Path 3339" d="M0,0A5.277,5.277,0,0,1,.93.459L1.166.6c.164.1.326.208.487.316a4,4,0,0,1-.643,0L.827.643.505.563C.184.459.184.459.052.218Z" transform="translate(34.807 138.219)" fill="#fdc500"/>
    <path id="Path_3340" data-name="Path 3340" d="M-5.449,0h.367V.184h-.276V.918h-.367v.367H-6A1.034,1.034,0,0,1-5.633.551,3.861,3.861,0,0,0-5.449,0Z" transform="translate(85.901 122.331)" fill="#fdc500"/>
    <path id="Path_3341" data-name="Path 3341" d="M-1.249,0l.276.092V.276L-.7.367q.047.183.092.367L-.33.918A1.119,1.119,0,0,1-1.145.763.58.58,0,0,1-1.375.3C-1.341.092-1.341.092-1.249,0Z" transform="translate(69.761 108.279)" fill="#fdc500"/>
    <path id="Path_3342" data-name="Path 3342" d="M-5.477,0H-5.2a1.229,1.229,0,0,1,0,.459,1.582,1.582,0,0,1-.459.367h-.367q-.006-.23,0-.459c.092-.092.092-.092.373-.1l.27.006Z" transform="translate(68.479 105.616)" fill="#fdc500"/>
    <path id="Path_3343" data-name="Path 3343" d="M0,0,.643.092V1.01L.367.918V.367L0,.276Z" transform="translate(45.644 67.227)" fill="#fdc500"/>
    <path id="Path_3344" data-name="Path 3344" d="M-9.082,0h.092V.551l-.367.092-.092.367h-.459L-10,.735h.459V.367l.178-.029.189-.063Z" transform="translate(39.848 121.045)" fill="#fdc500"/>
    <path id="Path_3345" data-name="Path 3345" d="M-1,0l.276.092V1.01l-.367.184q0-.2-.006-.39l0-.22A2.34,2.34,0,0,1-1,0Z" transform="translate(27.355 128.484)" fill="#fdc500"/>
    <path id="Path_3346" data-name="Path 3346" d="M-.089,0,.279.184V.918H.095L0,1.194C-.089,1.1-.089,1.1-.1.852l0-.307,0-.307Z" transform="translate(89.724 130.321)" fill="#fdc500"/>
    <path id="Path_3347" data-name="Path 3347" d="M0,0H.735V.551h.551l.092.276.184.184L1.194.918V.643H.643L.551.276H.092Z" transform="translate(66.4 107.636)" fill="#fdc500"/>
    <path id="Path_3348" data-name="Path 3348" d="M-.908,0l.092.184h.184V.551l.367.092V1.01L.01,1.1A3.609,3.609,0,0,1-.449,1.01L-.541.827-.724.758C-.908.643-.908.643-.983.362L-1,.092Z" transform="translate(41.961 68.788)" fill="#fdc500"/>
    <path id="Path_3349" data-name="Path 3349" d="M-7.265,0h.092a1.021,1.021,0,0,1,0,.459,2.408,2.408,0,0,1-.551.551H-8A2.836,2.836,0,0,1-7.535.3l.147-.171Z" transform="translate(53.553 135.831)" fill="#fdc500"/>
    <path id="Path_3350" data-name="Path 3350" d="M-.908,0A.9.9,0,0,1-.294.3a.942.942,0,0,1,.3.614H-.357V.551H-.633A4.288,4.288,0,0,1-1,.092Z" transform="translate(52.522 120.31)" fill="#fdc500"/>
    <path id="Path_3351" data-name="Path 3351" d="M0-.085a3.061,3.061,0,0,1,.459,0C.687.143.673.243.695.558A1.5,1.5,0,0,0,.827,1.2L.551,1.109.459.19,0,.282Z" transform="translate(26.358 135.916)" fill="#fdc500"/>
    <path id="Path_3352" data-name="Path 3352" d="M-.937,0h.184l.092.276A1.176,1.176,0,0,0-.294.367V.827L-1.028.551q-.006-.23,0-.459Z" transform="translate(65.684 106.259)" fill="#fdc500"/>
    <path id="Path_3353" data-name="Path 3353" d="M-3.633,0l.367.092.092.551L-4,.735l.276-.276A2.025,2.025,0,0,0-3.633,0Z" transform="translate(66.91 105.616)" fill="#fdc500"/>
    <path id="Path_3354" data-name="Path 3354" d="M-6.357,0h.092V.643L-7,.735V.367h.459Z" transform="translate(66.696 104.422)" fill="#fdc500"/>
    <path id="Path_3355" data-name="Path 3355" d="M-1.816,0h.367q.006.275,0,.551c-.092.092-.092.092-.327.1L-2,.643V.276h.184Z" transform="translate(48.195 52.073)" fill="#fdc500"/>
    <path id="Path_3356" data-name="Path 3356" d="M-9.99-.124V.06h-.184V.243H-11l.092-.276A1.857,1.857,0,0,1-9.99-.124Z" transform="translate(52.787 144.496)" fill="#fdc500"/>
    <path id="Path_3357" data-name="Path 3357" d="M0,0,.092.276l.224.04C.551.367.551.367.643.459q.006.23,0,.459L.367,1.01.339.832.276.643,0,.551Z" transform="translate(27.552 137.852)" fill="#fdc500"/>
    <path id="Path_3358" data-name="Path 3358" d="M-6.357,0H-5.9V.184h-.367V.551l-.276.092a1.644,1.644,0,0,0-.184.367L-7,.827l.117-.134L-6.73.517l.152-.174A.929.929,0,0,0-6.357,0Z" transform="translate(56.134 139.78)" fill="#fdc500"/>
    <path id="Path_3359" data-name="Path 3359" d="M-1.816,0h.184a1.4,1.4,0,0,1,.092.735L-2,.918Z" transform="translate(28.634 127.014)" fill="#fdc500"/>
    <path id="Path_3360" data-name="Path 3360" d="M0,0H.184V.276L.735.367.643.643H0Z" transform="translate(46.104 119.943)" fill="#fdc500"/>
    <path id="Path_3361" data-name="Path 3361" d="M-11.806,0h.092q.006.275,0,.551c-.092.092-.092.092-.327.1l-.224-.006-.184.367H-13V.918l.459-.092.092-.459h.551Z" transform="translate(54.144 54.461)" fill="#fdc500"/>
    <path id="Path_3362" data-name="Path 3362" d="M0,0,.551.092.735.735H.367L.276.459,0,.367Z" transform="translate(29.113 139.964)" fill="#fdc500"/>
    <path id="Path_3363" data-name="Path 3363" d="M0,0H.184C.367.184.367.184.39.413.367.643.367.643.184.827c-.037.213-.068.428-.092.643H0Z" transform="translate(52.441 130.964)" fill="#fdc500"/>
    <path id="Path_3364" data-name="Path 3364" d="M0,0H.276V.367H.551L.459.735,0,.643Z" transform="translate(44.634 119.116)" fill="#fdc500"/>
    <path id="Path_3365" data-name="Path 3365" d="M-.908,0h.459l.092.459H-1Z" transform="translate(57.39 133.994)" fill="#fdc500"/>
    <path id="Path_3366" data-name="Path 3366" d="M0,0,.092.276H.459L.551.551.827.643V.918a.851.851,0,0,1-.672-.3A.772.772,0,0,1,0,0Z" transform="translate(49.41 122.698)" fill="#fdc500"/>
    <path id="Path_3367" data-name="Path 3367" d="M-5.449,0q.322.04.643.092L-4.9.276h-.367l-.057.178c-.126.189-.126.189-.413.258L-6,.735V.551h.459L-5.547.327C-5.541.092-5.541.092-5.449,0Z" transform="translate(64.594 107.912)" fill="#fdc500"/>
    <path id="Path_3368" data-name="Path 3368" d="M-7.265,0h.092V.551A1.266,1.266,0,0,1-8,.735l.092-.367h.551Z" transform="translate(67.42 107.269)" fill="#fdc500"/>
    <path id="Path_3369" data-name="Path 3369" d="M-7.549-.11l.155.069H-7.67V.326l-.459.092.092.276h-.276a.875.875,0,0,1,.3-.677C-7.761-.133-7.761-.133-7.549-.11Z" transform="translate(56.069 141.566)" fill="#fdc500"/>
    <path id="Path_3370" data-name="Path 3370" d="M-.958,0H-.5L-.682.276C-.718.458-.75.642-.774.827H-1.05C-1.061.207-1.061.207-.958,0Z" transform="translate(90.134 132.525)" fill="#fdc500"/>
    <path id="Path_3371" data-name="Path 3371" d="M-4.541,0h.184l.092.643H-5V.367l.459-.092Z" transform="translate(52.206 51.247)" fill="#fdc500"/>
    <path id="Path_3372" data-name="Path 3372" d="M0,0H.643L.735.367.276.459V.276H0Z" transform="translate(36.552 144.28)" fill="#fdc500"/>
    <path id="Path_3373" data-name="Path 3373" d="M-9.082,0-8.9.092V.367h-.367V.643L-10,.827A8.575,8.575,0,0,1-9.082,0Z" transform="translate(58.032 140.79)" fill="#fdc500"/>
    <path id="Path_3374" data-name="Path 3374" d="M-11.806,0l.184.092a1.35,1.35,0,0,1-.643.459l-.184.276A3.446,3.446,0,0,1-13,.918,5.373,5.373,0,0,1-11.806,0Z" transform="translate(56.165 137.943)" fill="#fdc500"/>
    <path id="Path_3375" data-name="Path 3375" d="M-.908,0h.184l.092.551.276.092V.827a3.061,3.061,0,0,1-.459,0L-1,.643A5.414,5.414,0,0,1-.908,0Z" transform="translate(51.42 123.892)" fill="#fdc500"/>
    <path id="Path_3376" data-name="Path 3376" d="M0,0,.459.092.494.316.551.551.735.643.276.735C0,.31,0,.31,0,0Z" transform="translate(48.216 121.688)" fill="#fdc500"/>
    <path id="Path_3377" data-name="Path 3377" d="M-2.724,0h.276V.643H-3V.367l.184-.092Z" transform="translate(45.614 54.002)" fill="#fdc500"/>
    <path id="Path_3378" data-name="Path 3378" d="M-.908,0h.184V.276h.551A3.468,3.468,0,0,1-.633.735.7.7,0,0,1-1,.643Z" transform="translate(47.93 51.614)" fill="#fdc500"/>
    <path id="Path_3379" data-name="Path 3379" d="M-4.541,0l.276.092-.092.551a2.044,2.044,0,0,1-.459,0L-5,.367h.459Z" transform="translate(49.45 52.808)" fill="#fdc500"/>
    <path id="Path_3380" data-name="Path 3380" d="M-2.724,0l.276.092V.643H-3V.367l.184-.092Z" transform="translate(51.859 50.512)" fill="#fdc500"/>
    <path id="Path_3381" data-name="Path 3381" d="M-.114,0H.346V.551L.07.643C-.114.459-.114.459-.125.218Z" transform="translate(43.186 144.005)" fill="#fdc500"/>
    <path id="Path_3382" data-name="Path 3382" d="M0,0H.643L.735.276.551.459,0,.276Z" transform="translate(87.983 128.484)" fill="#fdc500"/>
    <path id="Path_3383" data-name="Path 3383" d="M0,0H.367V.276H.551L.459.551H0Z" transform="translate(43.808 118.749)" fill="#fdc500"/>
    <path id="Path_3384" data-name="Path 3384" d="M-.927,0h.092A3.126,3.126,0,0,1-.652,1.194L-.744,1.01H-.927l-.092.276A5.826,5.826,0,0,1-.927,0Z" transform="translate(55.572 84.125)" fill="#fdc500"/>
    <path id="Path_3385" data-name="Path 3385" d="M-2.724,0h.276q.006.275,0,.551c-.092.092-.092.092-.327.1L-3,.643c0-.276,0-.276.138-.425l.138-.126Z" transform="translate(58.104 47.022)" fill="#fdc500"/>
    <path id="Path_3386" data-name="Path 3386" d="M-.908,0h.459L-.541.367-.633.184-.816.918H-1Z" transform="translate(53.073 135.28)" fill="#fdc500"/>
    <path id="Path_3387" data-name="Path 3387" d="M0,0A1.807,1.807,0,0,1,.459.092,1.22,1.22,0,0,1,.643.459H0Z" transform="translate(115.902 133.994)" fill="#fdc500"/>
    <path id="Path_3388" data-name="Path 3388" d="M0,0,.184.092.212.27.276.459A1.6,1.6,0,0,0,.735.643L.643.918.184.827A2.278,2.278,0,0,1,0,0Z" transform="translate(51.522 126.004)" fill="#fdc500"/>
    <path id="Path_3389" data-name="Path 3389" d="M-7.265,0h.092V.459A4.87,4.87,0,0,1-8,.735V.367l.264-.029C-7.422.3-7.422.3-7.265,0Z" transform="translate(65.033 108.647)" fill="#fdc500"/>
    <path id="Path_3390" data-name="Path 3390" d="M0,0H.459V.184L.918.092V.276L.654.3C.341.338.341.338.184.643L0,.551Z" transform="translate(61.992 106.259)" fill="#fdc500"/>
    <path id="Path_3391" data-name="Path 3391" d="M0,0H.459L.551.643.184.551.276.276H0Z" transform="translate(45.002 66.125)" fill="#fdc500"/>
    <path id="Path_3392" data-name="Path 3392" d="M-5.449,0h.092V.643L-6,.551l.092-.276q.182-.051.367-.092Z" transform="translate(49.716 53.267)" fill="#fdc500"/>
    <path id="Path_3393" data-name="Path 3393" d="M-2.724,0h.276V.551l-.459.092L-3,.367l.138-.132C-2.714.114-2.714.114-2.724,0Z" transform="translate(61.594 45.093)" fill="#fdc500"/>
    <path id="Path_3394" data-name="Path 3394" d="M0,0C.631.172.631.172.735.276q.006.23,0,.459L.643.459H.092Z" transform="translate(31.317 142.26)" fill="#fdc500"/>
    <path id="Path_3395" data-name="Path 3395" d="M0,0C.184.184.184.184.2.5Q.2.693.2.884l0,.2c0,.16-.005.32-.009.481l.276.092v.184L.092,1.653Z" transform="translate(26.542 133.811)" fill="#fdc500"/>
    <path id="Path_3396" data-name="Path 3396" d="M0,0H.184L.261.157l.1.2.1.2A.542.542,0,0,0,.643.827q.006.275,0,.551A1.9,1.9,0,0,1,.218.585L.094.255Z" transform="translate(46.471 127.657)" fill="#fdc500"/>
    <path id="Path_3397" data-name="Path 3397" d="M0,0,.643.184A.628.628,0,0,1,.649.758l-.1.161L.482.7A.656.656,0,0,0,0,.276Z" transform="translate(50.42 124.535)" fill="#fdc500"/>
    <path id="Path_3398" data-name="Path 3398" d="M-8.06,0l.2.04a5.856,5.856,0,0,1-.827.735L-8.875.683C-8.407.053-8.407.053-8.06,0Z" transform="translate(43.131 124.495)" fill="#fdc500"/>
    <path id="Path_3399" data-name="Path 3399" d="M0,0H.184L.367.276.643.459.459.643A2.709,2.709,0,0,1,0,.551Z" transform="translate(45.369 119.575)" fill="#fdc500"/>
    <path id="Path_3400" data-name="Path 3400" d="M-5.449,0l.367.092-.092.367h-.459V.276L-6,.184c.229-.114.313-.071.551,0Z" transform="translate(75.706 109.289)" fill="#fdc500"/>
    <path id="Path_3401" data-name="Path 3401" d="M0,0,.643.092.735.459A.865.865,0,0,1,.367.551,1.594,1.594,0,0,1,0,.184Z" transform="translate(66.125 107.177)" fill="#fdc500"/>
    <path id="Path_3402" data-name="Path 3402" d="M-3.633,0h.551l-.092.276A1.969,1.969,0,0,1-4,.459l.092-.276h.276Z" transform="translate(51.665 89.544)" fill="#fdc500"/>
    <path id="Path_3403" data-name="Path 3403" d="M0,0H.459V.827H.276V.276H0Z" transform="translate(14.419 70.809)" fill="#fdc500"/>
    <path id="Path_3404" data-name="Path 3404" d="M-1.816,0h.276V.551l-.367.092L-2,.276h.184Z" transform="translate(51.685 50.145)" fill="#fdc500"/>
    <path id="Path_3405" data-name="Path 3405" d="M0,0A5.93,5.93,0,0,1,1.286.367V.459C1.123.454.96.446.8.436L.523.423A.539.539,0,0,1,.105.179Z" transform="translate(36.46 139.137)" fill="#fdc500"/>
    <path id="Path_3406" data-name="Path 3406" d="M0,0,.459.092.643.643H.367L.276.367,0,.276Z" transform="translate(28.379 139.321)" fill="#fdc500"/>
    <path id="Path_3407" data-name="Path 3407" d="M-2.724,0a1.7,1.7,0,0,1,0,.918l.184.092-.092.184h-.276L-3,1.378C-2.929.913-2.829.458-2.724,0Z" transform="translate(54.798 135.28)" fill="#fdc500"/>
    <path id="Path_3408" data-name="Path 3408" d="M-.028,0,.339.092V.276L.614.459C.523.551.523.551.293.563.063.551.063.551-.028.459Q-.034.23-.028,0Z" transform="translate(38.509 66.859)" fill="#fdc500"/>
    <path id="Path_3409" data-name="Path 3409" d="M-6.357,0V.459a1.562,1.562,0,0,1-.367.092L-7,.367V.184C-6.46,0-6.46,0-6.357,0Z" transform="translate(61.185 47.573)" fill="#fdc500"/>
    <path id="Path_3410" data-name="Path 3410" d="M-.057,0,.4.092V.459A3.435,3.435,0,0,1,.035.551C-.057.459-.057.459-.062.224Z" transform="translate(53.875 124.076)" fill="#fdc500"/>
    <path id="Path_3411" data-name="Path 3411" d="M0,0H.735V.276L.092.459Z" transform="translate(31.226 120.678)" fill="#fdc500"/>
    <path id="Path_3412" data-name="Path 3412" d="M-.908,0h.367V.551H-1Z" transform="translate(34.522 119.116)" fill="#fdc500"/>
    <path id="Path_3413" data-name="Path 3413" d="M-3.264,0l.224.006V.281l-.551.276Q-3.6.327-3.591.1C-3.5.006-3.5.006-3.264,0Z" transform="translate(65.032 103.681)" fill="#fdc500"/>
    <path id="Path_3414" data-name="Path 3414" d="M0,0H.459V.827L.276.918.189.614C.13.408.068.2,0,0Z" transform="translate(46.471 68.696)" fill="#fdc500"/>
    <path id="Path_3415" data-name="Path 3415" d="M-4.541,0h.276l.092.276h-.276l-.092.459H-5V.551h.459Z" transform="translate(38.522 119.116)" fill="#fdc500"/>
    <path id="Path_3416" data-name="Path 3416" d="M0,0,.643.092V.367H0Z" transform="translate(42.614 118.657)" fill="#fdc500"/>
    <path id="Path_3417" data-name="Path 3417" d="M-1.816,0h.459l-.184.551H-2l.092-.184h.184Z" transform="translate(37.083 118.29)" fill="#fdc500"/>
    <path id="Path_3418" data-name="Path 3418" d="M0,0H.276V.276H.551L.459.551,0,.459Z" transform="translate(64.012 105.983)" fill="#fdc500"/>
    <path id="Path_3419" data-name="Path 3419" d="M-1.816,0a3.435,3.435,0,0,1,.367.092A.357.357,0,0,1-1.57.425c-.155.126-.155.126-.43.126C-1.92.1-1.92.1-1.816,0Z" transform="translate(46.175 143.546)" fill="#fdc500"/>
    <path id="Path_3420" data-name="Path 3420" d="M-1.018,0q.231.039.459.092L-.926.184V.918A1.037,1.037,0,0,1-1.11.092Z" transform="translate(51.622 138.586)" fill="#fdc500"/>
    <path id="Path_3421" data-name="Path 3421" d="M0,0,.453.218.709.341c.21.118.21.118.3.3A3.492,3.492,0,0,1,.184.367,3.072,3.072,0,0,1,0,0Z" transform="translate(33.797 137.576)" fill="#fdc500"/>
    <path id="Path_3422" data-name="Path 3422" d="M0,0,.459.092.448.3a1.144,1.144,0,0,0,.2.62A.784.784,0,0,1,.115.459.827.827,0,0,1,0,0Z" transform="translate(49.042 122.514)" fill="#fdc500"/>
    <path id="Path_3423" data-name="Path 3423" d="M0,0H.367V.459L0,.551Z" transform="translate(32.787 119.484)" fill="#fdc500"/>
    <path id="Path_3424" data-name="Path 3424" d="M0,0H.827L.735.276,0,.184Z" transform="translate(40.41 118.198)" fill="#fdc500"/>
    <path id="Path_3425" data-name="Path 3425" d="M-9.99,0V.276l-.459.092V.551L-11,.643l.276-.092.075-.178c.109-.189.109-.189.4-.3Z" transform="translate(69.226 108.371)" fill="#fdc500"/>
    <path id="Path_3426" data-name="Path 3426" d="M-2.724,0h.184V.643H-3c0-.276,0-.276.138-.425l.138-.126Z" transform="translate(54.614 48.951)" fill="#fdc500"/>
    <path id="Path_3427" data-name="Path 3427" d="M-.908,0l.551.184L-.449.367A5.013,5.013,0,0,1-1,.459Z" transform="translate(47.563 142.352)" fill="#fdc500"/>
    <path id="Path_3428" data-name="Path 3428" d="M-1.9,0h.276l-.086.161A2.509,2.509,0,0,0-1.9.735h-.184a4.408,4.408,0,0,1,0-.551Z" transform="translate(49.658 141.525)" fill="#fdc500"/>
    <path id="Path_3429" data-name="Path 3429" d="M0,0,.276.092V.827L.092.918Z" transform="translate(26.266 134.637)" fill="#fdc500"/>
    <path id="Path_3430" data-name="Path 3430" d="M-7.265-.064V.211H-8V.028A1.4,1.4,0,0,1-7.265-.064Z" transform="translate(85.972 124.507)" fill="#fdc500"/>
    <path id="Path_3431" data-name="Path 3431" d="M-1.816,0l.367.092.092.459a1.149,1.149,0,0,1-.367.092A1.252,1.252,0,0,1-2,.367l.276-.092.092-.184Z" transform="translate(48.471 120.218)" fill="#fdc500"/>
    <path id="Path_3432" data-name="Path 3432" d="M-2.724,0h.184V.551L-3,.459l.092-.276h.184Z" transform="translate(37.256 118.841)" fill="#fdc500"/>
    <path id="Path_3433" data-name="Path 3433" d="M0,0H.643L.735.276H.092Z" transform="translate(41.236 115.902)" fill="#fdc500"/>
    <path id="Path_3434" data-name="Path 3434" d="M-1.949,0h.367l.092.367L-1.949.276l-.092.643h-.092a4.28,4.28,0,0,1,0-.735Z" transform="translate(56.41 71.911)" fill="#fdc500"/>
    <path id="Path_3435" data-name="Path 3435" d="M0,0,.643.367.551.551H.092Z" transform="translate(92.207 34.256)" fill="#fdc500"/>
    <path id="Path_3436" data-name="Path 3436" d="M-3.633,0l.276.276-.184.367H-4l.092-.276h.276Z" transform="translate(54.512 138.035)" fill="#fdc500"/>
    <path id="Path_3437" data-name="Path 3437" d="M0,0H.367L.459.643H.276V.276H0Z" transform="translate(52.9 121.963)" fill="#fdc500"/>
    <path id="Path_3438" data-name="Path 3438" d="M-5.449,0h.092V.551H-6V.367l.224-.08C-5.529.208-5.529.208-5.449,0Z" transform="translate(46.226 55.196)" fill="#fdc500"/>
    <path id="Path_3439" data-name="Path 3439" d="M-1.816,0h.276V.459l-.276.092L-2,.459V.276h.184Z" transform="translate(55.175 48.216)" fill="#fdc500"/>
    <path id="Path_3440" data-name="Path 3440" d="M0,0C.308.087.615.174.918.276L.827.459.459.367.367.551.276.276,0,.184Z" transform="translate(30.675 141.709)" fill="#fdc500"/>
    <path id="Path_3441" data-name="Path 3441" d="M-.937,0h.092l.092.459h.276L-.569.827V.643L-1.028.551q-.006-.23,0-.459Z" transform="translate(53.102 127.474)" fill="#fdc500"/>
    <path id="Path_3442" data-name="Path 3442" d="M-.114,0H.254L.07.827C-.114.643-.114.643-.125.31Z" transform="translate(50.35 123.708)" fill="#fdc500"/>
    <path id="Path_3443" data-name="Path 3443" d="M-1.816,0h.367V.184h-.276V.551H-2C-1.92.1-1.92.1-1.816,0Z" transform="translate(81.901 123.065)" fill="#fdc500"/>
    <path id="Path_3444" data-name="Path 3444" d="M0,0H.276V.827L0,.735Z" transform="translate(56.206 109.106)" fill="#fdc500"/>
    <path id="Path_3445" data-name="Path 3445" d="M-4.541,0V.459l-.367.092L-5,.276C-4.747,0-4.747,0-4.541,0Z" transform="translate(20.705 66.951)" fill="#fdc500"/>
    <path id="Path_3446" data-name="Path 3446" d="M-2.724,0h.276l-.092.459-.276.092L-3,.367l.184-.092Z" transform="translate(55.349 48.583)" fill="#fdc500"/>
    <path id="Path_3447" data-name="Path 3447" d="M-5.449,0l-.092.459h-.367L-6,.276C-5.656,0-5.656,0-5.449,0Z" transform="translate(68.084 43.257)" fill="#fdc500"/>
    <path id="Path_3448" data-name="Path 3448" d="M-.937,0h.367l.092.276L-.65.31c-.213.046-.213.046-.379.241q-.006-.23,0-.459Z" transform="translate(46.03 143.178)" fill="#fdc500"/>
    <path id="Path_3449" data-name="Path 3449" d="M-4.541,0l.092.276L-5,.551A3.609,3.609,0,0,1-4.908.092.552.552,0,0,1-4.541,0Z" transform="translate(50.736 142.719)" fill="#fdc500"/>
    <path id="Path_3450" data-name="Path 3450" d="M-3.633,0h.092V.735L-4,.827l.08-.155C-3.813.451-3.721.228-3.633,0Z" transform="translate(54.971 137.301)" fill="#fdc500"/>
    <path id="Path_3451" data-name="Path 3451" d="M-2.724,0h.276a3.609,3.609,0,0,1-.092.459l-.184.092L-3,.367l.184-.092Z" transform="translate(31.47 123.433)" fill="#fdc500"/>
    <path id="Path_3452" data-name="Path 3452" d="M-4.541,0l.092.276L-5,.643V.184Z" transform="translate(65.247 107.085)" fill="#fdc500"/>
    <path id="Path_3453" data-name="Path 3453" d="M0,0H.276L.459.643A2.432,2.432,0,0,1,0,.367Z" transform="translate(79.992 90.646)" fill="#fdc500"/>
    <path id="Path_3454" data-name="Path 3454" d="M0,0,.184.092V.276H.459L.367.551H0Z" transform="translate(88.809 32.328)" fill="#fdc500"/>
    <path id="Path_3455" data-name="Path 3455" d="M0,0,.276.092V.459H.092L0,.827Z" transform="translate(52.532 132.617)" fill="#fdc500"/>
    <path id="Path_3456" data-name="Path 3456" d="M-4.541,0h.092V.735l-.367.092L-5,.459l.367.092Z" transform="translate(32.276 125.178)" fill="#fdc500"/>
    <path id="Path_3457" data-name="Path 3457" d="M0,0H.459L.551.643H.367V.184L0,.276Z" transform="translate(78.615 123.984)" fill="#fdc500"/>
    <path id="Path_3458" data-name="Path 3458" d="M-4.541,0h.092V.551H-5l.092-.184h.276Z" transform="translate(36.868 119.851)" fill="#fdc500"/>
    <path id="Path_3459" data-name="Path 3459" d="M-5.449,0l.276.092V.551L-5.357.367A4.5,4.5,0,0,0-6,.367V.276l.224-.034.235-.057Z" transform="translate(49.808 119.024)" fill="#fdc500"/>
    <path id="Path_3460" data-name="Path 3460" d="M0,0,.551.184V.459L.092.367Z" transform="translate(79.258 90.187)" fill="#fdc500"/>
    <path id="Path_3461" data-name="Path 3461" d="M-.937,0q.231.039.459.092Q-.7.324-.937.551h-.092q-.006-.23,0-.459Z" transform="translate(49.061 85.962)" fill="#fdc500"/>
    <path id="Path_3462" data-name="Path 3462" d="M-2.724,0l.184.276a2.394,2.394,0,0,1-.184.459L-2.816.459H-3C-2.828.1-2.828.1-2.724,0Z" transform="translate(17.419 68.329)" fill="#fdc500"/>
    <path id="Path_3463" data-name="Path 3463" d="M-2.724,0h.184V.459L-3,.551V.367l.184-.092Z" transform="translate(48.369 52.441)" fill="#fdc500"/>
    <path id="Path_3464" data-name="Path 3464" d="M-.908,0h.184A3.828,3.828,0,0,1-.449.367H-.633L-.724.643A1.252,1.252,0,0,1-1,.367,1.149,1.149,0,0,1-.908,0Z" transform="translate(54.91 47.757)" fill="#fdc500"/>
    <path id="Path_3465" data-name="Path 3465" d="M-4.541,0l.092.367c-.344.1-.344.1-.551,0V.184Z" transform="translate(62.767 45.644)" fill="#fdc500"/>
    <path id="Path_3466" data-name="Path 3466" d="M-1.816,0a.908.908,0,0,1,.184.735L-2,.827Z" transform="translate(53.522 136.382)" fill="#fdc500"/>
    <path id="Path_3467" data-name="Path 3467" d="M0,0,.643.092.735.459H.551V.276L0,.092Z" transform="translate(42.614 124.076)" fill="#fdc500"/>
    <path id="Path_3468" data-name="Path 3468" d="M-.908,0h.367L-.633.367H-1Z" transform="translate(39.481 115.81)" fill="#fdc500"/>
    <path id="Path_3469" data-name="Path 3469" d="M0,0H.276L.367.459H0Z" transform="translate(67.135 107.636)" fill="#fdc500"/>
    <path id="Path_3470" data-name="Path 3470" d="M0,0H.184L.276.276.459.367V.551L0,.459Z" transform="translate(64.747 106.259)" fill="#fdc500"/>
    <path id="Path_3471" data-name="Path 3471" d="M-1.816,0l.276.184a3.828,3.828,0,0,1-.276.367H-2V.092Z" transform="translate(62.798 104.055)" fill="#fdc500"/>
    <path id="Path_3472" data-name="Path 3472" d="M-.908,0h.367V.276L-1,.459Z" transform="translate(64.186 102.677)" fill="#fdc500"/>
    <path id="Path_3473" data-name="Path 3473" d="M0,0H.459L.551.276H0Z" transform="translate(16.439 72.462)" fill="#fdc500"/>
    <path id="Path_3474" data-name="Path 3474" d="M0,0H.459L.367.367,0,.276Z" transform="translate(37.471 66.768)" fill="#fdc500"/>
    <path id="Path_3475" data-name="Path 3475" d="M-1.816,0l.184.092-.092.184.276.092h-.184V.551L-2,.459Z" transform="translate(45.44 53.543)" fill="#fdc500"/>
    <path id="Path_3476" data-name="Path 3476" d="M-1.816,0h.184V.551L-2,.459V.276h.184Z" transform="translate(48.195 52.073)" fill="#fdc500"/>
    <path id="Path_3477" data-name="Path 3477" d="M-2.724,0h.184V.459L-3,.551V.367h.276Z" transform="translate(51.124 50.879)" fill="#fdc500"/>
    <path id="Path_3478" data-name="Path 3478" d="M0,0,.551.184V.367H.092Z" transform="translate(101.207 39.491)" fill="#fdc500"/>
    <path id="Path_3479" data-name="Path 3479" d="M0,0,.643.276.459.459H.092Z" transform="translate(86.789 31.226)" fill="#fdc500"/>
  </g>
</svg>
