<svg xmlns="http://www.w3.org/2000/svg" width="127.202" height="113.675" viewBox="0 0 127.202 113.675">
  <g id="هههاهمهغمهغمهما" transform="translate(-164 -666)">
    <path id="Path_3483" data-name="Path 3483" d="M-424.963,0h2.618V.218h.982l-.109.327c.181.181.413.148.661.17l.539.048.109,1.091h.546l.109,1.091.436-.109v.655l.545.109V5.346h-.109l-.109-.545a6.691,6.691,0,0,0-.286,2.12l-.013.368q-.015.447-.028.893l-.218-.218-.109.327h-.218V9.818l-.546.109v1.527l-.545.109v1.527l-.545.109v1.527l-.436.109-.109,1.527h-.436L-422.344,18h-.436l-.109,1.636h-.436l-.109,1.636-.327.109a10.739,10.739,0,0,0-.109,1.745l-.436-.218a7.846,7.846,0,0,0-.1,1.35c-.008.446-.045.434-.334.723h-.218V26.51l-.545.109c0,.1,0,.2,0,.3,0,.195,0,.195,0,.393s0,.194,0,.391a.888.888,0,0,1-.12.55h-.436v1.527l-.545.109v1.527l-.545.109v1.527l-.436.109-.109,1.527-.436.109-.109,1.636-.436-.109-.109,1.745-.436-.109-.109,1.855-.109-.218c-.233.085-.233.085-.283.288a9.7,9.7,0,0,0-.106.994l-.028.387-.02.295-.109-.218h-.218v.327h-.218v.545h33.928V42l-.436-.109v-1.2l-.545-.109-.02-.319c-.009-.138-.018-.276-.028-.418s-.018-.273-.027-.414a3.953,3.953,0,0,0-.144-.813h-.327l-.109-1.745h-.436V35.237h-.545V33.6h-.218l-.109-.327-.218.109-.109-1.855h-.436V29.891l-.546-.109V28.255l-.545-.109-.02-.319-.028-.418c-.009-.137-.018-.273-.027-.414a3.049,3.049,0,0,0-.144-.813l-.218-.109-.109.218-.109-1.745-.436-.109V22.91l-.545-.218V21.273h-.218l-.109-.218h-.218l-.109-1.855-.327-.109-.109.218V17.455l-.545-.109V15.818H-405l-.02-.315-.028-.415-.027-.41a6.874,6.874,0,0,0-.144-.933l-.327.109-.109-1.745h-.436l-.109-1.527-.436-.109V8.837a.891.891,0,0,0-.545-.109l-.02-.319c-.009-.138-.018-.276-.028-.418l-.027-.414a3.954,3.954,0,0,0-.144-.813h-.327V1.855h.545V1.309l.436-.109.034-.211.075-.225.327-.109V.218h.218V0h5.891V.218h.982V.764l.436.109-.109.327.327.109v.545l.545-.109v1.2l.546.109V4.582h.436a7.226,7.226,0,0,1,.109,1.636h.436l.109,1.527.436.109.109,1.418.436.109.109,1.527.436.109v1.636h.545v1.636h.545l.109,1.527.436.109v1.527l.545.109v1.527l.545.109v1.527l.545.109v1.527l.545.109V24h.218l.109.218h.218l.109,1.745h.327l.109-.218.016.295.025.387.023.384a1.748,1.748,0,0,0,.263.789h.218l.109,1.745.436-.218c0,.07,0,.14,0,.212a8.843,8.843,0,0,0,.113,1.643h.327l.02.2a11.486,11.486,0,0,0,.2,1.332l.327.109.109,1.527.436.109.109,1.527h.436l.109,1.636h.436l.109,1.636h.436l.109,1.527.327.109.041.266.068.279.218.109v.218a2.889,2.889,0,0,0,.975.131l.4.007.436.005.446.007,1.173.017,1.2.018,2.35.033v.109l-3.382.109c3.112.106,6.221.13,9.335.139l2.109.007,3.527.012h.224l2.26.007,1.137,0h.227l3.743.013,2.5.008,1.55.005.718,0,.98,0h.286a9.28,9.28,0,0,1,1.513.126l.109.327.436.109v1.091h.218v.436h.218l.109-.218v1.309h.327V49.31h-.327v1.527h-.545v.655l-.211.034-.225.075-.109.327-.207.02-.27.028-.268.027a.76.76,0,0,0-.454.144v.327l-.4.02-.516.028-.262.013a2.12,2.12,0,0,0-.9.157v.327l-.387.008-1.419.032-.615.014-.882.02-.279.005a1.945,1.945,0,0,0-.892.138v.327h-.218l-.109,2.618-.436.218-.109,2.182-.327-.109a4.065,4.065,0,0,0-.144.956c0,.1-.009.194-.014.294l-.013.3-.014.309q-.017.377-.034.754h-.436l-.109,2.618-.436.109c0,.13,0,.26,0,.394q0,.256,0,.513c0,.086,0,.171,0,.26s0,.165,0,.25,0,.152,0,.23a1.442,1.442,0,0,1-.122.535h-.327a11.65,11.65,0,0,0-.1,2.075.854.854,0,0,1-.116.543h-.436c0,.071,0,.142.005.215.007.322.011.643.015.965,0,.168,0,.168.008.339,0,.107,0,.214,0,.325s0,.2.005.3a.655.655,0,0,1-.189.456.446.446,0,0,1-.393.129v2.291l-.436-.109-.109,2.618-.546.109v2.509l-.218-.218-.109.327h-.218v2.291l-.436-.109-.109,2.618-.545.109v2.4l-.109-.218-.218.109a2.737,2.737,0,0,0-.144.837l-.014.3-.013.307-.014.311q-.017.38-.033.76h-.436l-.109,2.618-.545.109V93.6h-.327a4.043,4.043,0,0,0-.144.932c-.007.138-.007.138-.014.279l-.013.289c0,.1-.009.194-.014.294q-.017.358-.034.716h-.436l-.109,2.618-.436.218L-369,101.02l-.327.109a2.967,2.967,0,0,0-.144.932l-.014.279-.013.289c0,.1-.009.194-.014.294q-.017.358-.034.716l-.327.109a1.626,1.626,0,0,0-.13.5l-.052.273-.036.211h-.436l-.109,1.091-.436.109v.545l-.436.109-.048.191-.17.682h-.436l-.109,1.091-.873.109v.436l-.655.109v.436l-.873.109.109.436-.764.109v.436h-.764v.545l-.873.109.109.436h-.873v.545l-.873.109-.109.436-1.309.109-.109.327h-1.746v.327h-40.473v-.327h-24.982v-.327l-1.309-.109-.109-.436-.873-.109-.109-.436-.982-.109v-.436l-.655-.109v-.436l-.545-.109v-.436l-.545-.109v-.545H-453c-.009-.068-.018-.135-.027-.2-.061-.252-.061-.252-.307-.369l-.211-.082v-.436h-.436l-.034-.2c-.061-.272-.061-.272-.4-.45v-.218l-.218-.109a4.276,4.276,0,0,1-.109-.545h-.436v-.655l-.436-.109h.218v-.218h-.327v-.764h-.436a2.206,2.206,0,0,1-.109-1.091h-.546v-2.073l-.545-.218-.109-2.4-.327-.109-.109.218V97.2l-.436-.109c-.109-.109-.109-.109-.122-.342,0-.1,0-.2,0-.3s0-.216,0-.327,0-.227,0-.344,0-.228,0-.345q0-.424.005-.848l-.436-.109a4.321,4.321,0,0,1,0-2.073h-.218l-.109-.436-.218.218-.109-2.509h-.436c0-.064-.005-.128-.008-.193q-.019-.435-.04-.87c0-.1-.008-.2-.013-.3s-.009-.194-.014-.294l-.012-.27a3.657,3.657,0,0,0-.131-.686h-.327V84.874l-.545-.109-.109-2.618h-.436V79.965h-.218v-.436h-.218l-.109.327-.109-2.509-.436-.109-.008-.183q-.019-.413-.039-.826c0-.1-.008-.19-.013-.289l-.014-.279c0-.085-.008-.169-.012-.256a2.822,2.822,0,0,0-.132-.676l-.218-.109-.109.218v-2.4l-.545-.109-.109-2.618-.436.109c0-.1,0-.1-.007-.2-.01-.292-.022-.584-.034-.875l-.01-.307c0-.1-.008-.195-.013-.3s-.007-.179-.01-.272c-.022-.269-.022-.269-.253-.565l-.218.109V64.91l-.545-.109-.109-2.618h-.327l-.109.218V60l-.546-.109c0-.07,0-.141,0-.213-.006-.32-.015-.64-.024-.959,0-.111,0-.222,0-.336a1.47,1.47,0,0,0-.514-1.328,4.389,4.389,0,0,1-.027-.955c0-.087,0-.173.006-.262.005-.213.013-.425.021-.638l-.436-.109a15.924,15.924,0,0,1-.109-2.618h-6.327v-.436l-.326-.009-.424-.019-.422-.015-.355-.066a1.248,1.248,0,0,1-.218-.436l-.218-.109a.759.759,0,0,1-.436-.545V50.51h-.327l-.041-.32-.068-.334-.218-.109v-4.8h.327V44.4h.436v-.545l.436-.109V43.31h.218l.109-.545h.436v-.436a2.163,2.163,0,0,1,1.024-.126h.255l.85,0,.607,0,1.312,0,2.081-.008,4.052-.016,5.133-.021,2.061-.008,1.295-.005.592,0c1.438,0,2.868-.057,4.3-.129l-2.182-.109v-.109h12V40.692h.436l.109-1.636h.436c0-.136,0-.136,0-.275,0-.178,0-.178,0-.359,0-.118,0-.235,0-.357a1.528,1.528,0,0,1,.12-.646h.436c0-.1,0-.2,0-.3,0-.195,0-.195,0-.393,0-.129,0-.258,0-.391a.888.888,0,0,1,.12-.55h.436V34.255l.545-.109V32.619h.545V31.091l.545-.109V29.455l.545-.109V27.819l.545-.109V26.182l.545-.109V24.546h.545V22.91h.545V21.273h.545V19.637h.546V18.109l.545-.109V16.473l.545-.109V14.837h.436l.109-1.636h.436l.109-1.636h.436c0-.091,0-.181,0-.275,0-.178,0-.178,0-.359,0-.118,0-.235,0-.357a1.527,1.527,0,0,1,.12-.646h.436l-.008-.3c0-.13,0-.259-.006-.393s-.005-.258-.008-.391c.021-.332.021-.332.24-.55h.327V6.873l.436-.218a2.3,2.3,0,0,0,.082-.723l.019-.393c0-.1.006-.2.009-.3l.545-.109V3.6l.545-.109V1.964l.764-.327V1.309h.764V.764l.655-.218V.218h1.636Zm-9.382,52.583-2.946,8.837a5.855,5.855,0,0,1-1.855,2.618l-.319.276a3.247,3.247,0,0,1-2.627.6l-.343.011a5.174,5.174,0,0,1-3.451-1.4c-.992-1.18-.962-2.765-.836-4.223a23.068,23.068,0,0,1,1.814-6.046.665.665,0,0,0,.088-.455q-6.165-.138-12.327-.109l.061.3.041.206.1.475.285,1.424.621,3.1.386,1.928.081.408q.574,2.871,1.148,5.741l.05.252.051.253.986,4.936.053.265q1.1,5.5,2.205,11l.242,1.2q.375,1.86.756,3.719.142.692.283,1.384l.068.335q.436,2.141.794,4.294c.09.536.184,1.071.279,1.606.07.4.136.8.192,1.2a6.757,6.757,0,0,0,1.843,4.172l.287.3c1.689,1.566,4.088,1.807,6.287,1.8l.747.007c.676.007,1.352.008,2.028.008.657,0,1.313.006,1.97.011q2.26.017,4.519.02,1.745,0,3.49.011l1.008,0h.253q3.518.014,7.037.021h.267l1.341,0h.808q4.194.007,8.388.033,4.72.029,9.44.037l1.007,0h.25q1.991,0,3.981.02t4,.01c.722,0,1.444,0,2.165.009q.992.012,1.984,0,.358,0,.716.006a3.549,3.549,0,0,0,2.892-.831c.348-.362.666-.741.978-1.134l.276-.319c1.819-2.123,2.09-5.263,2.611-7.9.146-.733.3-1.465.451-2.2l.188-.906.047-.228q.167-.809.332-1.618.626-3.069,1.29-6.13l.09-.415q.225-1.039.452-2.079.387-1.782.771-3.564l.325-1.5q1.1-5.1,2.2-10.193l.43-1.99.407-1.886.234-1.085.088-.406.086-.4.247-1.145q.152-.7.305-1.408.115-.527.229-1.055l.087-.394.079-.364.07-.32a2.093,2.093,0,0,0,.049-.717l-3.716-.171-1.726-.079-1.672-.076-.632-.029c-1.492-.07-2.979-.093-4.472-.081.222.979.46,1.949.729,2.916a11.226,11.226,0,0,1,.674,3.175c.011.181.026.361.043.541a4.415,4.415,0,0,1-.608,3.4,9.445,9.445,0,0,1-.73.764l-.169.16a9.9,9.9,0,0,1-1.031.822l-.3.225a3.3,3.3,0,0,1-1.786.3c-.227,0-.452.013-.678.024a2.386,2.386,0,0,1-1.936-.628q-.271-.289-.54-.58c-.133-.1-.267-.192-.4-.284-2.443-2.1-3.345-8.649-3.961-10.843Z" transform="translate(641 666)" fill="#fdc500"/>
    <path id="Path_3484" data-name="Path 3484" d="M-51.673-.2a10.926,10.926,0,0,1,3.709.545V1h.436l.109.545.436.109-.109.545h.327l.218-.218c-.064.824-.167,1.633-.307,2.448l-.058.347c-.133.778-.284,1.55-.445,2.322-.208,1.023-.366,2.056-.526,3.087-.1.658-.211,1.31-.363,1.959-.175.756-.268,1.532-.374,2.3a10.7,10.7,0,0,1-.27,1.375c-.065.267-.11.533-.153.8q-.13.8-.271,1.59l-.04.225-.082.464q-.109.615-.218,1.23l-.043.246c-.31,1.756-.615,3.512-.886,5.275h-.873v.436l-.2.027c-.29.072-.29.072-.45.518l-.982-.109.109.436a18.076,18.076,0,0,1-2.25-.266l-.231-.04c-.547-.1-.547-.1-.792-.348a3.392,3.392,0,0,1-.109-.436l-.436-.109v-.545l-.187-.044-.242-.058-.242-.058c-.2-.058-.2-.058-.311-.167.01-.257.027-.514.048-.77l.034-.427.028-.33L-58,23.257a22.9,22.9,0,0,1,.6-4.445c.063-.31.1-.621.145-.935.086-.627.2-1.242.327-1.861.259-1.253.465-2.514.668-3.777h.218l.109.327a21.442,21.442,0,0,0,.682-2.9q.068-.412.137-.824l.037-.224c.181-1.078.379-2.153.576-3.228l.111-.612q.13-.716.262-1.431.073-.4.145-.793l.088-.479.077-.42a1.492,1.492,0,0,1,.176-.54h.436l.218-.545.545.109V.13l.764.109Z" transform="translate(297.492 736.344)" fill="#fdc500"/>
    <path id="Path_3485" data-name="Path 3485" d="M-36.6-.021V.2l.545.109V.633l.307-.027.348.027q.168.215.327.436a1.371,1.371,0,0,0,.545,0l-.218.109V1.4h.436a9.254,9.254,0,0,1,.436,1.93c.163,1.011.163,1.011.334,2.02l.052.3c.029.224.029.224.16.335l.041.409a8.5,8.5,0,0,0,.211,1.186c.214.892.362,1.794.515,2.7l.105.616.058.341.058.33.052.3c.029.227.029.227.16.339.018.154.03.309.041.464a8.3,8.3,0,0,0,.211,1.248c.166.682.286,1.367.4,2.059.13.775.277,1.533.482,2.293a6.932,6.932,0,0,1,.147,1.009,15.261,15.261,0,0,0,.295,1.565l.115.537q.058.271.117.541c.089.417.166.828.215,1.252.006.36.006.36.157.488.025.2.045.4.061.607l.028.334.02.259-.327.218a3.1,3.1,0,0,0-.218.545H-30.7l.109.545-.2.089c-.264.125-.264.125-.45.457a3.415,3.415,0,0,1-.615.151l-.375.071-.394.071-.388.074a7.575,7.575,0,0,1-1.828.178l-.109-.218H-35.4l-.109-.327-.764-.109V26.27H-36.7L-36.8,26c-.094-.294-.094-.294-.341-.389a3.905,3.905,0,0,1-.323-1.1l-.052-.318-.054-.333c-.132-.794-.28-1.571-.489-2.349a6.7,6.7,0,0,1-.14-.988,7.8,7.8,0,0,0-.176-.871c-.164-.682-.286-1.368-.4-2.059-.112-.666-.226-1.328-.389-1.984-.149-.611-.248-1.226-.341-1.848l-.043-.291a7.249,7.249,0,0,1-.1-1.06h.218c-.208-1.261-.429-2.516-.709-3.764C-40.4,7.5-40.607,6.344-40.8,5.18c-.07-.41-.148-.818-.226-1.226a4.987,4.987,0,0,1-.042-1.03l.327-.109V2.27l.211-.075c.255-.127.255-.127.307-.43l.027-.259.436-.109.109-.545h.327l.109-.436,1-.218.286-.063.278-.06.254-.055A4.29,4.29,0,0,1-36.6-.021Zm-2.836,12.437.109.327Z" transform="translate(246.851 735.732)" fill="#fdc500"/>
    <path id="Path_3486" data-name="Path 3486" d="M-20.491,0h2.727V.218l.545.109V.764h.655l.109.545h.655l-.218.327.218.109v24l-.436.109-.109.436-.327-.109v.545l-.545.109v.218h-3.818v-.218l-.545-.109v-.436l-.764-.109-.109-.327h-.327V25.2L-23,25.091V11.673h.109l0-.354q.013-1.649.029-3.3.008-.848.015-1.7.006-.818.015-1.636,0-.312,0-.625,0-.437.008-.874V2.927a1.438,1.438,0,0,1,.252-.963h.327V1.418l.259-.02.286-.089a1.492,1.492,0,0,0,.218-.545h.545l.109-.545h.327Z" transform="translate(247.328 735.819)" fill="#fdc500"/>
    <path id="Path_3487" data-name="Path 3487" d="M-315.775-.158l.313,0q.276,0,.552-.013c.56-.007.56-.007.833.174.109.183.109.183.109.51h-40.364l-.109-.436c.19-.19.449-.124.708-.124l.4,0h.441l.464,0,1.281,0,1.38,0,2.394-.006,3.469-.009,5.637-.014,5.461-.014h.339l1.349,0,10.65-.027.807,0h.766l1.181,0C-317.071-.144-316.423-.146-315.775-.158Z" transform="translate(572.988 779.167)" fill="#fdc500"/>
    <path id="Path_3488" data-name="Path 3488" d="M-22.273,0h.218c.123.627.123.627,0,.873-.029.154-.053.309-.075.464l-.041.283-.082.584c-.078.542-.173,1.073-.3,1.606a36.168,36.168,0,0,0-.6,3.588l-.039.3-.034.268a1.048,1.048,0,0,1-.146.436c-.025.2-.046.4-.063.6a37.44,37.44,0,0,1-.81,5.075l.327.109.109.545.327.109v.873H-23.8v-.545l-.187-.044-.242-.058L-24.471,15c-.2-.058-.2-.058-.311-.167.01-.257.027-.514.048-.77l.034-.427.028-.33L-25,13.2a22.9,22.9,0,0,1,.6-4.445c.063-.31.1-.621.145-.935.086-.626.2-1.242.327-1.861.259-1.253.465-2.514.668-3.777h.218l.109.327C-22.683,1.677-22.448.849-22.273,0Z" transform="translate(264.492 746.401)" fill="#fdc500"/>
    <path id="Path_3489" data-name="Path 3489" d="M-126.509,0h.218c-.1.532-.1.532-.218.655-.025.2-.045.4-.061.607l-.028.335-.02.259c-1.611.772-3.842.451-5.581.447h-.851l-2,0-2.277,0L-142,2.291V1.964l5.127-.218-2.182-.109V1.527h12V.436h.436Z" transform="translate(326.4 706.255)" fill="#fdc500"/>
    <path id="Path_3490" data-name="Path 3490" d="M-8.04-.017H2.524l6.04,0,5.869,0h2.179L31.667,0l.109.436L31.667.215,16.3.251l-1.812,0h-.364L8.28.27l-6,.014-3.7.009L-3.956.3-5.421.3l-1.34,0h-.486l-.658,0h-.37a2.87,2.87,0,0,0-.749.123l.109-.327A1.723,1.723,0,0,1-8.04-.017Z" transform="translate(227.244 778.914)" fill="#fdc500"/>
    <path id="Path_3491" data-name="Path 3491" d="M-1.782,0l.327.218a2.273,2.273,0,0,1,.043.556l0,.357v.393l0,.413q0,.561,0,1.122c0,.391,0,.782.007,1.172q.007,1.11.01,2.221,0,1.264.013,2.528.015,2.6.024,5.2l.211.092c.3.17.332.351.444.672l.218.218-.109.327v-.218l-.764-.109-.109-.327h-.327v-.655L-2,14.073V.655h.109Z" transform="translate(226.328 746.838)" fill="#fdc500"/>
    <path id="Path_3492" data-name="Path 3492" d="M-188.872-.16a.756.756,0,0,1,.327.327V.494H-212l.109-.327h.323q3.9-.013,7.8-.03l3.773-.015,3.29-.013L-194.963.1l1.641-.007.6,0a14.271,14.271,0,0,0,2.829-.2A3.245,3.245,0,0,1-188.872-.16Z" transform="translate(447.565 779.18)" fill="#fdc500"/>
    <path id="Path_3493" data-name="Path 3493" d="M-1.782,0h.327l.04.363.055.476.026.238a3.951,3.951,0,0,0,.315,1.214A19.315,19.315,0,0,1-.523,5.275l.029.239q.028.23.055.46a4.368,4.368,0,0,0,.185.9c.017.17.03.341.041.511A7.274,7.274,0,0,0,.509,10.8c.036.259.067.517.1.777a4.535,4.535,0,0,0,.45,1.623l.1.355c.156.382.3.445.668.627q.328.217.655.436l-.109.545-.218-.327a4.065,4.065,0,0,0-.764-.109V14.4H.946l-.1-.266c-.094-.294-.094-.294-.341-.389a3.905,3.905,0,0,1-.323-1.1l-.052-.318L.08,11.993C-.052,11.2-.2,10.422-.409,9.645a6.7,6.7,0,0,1-.14-.988,7.8,7.8,0,0,0-.176-.871c-.164-.682-.286-1.368-.4-2.059-.112-.666-.226-1.328-.389-1.984-.149-.611-.248-1.226-.341-1.848L-1.9,1.6A7.248,7.248,0,0,1-2,.545h.218Zm0,.545.109.327Z" transform="translate(209.201 747.602)" fill="#fdc500"/>
    <path id="Path_3494" data-name="Path 3494" d="M0,0A7.185,7.185,0,0,1,1.313.349a9.453,9.453,0,0,0,3.7.484l.722,0q.987,0,1.974,0,.957,0,1.914,0,1.956,0,3.911,0,1.935,0,3.87,0h.243l1.224,0q4.33.006,8.661.006,4.206,0,8.411,0h.262l2.606,0,5.308.005h.247q8.142.008,16.284.008V.982Q52.191.99,43.727,1h-.253L38.033,1H35.1l-8.613.007q-4.424,0-8.848.006h-1.5l-3.962,0q-1.99,0-3.979,0-1.079,0-2.158,0-.986,0-1.973,0H3.352q-.484,0-.968,0l-.285,0c-.64-.005-.64-.005-.856-.206L1.091.655A1.421,1.421,0,0,0,.634.58L.218.545Z" transform="translate(195.746 768.002)" fill="#fdc500"/>
    <path id="Path_3495" data-name="Path 3495" d="M-18.064,0h.218c.123.627.123.627,0,.873-.029.154-.053.309-.075.464l-.041.283-.082.584c-.078.542-.173,1.073-.3,1.606a36.169,36.169,0,0,0-.6,3.588l-.039.3-.034.268a1.048,1.048,0,0,1-.146.436c-.025.2-.046.4-.063.6a37.441,37.441,0,0,1-.81,5.075l.327.109.109.545.327.109v.873h-.327v-.655l-.218-.109q-.114-.271-.218-.545l-.218-.327a10.132,10.132,0,0,1,.218-2.946h.218l-.007-.19A11.565,11.565,0,0,1-19.6,8.666q.06-.351.119-.7l.057-.337c.044-.284.079-.567.109-.854a6.556,6.556,0,0,1,.2-1.065,15.229,15.229,0,0,0,.572-3.431A3.87,3.87,0,0,1-18.282.982q.066-.265.123-.532L-18.1.192Z" transform="translate(260.283 746.401)" fill="#fdc500"/>
    <path id="Path_3496" data-name="Path 3496" d="M-.278,0H-.06V.218L.158.327V.545a2.89,2.89,0,0,0,.975.131l.4.007.436.006L2.419.7,3.593.713,4.79.73,7.14.764V.873L3.758.982l8.4.218c-.263.263-.324.246-.684.249l-.3,0h-.326l-.342,0q-.563,0-1.125.006l-.78,0-1.638,0q-1.05,0-2.1.013-.806.006-1.612.006-.387,0-.774.005c-.361,0-.722,0-1.083,0L1.073,1.5c-.7-.009-.7-.009-1-.22A1.323,1.323,0,0,1-.312.341Z" transform="translate(255.916 707.019)" fill="#fdc500"/>
    <path id="Path_3497" data-name="Path 3497" d="M-36.527-.021V.2l.545.109V.633l.307-.027.348.027q.168.215.327.436a1.371,1.371,0,0,0,.545,0l-.218.109V1.4h.436l.109.545a5.236,5.236,0,0,1-.655,0L-35,1.724q-.271-.113-.545-.218l-.109-.109c-.165-.025-.331-.045-.5-.061l-.273-.028-.211-.02-.109-.436q-.423.069-.845.143l-.241.039a1.763,1.763,0,0,0-1.1.472l-.109.327-.341.068c-.518.12-.72.491-1,.914A.755.755,0,0,1-41,3.142l.109-.327h.218V2.27l.211-.075c.255-.127.255-.127.307-.43l.027-.259.436-.109.109-.545h.327l.109-.436,1-.218.286-.063.278-.06.254-.055A4.29,4.29,0,0,1-36.527-.021Z" transform="translate(246.783 735.732)" fill="#fdc500"/>
    <path id="Path_3498" data-name="Path 3498" d="M-321.617,0a1.844,1.844,0,0,1-1.091.247l-.409,0h-.45l-.478,0-1.314,0-1.417,0-2.455.005-3.55.007L-338.54.28l-5.595.011h-.348l-1.729,0q-7.176.017-14.352.03V.654h-.327A4.05,4.05,0,0,1-361,.217c.19-.19.451-.124.71-.124l.4,0h.442l.466,0,1.286,0,1.385,0,2.4-.006,3.478-.009,5.648-.014L-339.31.04h.34l1.69,0,10.336-.026.812,0,1.258,0,.665,0Q-322.913,0-321.617,0Z" transform="translate(579.546 779.021)" fill="#fdc500"/>
    <path id="Path_3499" data-name="Path 3499" d="M-.891,0h.545A1.968,1.968,0,0,1-.127,1.309H.418A2.772,2.772,0,0,1,.584,2.451l.052.276.327.218a4.423,4.423,0,0,1,.1.682A2.023,2.023,0,0,0,1.414,4.7a2.151,2.151,0,0,1,.2,1.514c-.109.109-.109.109-.443.116l-.32-.007L.745,5.891h.327V5.564L.636,5.455v-1.2L.091,4.146l-.02-.319L.043,3.409.016,2.995a3.956,3.956,0,0,0-.144-.813H-.455L-.564.436H-1Z" transform="translate(243.438 702.437)" fill="#fdc500"/>
    <path id="Path_3500" data-name="Path 3500" d="M-16.927,0H-14.2V.218l.545.109V.764H-13l.109.545h.655l-.218.327.218.109v.436a1.013,1.013,0,0,1-.839-.191,1.054,1.054,0,0,1-.355-.477c-.176-.311-.441-.32-.77-.423l-.218-.327A1.6,1.6,0,0,0-14.957.72h-.323l-.338,0-.338,0h-.62l-.242.042-.218.327a4.756,4.756,0,0,1-.764,0l-.075.177a4.206,4.206,0,0,1-.689.914H-19V1.964h.327V1.418l.259-.02.286-.089a1.492,1.492,0,0,0,.218-.545h.545l.109-.545h.327Z" transform="translate(243.765 735.819)" fill="#fdc500"/>
    <path id="Path_3501" data-name="Path 3501" d="M-.891,0H37.292V.109h-.242l-14.2.036-1.7,0H20.8L15.3.164,9.662.179,6.18.187,3.795.193,2.417.2,1.157.2H.7L.081.2H-.267A2.892,2.892,0,0,0-1,.327Z" transform="translate(219.219 779.02)" fill="#fdc500"/>
    <path id="Path_3502" data-name="Path 3502" d="M0,0H.436V14.291H.873l.109.655h.436v.873H1.091l.02-.252c-.025-.352-.1-.387-.348-.621v-.436l-.211-.048C.327,14.4.327,14.4.218,14.291.207,14.111.2,13.931.2,13.75l0-.355V13l0-.411q0-.444,0-.887,0-.7-.008-1.4Q.172,8.812.164,7.323.155,5.717.144,4.11q0-.7-.008-1.395,0-.536-.007-1.071V1.253L.126.9l0-.311A1.151,1.151,0,0,0,0,0Z" transform="translate(224.656 746.729)" fill="#fdc500"/>
    <path id="Path_3503" data-name="Path 3503" d="M-16.036-.2a10.926,10.926,0,0,1,3.709.545V1h.436l.109.545.436.109-.109.545h.327l.218-.218V2.53c-.784-.106-.784-.106-1.029-.415q-.13-.233-.255-.468a1.5,1.5,0,0,0-.788-.534l-.109-.327a7.856,7.856,0,0,0-.839-.239l-.234-.059A4,4,0,0,0-15.491.348l-.327.218-.361.1a2.671,2.671,0,0,0-1.166.668q-.327.007-.655,0V1.112h.436l.218-.545.545.109V.13l.764.109Z" transform="translate(261.856 736.344)" fill="#fdc500"/>
    <path id="Path_3504" data-name="Path 3504" d="M-.031,0A1.8,1.8,0,0,1,.35,1.159,15.616,15.616,0,0,0,.676,2.822c.089.37.151.744.217,1.118.057.312.121.622.187.933a39.306,39.306,0,0,1,.645,4l.035.33.029.292c.012.219.012.219.143.329.072.38.136.761.2,1.143a8.442,8.442,0,0,0,.348,1.366q.068.346.123.7l.055.35.04.263.21.037.227.072a2.53,2.53,0,0,1,.218.545,1.929,1.929,0,0,1-1-.773c-.081-.25-.145-.5-.2-.754L2.028,12.4a7.243,7.243,0,0,1-.167-1.328c-.022-.3-.022-.3-.256-.595A3.483,3.483,0,0,1,1.516,10l-.041-.276-.04-.287q-.041-.281-.082-.563l-.036-.252a1.949,1.949,0,0,0-.148-.55c-.019-.177-.035-.354-.048-.532a21.838,21.838,0,0,0-.4-2.652,8.326,8.326,0,0,1-.15-1.05,3.994,3.994,0,0,0-.5-2.093A8.368,8.368,0,0,1-.031,0Z" transform="translate(207.778 747.602)" fill="#fdc500"/>
    <path id="Path_3505" data-name="Path 3505" d="M-1.016,0h.109L-.8.545l.327.109L-.486.874-.5,1.166l-.015.288a1.145,1.145,0,0,0,.479.837,4.945,4.945,0,0,0,1.141.062h.352c.384,0,.767,0,1.151-.009l.8,0q1.05,0,2.1-.013Q6.58,2.32,7.651,2.318q2.1-.009,4.206-.027l-.218.327a1.735,1.735,0,0,1-.484.042l-.308,0-.339,0-.356,0c-.39,0-.781,0-1.171,0H8.169q-.96,0-1.921,0-.766,0-1.532,0-1.055,0-2.11,0H1.8q-.563,0-1.125,0l-.339,0-.309,0H-.242A.735.735,0,0,1-.8,2.291a4.431,4.431,0,0,1-.061-.716,1.054,1.054,0,0,0-.266-.92,2.431,2.431,0,0,1,0-.545Z" transform="translate(256.218 706.037)" fill="#fdc500"/>
    <path id="Path_3506" data-name="Path 3506" d="M-16.449-.024V.522h-.218l-.218.109V2.158l-.545.109,0,.3,0,.393,0,.391a.888.888,0,0,1-.12.55h-.436v.982a1.739,1.739,0,0,1-.436-.327,1.972,1.972,0,0,1-.048-.607V3.63l.047-.272.327-.218a2.624,2.624,0,0,0,.068-.655c.032-.637.032-.637.15-.873l.327-.109.109-1.418A2.619,2.619,0,0,1-16.449-.024Z" transform="translate(232.923 690.352)" fill="#fdc500"/>
    <path id="Path_3507" data-name="Path 3507" d="M-89.982,0h.218c-.1.532-.1.532-.218.655-.025.2-.045.4-.061.607l-.028.335-.02.259c-1.359.651-3.122.452-4.6.447h-.55l-1.429,0-1.466,0L-101,2.291V2.182l.235,0,2.218-.034,1.14-.017c1.677-.024,3.351-.055,5.026-.164l.218-.436h1.636V.436h.436Z" transform="translate(289.873 706.255)" fill="#fdc500"/>
    <path id="Path_3508" data-name="Path 3508" d="M-17.275,0V.545l-.218-.218L-17.6.655h-.218V2.182l-.545.109V3.818l-.545.109v.764l-.436-.109c-.012-.193-.02-.386-.027-.58l-.015-.326c.043-.294.043-.294.259-.463l.22-.159a1.507,1.507,0,0,0,.055-.545,2,2,0,0,1,.055-.545c.344-.327.344-.327.655-.327V.109A5.989,5.989,0,0,1-17.275,0Z" transform="translate(239.204 673.637)" fill="#fdc500"/>
    <path id="Path_3509" data-name="Path 3509" d="M0,0,.109.218.327.327V.545A2.89,2.89,0,0,0,1.3.677l.4.007.436.006L2.588.7,3.762.713,4.96.73l2.35.033V.873L3.927.982l3.709.109v.218H.545L.327.873H.109Z" transform="translate(255.747 707.019)" fill="#fdc500"/>
    <path id="Path_3510" data-name="Path 3510" d="M-7.373,0h.109a22.719,22.719,0,0,1-.764,5.673l.327.109.109.545.327.109v.873h-.327V6.655l-.218-.109Q-7.923,6.275-8.027,6l-.218-.327a10.132,10.132,0,0,1,.218-2.946h.218l-.008-.2A7.592,7.592,0,0,1-7.591.545h.218Z" transform="translate(248.283 754.802)" fill="#fdc500"/>
    <path id="Path_3511" data-name="Path 3511" d="M-40.982-.057a4.084,4.084,0,0,1,.109.436c-.109.109-.109.109-.309.122h-.561l-.324,0h-.33l-1.047,0h-.708l-1.74-.005L-46,.052C-44.328-.083-42.658-.068-40.982-.057Z" transform="translate(236.073 707.839)" fill="#fdc500"/>
    <path id="Path_3512" data-name="Path 3512" d="M-48.944-1.669c.116.184.116.184.116.511h-6.109l.109-.327.31-.007,1.156-.028.5-.011a15.645,15.645,0,0,0,2.682-.233C-49.319-1.923-49.319-1.923-48.944-1.669Z" transform="translate(307.848 780.832)" fill="#fdc500"/>
    <path id="Path_3513" data-name="Path 3513" d="M-.1,0,.117.109A5.32,5.32,0,0,1,.272.755l.086.419.091.457L.543,2.1q.1.489.2.979Q.864,3.7.992,4.33q.1.482.194.963l.093.462q.065.323.129.647l.074.372a3.109,3.109,0,0,1,.052.753l-.327-.109A3.12,3.12,0,0,1,.976,5.959l.006-.412L.99,5.236H.772L.663,4.8H.444V2.4L.008,2.291C-.1,2.182-.1,2.182-.114,1.969l0-.275V1.4l0-.313V.77Q-.1.385-.1,0Z" transform="translate(183.847 718.692)" fill="#fdc500"/>
    <path id="Path_3514" data-name="Path 3514" d="M-15.145,0l.218.327a1.44,1.44,0,0,0,.511.024l.307-.006.321-.011q.313-.01.627-.017l.281-.01c.244.02.244.02.571.238l.375.1a1.459,1.459,0,0,1,.825.559c-.423-.1-.423-.1-.545-.218-.165-.025-.331-.045-.5-.061l-.273-.028-.211-.02-.109-.436q-.423.069-.845.143l-.241.039a1.763,1.763,0,0,0-1.1.472l-.109.327-.341.068c-.518.12-.72.491-1,.914A.755.755,0,0,1-17,2.727l.109-.327h.218V1.855l.211-.075c.255-.127.255-.127.307-.43l.027-.259.436-.109.109-.545h.327Z" transform="translate(222.783 736.147)" fill="#fdc500"/>
    <path id="Path_3515" data-name="Path 3515" d="M0,0A1.858,1.858,0,0,1,.436.109L.545.436,1.2.545l.109.436.2-.012L1.78.961,2.044.95c.3.039.369.141.574.359a4.283,4.283,0,0,0,.764.109v.218l.327.109.109.545H3.164V1.964L1.855,1.855l-.109-.436L.873,1.309.764.873,0,.764Z" transform="translate(190.51 777.057)" fill="#fdc500"/>
    <path id="Path_3516" data-name="Path 3516" d="M-.089,0H.02Q.3,1.375.581,2.751q.129.639.26,1.277.126.616.25,1.233.048.235.1.47.068.329.133.659l.077.379a1.419,1.419,0,0,1-.068.758V7.309H1A3.513,3.513,0,0,1,.846,5.853,1.649,1.649,0,0,0,.457,4.691c-.032-.31-.051-.6-.055-.914a2.225,2.225,0,0,0-.491-1.7C-.1,1.918-.1,1.763-.1,1.609V1.326l0-.3v-.3Q-.092.366-.089,0Z" transform="translate(185.471 726.328)" fill="#fdc500"/>
    <path id="Path_3517" data-name="Path 3517" d="M-13.364,0h.873A1.755,1.755,0,0,1-12.6.545a2.889,2.889,0,0,1-.545.327l-.109.109q-.273.007-.545,0l-.045.19c-.062.239-.133.47-.214.7l-.078.23c-.1.186-.1.186-.427.3l-.109,1.418H-15V1.855h.545V1.309l.436-.109.034-.211.075-.225.327-.109V.218h.218Z" transform="translate(248.274 666)" fill="#fdc500"/>
    <path id="Path_3518" data-name="Path 3518" d="M-42.764,0l.218.327-.982.109V.655H-48V.327l.194-.008,1.991-.08.744-.03L-44,.167l.338-.013.311-.013L-43.08.13C-42.872.131-42.872.131-42.764,0Z" transform="translate(232.4 707.892)" fill="#fdc500"/>
    <path id="Path_3519" data-name="Path 3519" d="M0,0Q.383.042.764.109L.873.327q.381.166.764.327l.218.218a6.36,6.36,0,0,0,.668.05l.2.059.092.219.126.218a2.361,2.361,0,0,0,.709.061,4.5,4.5,0,0,1,.709.048,1.271,1.271,0,0,1,.218.982H4.036l-.1-.266c-.094-.294-.094-.294-.341-.389V1.636l-.361.02c-.4-.02-.4-.02-.559-.181A.856.856,0,0,0,2,1.234l-.267-.022-.2-.012L1.418.764,1.1.73C.764.655.764.655.545.327L.218.218V.982L0,.873Z" transform="translate(190.291 776.838)" fill="#fdc500"/>
    <path id="Path_3520" data-name="Path 3520" d="M-9.194,0l.314.014V.45h-.436V1.977l-.436.109-.109.873-.436-.218c-.006-.157-.01-.314-.014-.47l-.008-.265c.021-.247.021-.247.239-.574h.327l-.008-.255L-9.767.845l-.008-.33C-9.742.079-9.623.017-9.194,0Z" transform="translate(229.064 678.75)" fill="#fdc500"/>
    <path id="Path_3521" data-name="Path 3521" d="M-.224,0h.109V1.2l.436.109.109.109c.151.01.3.013.454.013h.968l1.13,0h.782l2.065,0,2.1,0,3.951-.005h.55c-.267.267-.336.246-.7.247l-.308,0h-.339l-.356,0q-.586,0-1.171,0H7.04q-.875,0-1.751,0-1.055,0-2.11,0l-.806,0q-.563,0-1.125,0l-.339,0-.309,0H.332a.734.734,0,0,1-.556-.368A3.411,3.411,0,0,1-.245.634L-.236.275Z" transform="translate(255.644 707.019)" fill="#fdc500"/>
    <path id="Path_3522" data-name="Path 3522" d="M-1.016,0c.2.01.405.027.607.048l.335.034L.184.109.293.436A1.4,1.4,0,0,0,.729.545v.873H.075L-.034.982-.457.941C-.88.9-.88.9-1.125.655a2.431,2.431,0,0,1,0-.545Z" transform="translate(289.6 708.219)" fill="#fdc500"/>
    <path id="Path_3523" data-name="Path 3523" d="M-11.046-.817V-.38h-.436l0,.3,0,.393,0,.391a.888.888,0,0,1-.12.55h-.436v.982l-.327-.218a2.454,2.454,0,0,1-.041-.6l0-.324.043-.276L-12.028.6a2.3,2.3,0,0,0,.061-.6c.025-.577.025-.577.266-.818C-11.312-.95-11.312-.95-11.046-.817Z" transform="translate(226.974 692.999)" fill="#fdc500"/>
    <path id="Path_3524" data-name="Path 3524" d="M-.031,0A1.8,1.8,0,0,1,.35,1.159,15.646,15.646,0,0,0,.676,2.822c.088.366.15.737.215,1.107.063.342.132.683.2,1.024l.074.355q.076.362.153.724l.073.352.067.316a1.429,1.429,0,0,1-.075.717,14.236,14.236,0,0,1-.839-3.87,3.6,3.6,0,0,0-.47-1.8A8.368,8.368,0,0,1-.031,0Z" transform="translate(207.778 747.602)" fill="#fdc500"/>
    <path id="Path_3525" data-name="Path 3525" d="M0,0H6.982V.327C5.426.344,3.879.293,2.325.218L1.644.187,0,.109Z" transform="translate(264.256 718.692)" fill="#fdc500"/>
    <path id="Path_3526" data-name="Path 3526" d="M-2.7,0h.218l.109.327L-2.153,0a6.412,6.412,0,0,1-.218,2.182h-.218l-.218.545-.218-.109A7.743,7.743,0,0,1-2.862.88l.047-.258Q-2.757.311-2.7,0Z" transform="translate(243.936 748.583)" fill="#fdc500"/>
    <path id="Path_3527" data-name="Path 3527" d="M-.891,0h.545A1.863,1.863,0,0,1-.073.893l.055.416L.2,1.418a2.619,2.619,0,0,1,.116.955l0,.264,0,.2-.218.109-.218-.764H-.455L-.564.436H-1Z" transform="translate(243.438 702.437)" fill="#fdc500"/>
    <path id="Path_3528" data-name="Path 3528" d="M-18.709-.447a6.334,6.334,0,0,1,1.193-.048L-17.18-.5h.617c.334.072.4.215.581.491A1.7,1.7,0,0,0-15.436.1V.208a3.568,3.568,0,0,1-.764,0l-.123-.218c-.181-.237-.181-.237-.424-.254-.28-.007-.557,0-.837.009l-.3.006q-.361.008-.721.021l-.109.436h-.764l-.089.211c-.13.225-.13.225-.457.334a2.625,2.625,0,0,0-.218.545H-21l.109-.327h.232c.369-.128.417-.228.627-.545C-19.74,0-19.74,0-19.282-.1l.355-.02Z" transform="translate(245.656 736.921)" fill="#fdc500"/>
    <path id="Path_3529" data-name="Path 3529" d="M0,0,.764.218.8.517l.052.39.05.387c.047.34.047.34.25.513.157.157.157.157.189.451l-.012.326-.009.329-.012.251H1.091V2.291H.545V.655H.327L.218.327,0,.436Z" transform="translate(241.347 698.946)" fill="#fdc500"/>
    <path id="Path_3530" data-name="Path 3530" d="M-20.491-.013-20.6.205-20.818.1l-.109.545-.614.109-.345.061a6.186,6.186,0,0,1-1,.048L-23,.424A7.826,7.826,0,0,1-20.491-.013Z" transform="translate(230.746 735.723)" fill="#fdc500"/>
    <path id="Path_3531" data-name="Path 3531" d="M0,0H.327l.04.363L.423.839l.026.238A3.951,3.951,0,0,0,.764,2.291a19.206,19.206,0,0,1,.545,3.6,1.714,1.714,0,0,1-.4-1.04L.861,4.6q-.077-.4-.152-.791L.557,3.031l-.1-.5C.378,2.108.293,1.69.2,1.272A11.392,11.392,0,0,1,0,0Z" transform="translate(207.419 747.602)" fill="#fdc500"/>
    <path id="Path_3532" data-name="Path 3532" d="M0,0H2.727l.109.436c-.109.109-.109.109-.342.121l-.3,0H1.865l-.344,0H1.175L.327.545V.436L1.091.327,0,.109Z" transform="translate(192.364 707.783)" fill="#fdc500"/>
    <path id="Path_3533" data-name="Path 3533" d="M-5.345,0h.764V.436h-.436l-.109,1.091h-.764l.109-.436L-6,.982l.2-.245A3.4,3.4,0,0,0-5.345,0Z" transform="translate(273.856 773.02)" fill="#fdc500"/>
    <path id="Path_3534" data-name="Path 3534" d="M-4.8,0h.109l.016.2.025.267.023.265c.034.276.034.276.263.574a3.63,3.63,0,0,1,0,.545l-.545.109v.764l-.436-.109c-.012-.193-.02-.386-.027-.58l-.015-.326c.043-.294.043-.294.257-.462l.222-.16A1.522,1.522,0,0,0-4.83.525l.019-.3Z" transform="translate(225.204 675.6)" fill="#fdc500"/>
    <path id="Path_3535" data-name="Path 3535" d="M0,0H.545L.627.314c.1.344.1.344.334.47L1.2.873a3.393,3.393,0,0,1,.545.327v.327l.545.218v.327l.545.109.109.764-.327-.109V2.509L2.073,2.4V1.964l-.545-.109V1.309H.982L.955,1.1C.893.853.893.853.648.736L.436.655V.218H0Z" transform="translate(187.019 774.329)" fill="#fdc500"/>
    <path id="Path_3536" data-name="Path 3536" d="M-5.345-.7c.239.239.151.78.166,1.1a.847.847,0,0,0,.379.642,3.491,3.491,0,0,1,0,.655h-.218V1.368l-.436-.109V.059L-6-.05V-.7A.669.669,0,0,1-5.345-.7Z" transform="translate(249.529 706.633)" fill="#fdc500"/>
    <path id="Path_3537" data-name="Path 3537" d="M-.891-.125a3.5,3.5,0,0,1,.655,0,2.557,2.557,0,0,1,.279,1.5.827.827,0,0,0,.375.682,2.666,2.666,0,0,1,.048.532,1.547,1.547,0,0,0,.5,1.1.977.977,0,0,1-.109.436L.745,3.8H.091V3.366H.309C.3,3.172.288,2.979.275,2.786L.256,2.46c-.027-.3-.027-.3-.216-.451a1.337,1.337,0,0,1-.3-.9L-.309.719-.345.42-1,.2Z" transform="translate(242.347 698.744)" fill="#fdc500"/>
    <path id="Path_3538" data-name="Path 3538" d="M-11.582,0h.218c-.1.532-.1.532-.218.655-.025.2-.045.4-.061.607l-.028.335-.02.259L-12.1,1.9a5.646,5.646,0,0,0-.9.17l.218-.545h.655V.436h.436Z" transform="translate(211.473 706.255)" fill="#fdc500"/>
    <path id="Path_3539" data-name="Path 3539" d="M-.891,0l.436.218V.764h.436l.109.545.436.109-.109.545H.745l.218-.218v.545C.149,2.144.149,2.144-.12,1.814A1.525,1.525,0,0,1-.27,1.3C-.336,1.049-.336,1.049-.68.9L-1,.764Z" transform="translate(249.983 736.583)" fill="#fdc500"/>
    <path id="Path_3540" data-name="Path 3540" d="M-1.865,0l.218.109V.545h.655l.109.545h.655l-.218.327.218.109v.436H-.665A2.442,2.442,0,0,1-1.32.982,4.437,4.437,0,0,0-2.084.764a3.637,3.637,0,0,1,0-.545Z" transform="translate(231.757 736.038)" fill="#fdc500"/>
    <path id="Path_3541" data-name="Path 3541" d="M-11.582,0h.327l.109.764-.259.02-.286.089c-.079.179-.15.362-.218.545-.506.716-.506.716-.894.84l-.2.032.109-.327h.218V1.418l.211-.075c.255-.127.255-.127.307-.43l.027-.259.436-.109Z" transform="translate(218.783 736.583)" fill="#fdc500"/>
    <path id="Path_3542" data-name="Path 3542" d="M-13.364-.117a.756.756,0,0,1,.327.327V.538H-15V.21h.436V-.008A3.045,3.045,0,0,1-13.364-.117Z" transform="translate(272.056 779.137)" fill="#fdc500"/>
    <path id="Path_3543" data-name="Path 3543" d="M-.891,0-.8.2A2.862,2.862,0,0,0-.386.77,2.105,2.105,0,0,1-.127,2.4c-.109.109-.109.109-.443.116l-.32-.007L-1,2.073h.545a1.825,1.825,0,0,0-.436-.982A3.48,3.48,0,0,1-.9.532L-.9.231Z" transform="translate(245.183 706.255)" fill="#fdc500"/>
    <path id="Path_3544" data-name="Path 3544" d="M0,0H2.4L2.182.436H0Z" transform="translate(227.165 735.819)" fill="#fdc500"/>
    <path id="Path_3545" data-name="Path 3545" d="M-17.818,0h.109V1.091l-.436.109a1.336,1.336,0,0,0-.225.43,1.094,1.094,0,0,1-.539.661l-.051.21a.965.965,0,0,1-.447.581l-.212.172-.163.128L-20,3.273l.141-.147a10.342,10.342,0,0,0,1.373-1.981l.374-.651.164-.288Z" transform="translate(279.456 764.62)" fill="#fdc500"/>
    <path id="Path_3546" data-name="Path 3546" d="M-.224,0h.109l.053.629a.75.75,0,0,0,.209.478,4.434,4.434,0,0,1,.42,1.41l.061.3c.156.8.156.8.02,1.224V3.818H.321A3.513,3.513,0,0,1,.165,2.362,1.585,1.585,0,0,0-.224,1.2,2.991,2.991,0,0,1-.245.573L-.236.247Z" transform="translate(186.152 729.819)" fill="#fdc500"/>
    <path id="Path_3547" data-name="Path 3547" d="M0,0A1.858,1.858,0,0,1,.436.109L.545.436,1.2.545l.109.436h.982v.109l-.375.048c-.368.019-.368.019-.5.17q-.273.007-.545,0L.764.873,0,.764Z" transform="translate(190.51 777.057)" fill="#fdc500"/>
    <path id="Path_3548" data-name="Path 3548" d="M-16.036,0h.327V.655l-.4.136a3.344,3.344,0,0,0-1.241.736q-.327.007-.655,0V1.309h.436l.218-.545.545.109V.327l.764.109Z" transform="translate(261.856 736.147)" fill="#fdc500"/>
    <path id="Path_3549" data-name="Path 3549" d="M-14.255,0l.327.109q.007.327,0,.655c-.109.109-.109.109-.5.116L-14.8.873l-.075.177a4.206,4.206,0,0,1-.689.914H-16V1.745h.327V1.2l.259-.02.286-.089a1.491,1.491,0,0,0,.218-.545h.545Z" transform="translate(240.765 736.038)" fill="#fdc500"/>
    <path id="Path_3550" data-name="Path 3550" d="M-.891-.028q.382-.007.764,0c.109.109.109.109.12.382l0,.334,0,.335,0,.259L-.455,1.5V.518L-1,.409Z" transform="translate(241.256 695.374)" fill="#fdc500"/>
    <path id="Path_3551" data-name="Path 3551" d="M0-.084a5.236,5.236,0,0,1,.655,0C.873.135.873.135.9.387l0,.293,0,.293a.838.838,0,0,1-.127.47H.436V.571L0,.462Z" transform="translate(239.82 693.684)" fill="#fdc500"/>
    <path id="Path_3552" data-name="Path 3552" d="M-20.491,0c.2,0,.391.017.586.034l.323.026a1.087,1.087,0,0,1,.618.267h-1.309l-.109.218a3.73,3.73,0,0,1-.511.041,2.006,2.006,0,0,0-1.452.723,5.237,5.237,0,0,1-.655,0l.109-.218L-22.6,1a2.179,2.179,0,0,0,.736-.4A2.8,2.8,0,0,1-20.6.109Z" transform="translate(266.856 736.583)" fill="#fdc500"/>
    <path id="Path_3553" data-name="Path 3553" d="M-4.152,0l.375.007.109.436H-4.1l-.109.982-.436-.218q0-.269-.007-.539l0-.3C-4.643-.047-4.58.008-4.152,0Z" transform="translate(222.869 681.921)" fill="#fdc500"/>
    <path id="Path_3554" data-name="Path 3554" d="M0,0Q.383.042.764.109L.873.327q.381.166.764.327l.218.218c.216.078.435.151.655.218V1.2H1.527L1.418.764,1.1.73C.764.655.764.655.545.327L.218.218V.982L0,.873Z" transform="translate(190.291 776.838)" fill="#fdc500"/>
    <path id="Path_3555" data-name="Path 3555" d="M0-.1C.614-.125.614-.125.982.121a1.9,1.9,0,0,1,.02.5L.993.9.982,1.1l-.436.218L.436.339H0Z" transform="translate(240.801 697.189)" fill="#fdc500"/>
    <path id="Path_3556" data-name="Path 3556" d="M-4.183,0l.375.007V.443l-.327.109-.109.873h-.327a1.47,1.47,0,0,1-.123-.77v-.3C-4.671-.048-4.606.007-4.183,0Z" transform="translate(217.554 698.612)" fill="#fdc500"/>
    <path id="Path_3557" data-name="Path 3557" d="M-.087,0H.349L.458.764H.895L.786,1.2Q.4,1.207.022,1.2C-.087,1.091-.087,1.091-.1.842l0-.3,0-.3Z" transform="translate(254.416 704.292)" fill="#fdc500"/>
    <path id="Path_3558" data-name="Path 3558" d="M0,0H4.582V.109L2.836.218V.545H1.964L2.4.327V.109H0Z" transform="translate(187.346 707.783)" fill="#fdc500"/>
    <path id="Path_3559" data-name="Path 3559" d="M0,0A8.605,8.605,0,0,1,.566,1.65l.094.335.088.32L.829,2.6a.487.487,0,0,1-.065.456c-.327-.218-.327-.218-.4-.522L.32,2.175c-.027-.217-.06-.433-.1-.648L0,1.418Z" transform="translate(259.347 718.801)" fill="#fdc500"/>
    <path id="Path_3560" data-name="Path 3560" d="M-3.6,0h.109c.055,1.845.055,1.845-.4,2.4l-.15.109A7.284,7.284,0,0,1-3.817.545H-3.6Z" transform="translate(244.509 754.802)" fill="#fdc500"/>
    <path id="Path_3561" data-name="Path 3561" d="M-19.6,0l.218.327A4.093,4.093,0,0,1-22,.436V.218l.209-.008.93-.039.328-.013.312-.014.289-.012C-19.71.133-19.71.133-19.6,0Z" transform="translate(209.237 707.892)" fill="#fdc500"/>
    <path id="Path_3562" data-name="Path 3562" d="M0,0H.655L.764.3a1.421,1.421,0,0,0,.9.676c.19.115.19.115.251.332l.049.219.327.218v.218a2.838,2.838,0,0,1-.545-.218l-.1-.2C1.485,1.228,1.245,1.156.94,1a1.069,1.069,0,0,1-.4-.78H0Z" transform="translate(187.019 774.111)" fill="#fdc500"/>
    <path id="Path_3563" data-name="Path 3563" d="M-4.7,0l.314.014L-4.492.45h-.327v.873L-5.256,1.1a5.085,5.085,0,0,1,0-.873C-5.037.014-5.037.014-4.7,0Z" transform="translate(218.675 697.078)" fill="#fdc500"/>
    <path id="Path_3564" data-name="Path 3564" d="M-.891,0l.655.218V1.309l-.436.109V.545L-1,.436Z" transform="translate(239.292 688.364)" fill="#fdc500"/>
    <path id="Path_3565" data-name="Path 3565" d="M-.084,0H.244L.353.436l.764.109.109.436.545.109v.218H1.116L1.007.873.585.832C.162.791.162.791-.084.545A3.636,3.636,0,0,1-.084,0Z" transform="translate(288.559 708.328)" fill="#fdc500"/>
    <path id="Path_3566" data-name="Path 3566" d="M-.978,0l.436.109.109.982h-.655q0-.242-.007-.484l0-.272C-1.087.109-1.087.109-.978,0Z" transform="translate(242.543 761.784)" fill="#fdc500"/>
    <path id="Path_3567" data-name="Path 3567" d="M-.233,0h.109l.009.2L-.1.464l.015.261a1.389,1.389,0,0,0,.5.694,3.159,3.159,0,0,1,.191.6l.08.31a2.58,2.58,0,0,1,.056.726H.53a1.348,1.348,0,0,1-.259-.92A.973.973,0,0,0-.022,1.3c-.211-.211-.211-.211-.24-.479C-.261.548-.252.275-.233,0Z" transform="translate(259.908 720.656)" fill="#fdc500"/>
    <path id="Path_3568" data-name="Path 3568" d="M-7.127-.7q.007.327,0,.655c-.109.109-.109.109-.443.116l-.32-.007L-8-.7A1.187,1.187,0,0,1-7.127-.7Z" transform="translate(173.964 709.033)" fill="#fdc500"/>
    <path id="Path_3569" data-name="Path 3569" d="M-4.7,0l.314.014V.45L-4.71.559a3.455,3.455,0,0,0-.218.655L-5.256,1.1a5.085,5.085,0,0,1,0-.873C-5.037.014-5.037.014-4.7,0Z" transform="translate(221.947 686.823)" fill="#fdc500"/>
    <path id="Path_3570" data-name="Path 3570" d="M-1.838,0h.218a9.809,9.809,0,0,1-.164,1.964l-.047.288q-.057.347-.116.694h-.109A12.512,12.512,0,0,1-1.838,0Z" transform="translate(242.094 757.529)" fill="#fdc500"/>
    <path id="Path_3571" data-name="Path 3571" d="M-7.765,0V.545L-8.2.655V1.2l-.436-.109a1.266,1.266,0,0,1,0-.873A2.22,2.22,0,0,1-7.765,0Z" transform="translate(278.13 771.275)" fill="#fdc500"/>
    <path id="Path_3572" data-name="Path 3572" d="M-10.691,0h.109c.014.736.014.736-.109.982h-.764V1.2h-.436A.826.826,0,0,1-12,.764a4.12,4.12,0,0,1,.545-.545V.764L-10.8.655Z" transform="translate(177.527 708.328)" fill="#fdc500"/>
    <path id="Path_3573" data-name="Path 3573" d="M-.028,0H.19L.245.314C.366.665.366.665.613.735q.235.048.474.081l.194.057L1.39,1.2l.655.109v.218H1.281L1.2,1.317c-.12-.246-.12-.246-.372-.313L.565.961C.088.88.088.88-.028.764Q-.035.382-.028,0Z" transform="translate(288.285 708.328)" fill="#fdc500"/>
    <path id="Path_3574" data-name="Path 3574" d="M-4.152,0l.375.007-.109.436L-4.213.334l-.109.873L-4.65,1.1q0-.242-.007-.484l0-.272C-4.642-.051-4.559.007-4.152,0Z" transform="translate(215.996 703.63)" fill="#fdc500"/>
    <path id="Path_3575" data-name="Path 3575" d="M-.891,0l.655.218.109.982-.436.218L-.673.545-1,.436Z" transform="translate(239.729 690)" fill="#fdc500"/>
    <path id="Path_3576" data-name="Path 3576" d="M-4.152,0l.375.007V.334h-.436l-.109.873H-4.65q0-.269-.007-.539l0-.3C-4.643-.047-4.58.008-4.152,0Z" transform="translate(222.432 683.666)" fill="#fdc500"/>
    <path id="Path_3577" data-name="Path 3577" d="M-16.927-2.335l.375.1a1.459,1.459,0,0,1,.825.559c-.423-.1-.423-.1-.545-.218-.165-.025-.331-.045-.5-.061l-.273-.028-.211-.02-.109-.436-.247.052-.326.064-.322.065A1.452,1.452,0,0,1-19-2.335C-17.5-2.716-17.5-2.716-16.927-2.335Z" transform="translate(227.401 739.027)" fill="#fdc500"/>
    <path id="Path_3578" data-name="Path 3578" d="M-3.564,0l.327.218c.062.78.062.78-.218,1.2L-4,1.309l.109-.327h.218Z" transform="translate(204.001 704.073)" fill="#fdc500"/>
    <path id="Path_3579" data-name="Path 3579" d="M0,0,.47.1.735.16a4.507,4.507,0,0,1,.574.167l.109.327a3.455,3.455,0,0,0,.655.218V.982a3.491,3.491,0,0,1-.655,0L1.268.825C.973.541.617.578.218.545Z" transform="translate(195.746 768.002)" fill="#fdc500"/>
    <path id="Path_3580" data-name="Path 3580" d="M-3.88,0l.32.007V.443H-4v.873L-4.323,1.1A1.8,1.8,0,0,1-4.351.6l.005-.266C-4.309-.026-4.252.008-3.88,0Z" transform="translate(223.743 678.757)" fill="#fdc500"/>
    <path id="Path_3581" data-name="Path 3581" d="M-4.232,0l.375.007V.552L-3.966.334c-.257.1-.257.1-.341.443l-.1.32L-4.73.88a3.573,3.573,0,0,1,0-.764C-4.62.007-4.62.007-4.232,0Z" transform="translate(215.53 705.267)" fill="#fdc500"/>
    <path id="Path_3582" data-name="Path 3582" d="M-4.292,0l.375.007-.109.436L-4.353.334l-.109.873L-4.79.989a3.6,3.6,0,0,1,0-.873C-4.68.007-4.68.007-4.292,0Z" transform="translate(216.681 701.994)" fill="#fdc500"/>
    <path id="Path_3583" data-name="Path 3583" d="M-4.42,0l.259.014V.45H-4.6v.982l-.327-.218A1.707,1.707,0,0,1-4.959.723V.46C-4.9.095-4.781.017-4.42,0Z" transform="translate(219.544 693.805)" fill="#fdc500"/>
    <path id="Path_3584" data-name="Path 3584" d="M-1.782,0h.873l-.109.545L-2,.764V.218h.218Z" transform="translate(236.692 666)" fill="#fdc500"/>
    <path id="Path_3585" data-name="Path 3585" d="M0,0A23.145,23.145,0,0,1,1.745,1.636a.8.8,0,0,1-.655-.218V1.2H.655L.545.655H.109Z" transform="translate(194.001 766.256)" fill="#fdc500"/>
    <path id="Path_3586" data-name="Path 3586" d="M0,0A1.131,1.131,0,0,1,.465.873c0,.328-.01.654-.029.981l.327.109v.218H.545V2.4L.218,2.291.327.764,0,.655Z" transform="translate(239.492 758.947)" fill="#fdc500"/>
    <path id="Path_3587" data-name="Path 3587" d="M0,0H.655A1.317,1.317,0,0,1,.77.723l0,.27,0,.207-.218.109L.327.545H0Z" transform="translate(242.983 704.073)" fill="#fdc500"/>
    <path id="Path_3588" data-name="Path 3588" d="M-3.811,0V.873h.218v.436c-.532-.1-.532-.1-.655-.218a2.783,2.783,0,0,1,0-.873C-3.921,0-3.921,0-3.811,0Z" transform="translate(252.14 684.219)" fill="#fdc500"/>
    <path id="Path_3589" data-name="Path 3589" d="M-4.455,0a.92.92,0,0,1,.218.764L-5,.873V.109A.817.817,0,0,1-4.455,0Z" transform="translate(217.219 762.111)" fill="#fdc500"/>
    <path id="Path_3590" data-name="Path 3590" d="M0,0,.327.109.34.356.361.682.381,1a1.478,1.478,0,0,0,.383.741v.436l.327.109-.109.327V2.4L.327,2.291V1.964H.545L.386,1.841A1.2,1.2,0,0,1,.15.982,3.4,3.4,0,0,0,0,0Z" transform="translate(239.71 759.165)" fill="#fdc500"/>
    <path id="Path_3591" data-name="Path 3591" d="M-4.977-.07l.2.075C-4.888.332-4.888.332-5,.442h-.218v.982l-.327-.218A1.618,1.618,0,0,1-5.583.721l0-.259C-5.519.094-5.365-.125-4.977-.07Z" transform="translate(221.253 690.541)" fill="#fdc500"/>
    <path id="Path_3592" data-name="Path 3592" d="M-.031,0a1.842,1.842,0,0,1,.4,1.159l.044.259A8.631,8.631,0,0,1,.514,3.055H.4L.361,2.8.3,2.461.245,2.128C.214,1.862.214,1.862.078,1.745A8.368,8.368,0,0,1-.031,0Z" transform="translate(207.778 747.602)" fill="#fdc500"/>
    <path id="Path_3593" data-name="Path 3593" d="M0,0C.7.079,1.383.2,2.073.327L1.964.545Q1.6.527,1.227.5L.813.482A1.712,1.712,0,0,1,0,.218Z" transform="translate(246.692 736.147)" fill="#fdc500"/>
    <path id="Path_3594" data-name="Path 3594" d="M-.978,0h.327V.873l.327.109A2.6,2.6,0,0,1-.76,1.2l-.327-.109q0-.242-.007-.484l0-.272C-1.087.109-1.087.109-.978,0Z" transform="translate(250.07 687.491)" fill="#fdc500"/>
    <path id="Path_3595" data-name="Path 3595" d="M-2.1,0l.218.109V.982h.218l-.109.436a1.453,1.453,0,0,1-.545-.327,2.491,2.491,0,0,1,0-.873Z" transform="translate(250.759 685.746)" fill="#fdc500"/>
    <path id="Path_3596" data-name="Path 3596" d="M-7.127,0h.218V.982c-.723.327-.723.327-1.091.327l.218-.545h.655Z" transform="translate(206.473 707.019)" fill="#fdc500"/>
    <path id="Path_3597" data-name="Path 3597" d="M-1.949,0c.218.218.218.218.232.5l-.014.259h.436l-.109.327q-.327.007-.655,0c-.109-.109-.109-.109-.13-.484C-2.167.218-2.167.218-1.949,0Z" transform="translate(256.06 702.655)" fill="#fdc500"/>
    <path id="Path_3598" data-name="Path 3598" d="M-.891-.125a3.5,3.5,0,0,1,.655,0A1.335,1.335,0,0,1,0,.877l-.006.359-.008.275H-.127L-.345.42-1,.2Z" transform="translate(242.347 698.744)" fill="#fdc500"/>
    <path id="Path_3599" data-name="Path 3599" d="M-4.251,0l.259.014V.45h-.436v.764L-4.756,1.1a5.084,5.084,0,0,1,0-.873C-4.537.014-4.537.014-4.251,0Z" transform="translate(218.829 695.442)" fill="#fdc500"/>
    <path id="Path_3600" data-name="Path 3600" d="M-4.251,0l.259.014V.45h-.436v.764L-4.756,1.1a5.084,5.084,0,0,1,0-.873C-4.537.014-4.537.014-4.251,0Z" transform="translate(224.72 677.114)" fill="#fdc500"/>
    <path id="Path_3601" data-name="Path 3601" d="M-3.6,0l.661.021V.349l-.545.109-.109.327h-.436a3.636,3.636,0,0,1,0-.545C-3.811.021-3.811.021-3.6,0Z" transform="translate(264.467 778.563)" fill="#fdc500"/>
    <path id="Path_3602" data-name="Path 3602" d="M-6.359,0V.545L-6.468.327h-.218V.655H-6.9V1.2h.218v.218h-.436C-7.155.439-7.155.439-6.9.109A1.186,1.186,0,0,1-6.359,0Z" transform="translate(217.487 707.019)" fill="#fdc500"/>
    <path id="Path_3603" data-name="Path 3603" d="M0,0H.545l-.1.172a2.759,2.759,0,0,0-.182,1L.234,1.56l-.016.295H0Z" transform="translate(233.274 667.855)" fill="#fdc500"/>
    <path id="Path_3604" data-name="Path 3604" d="M0,0,.764.218V.545l.545.109.109.764-.327-.109V.982L.545.873V.436L0,.327Z" transform="translate(188.546 775.857)" fill="#fdc500"/>
    <path id="Path_3605" data-name="Path 3605" d="M0,0,.436.109.545.655.873.764v.873H.545V.982L.327.873C.2.586.1.3,0,0Z" transform="translate(240.147 760.475)" fill="#fdc500"/>
    <path id="Path_3606" data-name="Path 3606" d="M-1.782,0H-.8l-.218.545H-2Z" transform="translate(199.492 707.783)" fill="#fdc500"/>
    <path id="Path_3607" data-name="Path 3607" d="M-.919,0-.7.109V1.418l.436.109-.109.436-.2-.055a.99.99,0,0,0-.45-.055q-.007-.273,0-.545L-.919,1.2C-.911,1-.91.8-.912.593l0-.335Z" transform="translate(244.557 704.073)" fill="#fdc500"/>
    <path id="Path_3608" data-name="Path 3608" d="M-4.649,0l.314.014V.341L-4.772.45l-.109.655L-5.209,1a7.128,7.128,0,0,1,0-.764C-4.99.014-4.99.014-4.649,0Z" transform="translate(224.082 680.387)" fill="#fdc500"/>
    <path id="Path_3609" data-name="Path 3609" d="M-9.8-.036V.4H-11V.073A3.551,3.551,0,0,1-9.8-.036Z" transform="translate(268.602 779.274)" fill="#fdc500"/>
    <path id="Path_3610" data-name="Path 3610" d="M0-.261C.159-.27.318-.276.477-.281L.746-.293l.236.032A.8.8,0,0,1,1.2.394H.545V.066L0-.043Z" transform="translate(193.128 778.954)" fill="#fdc500"/>
    <path id="Path_3611" data-name="Path 3611" d="M-.891,0h.545A1.028,1.028,0,0,1-.236.436,2.639,2.639,0,0,1-.673.873L-1,.764Z" transform="translate(244.965 762.329)" fill="#fdc500"/>
    <path id="Path_3612" data-name="Path 3612" d="M-2.673,0h.109c.012.264.02.527.027.791l.011.225a1.1,1.1,0,0,1-.258.891L-3,2.073A13.079,13.079,0,0,1-2.673,0Z" transform="translate(265.402 759.929)" fill="#fdc500"/>
    <path id="Path_3613" data-name="Path 3613" d="M-13.085,0l.252.027-.2.027c-.243.058-.243.058-.341.259l-.109.259q-.114.206-.232.409l-.2.355h-.764l.109-.327h.232c.43-.15.557-.416.791-.795C-13.378.027-13.378.027-13.085,0Z" transform="translate(239.343 736.884)" fill="#fdc500"/>
    <path id="Path_3614" data-name="Path 3614" d="M-3.564,0l.218.109c.161.657.161.657-.02,1.03-.2.17-.2.17-.634.17l.109-.327h.218Z" transform="translate(205.092 700.91)" fill="#fdc500"/>
    <path id="Path_3615" data-name="Path 3615" d="M-4.42,0l.259.014V.341H-4.6v.982L-4.925,1.1A1.361,1.361,0,0,1-4.959.668V.436C-4.9.083-4.763.016-4.42,0Z" transform="translate(220.089 692.278)" fill="#fdc500"/>
    <path id="Path_3616" data-name="Path 3616" d="M-1.956,0a1.727,1.727,0,0,1,0,1.091L-1.41.982v.436l-.764-.109c-.006-.177-.01-.355-.014-.532L-2.2.478C-2.174.218-2.174.218-1.956,0Z" transform="translate(212.32 707.346)" fill="#fdc500"/>
    <path id="Path_3617" data-name="Path 3617" d="M-1.058,0h.109L-.84.545l.327.109V2.182H-.731l-.012-.251L-.765,1.6l-.019-.326A.875.875,0,0,0-1.167.655a1.826,1.826,0,0,1,0-.545Z" transform="translate(256.26 706.037)" fill="#fdc500"/>
    <path id="Path_3618" data-name="Path 3618" d="M-1.782,0l.545.109v1.2h-.218V.436H-2Z" transform="translate(243.892 700.801)" fill="#fdc500"/>
    <path id="Path_3619" data-name="Path 3619" d="M-3.239,0l.266.007.109.327-.327.109L-3.3,1.1-3.628.989c-.011-.671-.011-.671,0-.873C-3.519.007-3.519.007-3.239,0Z" transform="translate(216.065 700.357)" fill="#fdc500"/>
    <path id="Path_3620" data-name="Path 3620" d="M-1.782,0a1.45,1.45,0,0,1,.436.218,2.146,2.146,0,0,1,.109.545H-2C-1.9.123-1.9.123-1.782,0Z" transform="translate(228.51 762.111)" fill="#fdc500"/>
    <path id="Path_3621" data-name="Path 3621" d="M0-.174c.714-.04.714-.04.955.157l.136.17.327.109V.481h.655l.109.327a1.491,1.491,0,0,1-.655,0A8.461,8.461,0,0,1,.869.222,1.237,1.237,0,0,0,0-.065Z" transform="translate(210.474 736.866)" fill="#fdc500"/>
    <path id="Path_3622" data-name="Path 3622" d="M0,0H.109L.436,1.855H0Z" transform="translate(183.855 718.801)" fill="#fdc500"/>
    <path id="Path_3623" data-name="Path 3623" d="M-3.759,0V.982l.218.109H-4.2a3.4,3.4,0,0,1,0-.873C-3.868,0-3.868,0-3.759,0Z" transform="translate(251.543 682.582)" fill="#fdc500"/>
    <path id="Path_3624" data-name="Path 3624" d="M-.891,0h.545l.109.655H-1Z" transform="translate(230.128 762.22)" fill="#fdc500"/>
    <path id="Path_3625" data-name="Path 3625" d="M-.891,0l.109.327.545.109V.873L.091.982c-.409.123-.409.123-.655,0L-.673.655H-1Z" transform="translate(225.547 761.02)" fill="#fdc500"/>
    <path id="Path_3626" data-name="Path 3626" d="M0,0A1.858,1.858,0,0,1,.436.109L.545.436.859.593a1.362,1.362,0,0,1,.668.607l-.109.218-.327-.109A1.858,1.858,0,0,1,.982.873L.614.8C.218.655.218.655.061.314Z" transform="translate(248.438 737.019)" fill="#fdc500"/>
    <path id="Path_3627" data-name="Path 3627" d="M-1.865,0A3.217,3.217,0,0,1-1.32.109V.327h-.327l-.109.545h-.327a5.237,5.237,0,0,1,0-.655Z" transform="translate(218.339 688.582)" fill="#fdc500"/>
    <path id="Path_3628" data-name="Path 3628" d="M-1,0l.218.109V.655h.436V.982Q-.675.989-1,.982C-1.111.873-1.111.873-1.125.491-1.111.109-1.111.109-1,0Z" transform="translate(254.568 701.128)" fill="#fdc500"/>
    <path id="Path_3629" data-name="Path 3629" d="M0,0H.109L.118.207l.019.27L.152.746c.042.256.042.256.282.36L.655,1.2a4.547,4.547,0,0,1,.218.545l.218.218-.109.327a1.3,1.3,0,0,1-.545-.873L0,1.309Z" transform="translate(224.765 760.038)" fill="#fdc500"/>
    <path id="Path_3630" data-name="Path 3630" d="M-2.673,0h.109c.012.248.02.5.027.743l.015.418c-.043.366-.043.366-.263.579L-3,1.855q.051-.341.1-.682L-2.84.789A7.657,7.657,0,0,1-2.673,0Z" transform="translate(265.947 757.42)" fill="#fdc500"/>
    <path id="Path_3631" data-name="Path 3631" d="M-.087,0H.131L.24.655.677.764V.982Q.349.989.022.982C-.087.873-.087.873-.1.671Z" transform="translate(252.998 699.492)" fill="#fdc500"/>
    <path id="Path_3632" data-name="Path 3632" d="M-.981,0h.218l.109.764h.327l-.109.327A4.287,4.287,0,0,1-.981.982,1.587,1.587,0,0,1-1.091.109Z" transform="translate(252.91 696.219)" fill="#fdc500"/>
    <path id="Path_3633" data-name="Path 3633" d="M0,0H.545A1.317,1.317,0,0,1,.661.723l0,.27,0,.207H.436V.436L0,.327Z" transform="translate(239.82 693.819)" fill="#fdc500"/>
    <path id="Path_3634" data-name="Path 3634" d="M-2.673,0h.109c.012.248.02.5.027.743l.015.418c-.043.366-.043.366-.263.579L-3,1.855l.1-.62L-2.84.885C-2.789.589-2.733.294-2.673,0Z" transform="translate(268.129 747.274)" fill="#fdc500"/>
    <path id="Path_3635" data-name="Path 3635" d="M0,0,.109.327H1.964V0H2.4L2.182.436H0Z" transform="translate(227.165 735.819)" fill="#fdc500"/>
    <path id="Path_3636" data-name="Path 3636" d="M0,0H.327A.938.938,0,0,1,.675.736L.655.982l-.327.109Z" transform="translate(239.383 691.746)" fill="#fdc500"/>
    <path id="Path_3637" data-name="Path 3637" d="M-3.564,0h.109V1.091L-4,1.2A2.333,2.333,0,0,1-3.564,0Z" transform="translate(265.202 764.62)" fill="#fdc500"/>
    <path id="Path_3638" data-name="Path 3638" d="M0,0C.712.148.712.148.975.5l.116.259H.545V.436H.109Z" transform="translate(210.037 761.565)" fill="#fdc500"/>
    <path id="Path_3639" data-name="Path 3639" d="M-.065,0H.044A8.345,8.345,0,0,1,.385,1.848l.029.289q.034.35.067.7a2.12,2.12,0,0,1-.334-1.1A1.436,1.436,0,0,0-.065.873C-.081.581-.07.292-.065,0Z" transform="translate(209.557 756.438)" fill="#fdc500"/>
    <path id="Path_3640" data-name="Path 3640" d="M-8.909,0-8.8.218a3.825,3.825,0,0,1-.211.5l-.126.27-.1.207H-10l.239-.232A12.375,12.375,0,0,0-8.909,0Z" transform="translate(215.892 737.674)" fill="#fdc500"/>
    <path id="Path_3641" data-name="Path 3641" d="M0,0A6.529,6.529,0,0,1,.873.218L.655.436.873.545V.982H.436L.341.736C.237.484.126.242,0,0Z" transform="translate(230.656 737.019)" fill="#fdc500"/>
    <path id="Path_3642" data-name="Path 3642" d="M-3.564,0l.545.218V.873L-4,.655l.327-.218A1.53,1.53,0,0,0-3.564,0Z" transform="translate(213.492 735.819)" fill="#fdc500"/>
    <path id="Path_3643" data-name="Path 3643" d="M0,0Q.383.042.764.109L.873.327a3.251,3.251,0,0,0,.436.218A1.437,1.437,0,0,1,.218.218V.982L0,.873Z" transform="translate(190.291 776.838)" fill="#fdc500"/>
    <path id="Path_3644" data-name="Path 3644" d="M-2.673,0h.109V1.527L-3,1.636Z" transform="translate(266.493 754.911)" fill="#fdc500"/>
    <path id="Path_3645" data-name="Path 3645" d="M0,0,.655.218.545.764H.873L1.091.545v.545L.327.873V.327L0,.218Z" transform="translate(249.856 737.783)" fill="#fdc500"/>
    <path id="Path_3646" data-name="Path 3646" d="M-6.236,0h.327V.655h-.873V.436L-7,.327l.764.109Z" transform="translate(252.056 736.147)" fill="#fdc500"/>
    <path id="Path_3647" data-name="Path 3647" d="M-2.673,0l.436.327.109-.218V.873L-2.782.655V.436L-3,.327l.327-.109Z" transform="translate(293.002 709.964)" fill="#fdc500"/>
    <path id="Path_3648" data-name="Path 3648" d="M-2.785,0l.109.327-.109.109q-.007.382,0,.764l.655.109v.109H-3A2.543,2.543,0,0,1-3.112.327,1.058,1.058,0,0,1-2.785,0Z" transform="translate(256.35 700.801)" fill="#fdc500"/>
    <path id="Path_3649" data-name="Path 3649" d="M-1.991,0a3.217,3.217,0,0,1,.545.109l-.327.218a4.064,4.064,0,0,0-.109.764L-2.209.873a2.107,2.107,0,0,1,0-.655Z" transform="translate(215.192 698.837)" fill="#fdc500"/>
    <path id="Path_3650" data-name="Path 3650" d="M-.956,0h.218l.109,1.2L-1.065.982c-.011-.671-.011-.671,0-.873Z" transform="translate(250.703 689.128)" fill="#fdc500"/>
    <path id="Path_3651" data-name="Path 3651" d="M0,0A1.858,1.858,0,0,1,.436.109L.545.436.982.545,0,.764Z" transform="translate(190.51 777.057)" fill="#fdc500"/>
    <path id="Path_3652" data-name="Path 3652" d="M0,0A1.865,1.865,0,0,1,.845.389l.2.15L1.2.655,1.091,1.2A13.754,13.754,0,0,1,0,0Z" transform="translate(210.474 761.565)" fill="#fdc500"/>
    <path id="Path_3653" data-name="Path 3653" d="M-1.782,0h.218l.109.655h-.218L-1.6.845a.823.823,0,0,1-.177.682H-2Z" transform="translate(243.02 748.583)" fill="#fdc500"/>
    <path id="Path_3654" data-name="Path 3654" d="M-3.3,0h.109a4.511,4.511,0,0,1-.436,1.964A1.36,1.36,0,0,1-3.514.873q.056-.382.109-.764Z" transform="translate(245.516 746.511)" fill="#fdc500"/>
    <path id="Path_3655" data-name="Path 3655" d="M-.132,0h.109q.087.4.17.791l.05.225a1.7,1.7,0,0,1,0,1.056A3.586,3.586,0,0,1-.132,0Z" transform="translate(187.696 737.238)" fill="#fdc500"/>
    <path id="Path_3656" data-name="Path 3656" d="M-9.8-.02-9.909.2l-.218-.109V.526H-11l.218-.109.109-.327A2.242,2.242,0,0,1-9.8-.02Z" transform="translate(220.055 735.73)" fill="#fdc500"/>
    <path id="Path_3657" data-name="Path 3657" d="M0,0H.109Q.192.368.273.736l.092.414a2.909,2.909,0,0,1,.072.813L.109,1.855Z" transform="translate(184.4 721.528)" fill="#fdc500"/>
    <path id="Path_3658" data-name="Path 3658" d="M-1.865,0a1.942,1.942,0,0,1,.327.982l-.327.109V.873h-.218a5.237,5.237,0,0,1,0-.655Z" transform="translate(254.34 697.637)" fill="#fdc500"/>
    <path id="Path_3659" data-name="Path 3659" d="M-.94,0l.109.218h.218v.873L-1.049.982C-1.062.245-1.062.245-.94,0Z" transform="translate(222.759 669.273)" fill="#fdc500"/>
    <path id="Path_3660" data-name="Path 3660" d="M-2.951,0l.327.109-.218.218a2.528,2.528,0,0,0-.123.45l-.1.423C-3.278.982-3.278.982-3.312.6l.034-.382Z" transform="translate(273.971 769.42)" fill="#fdc500"/>
    <path id="Path_3661" data-name="Path 3661" d="M-2.673,0h.109c.012.209.02.418.027.627l.015.353c-.043.329-.043.329-.479.765Z" transform="translate(269.22 742.256)" fill="#fdc500"/>
    <path id="Path_3662" data-name="Path 3662" d="M0,0,.327.218.709.307c.382.13.382.13.58.389l.13.286.13.252.089.184c-.63-.383-.63-.383-.764-.668C.706.437.435.431.109.327Z" transform="translate(229.456 736.583)" fill="#fdc500"/>
    <path id="Path_3663" data-name="Path 3663" d="M-.348,0h.109L.088,1.855c-.436-.436-.436-.436-.479-.789L-.375.682-.363.295Z" transform="translate(187.367 734.51)" fill="#fdc500"/>
    <path id="Path_3664" data-name="Path 3664" d="M-4.51,0l.32.007.109.218-.307.15a3.364,3.364,0,0,0-.675.4C-4.949.009-4.949.009-4.51,0Z" transform="translate(215.209 706.794)" fill="#fdc500"/>
    <path id="Path_3665" data-name="Path 3665" d="M-3.118,0c.273.014.273.014.382.123q.007.382,0,.764h-.327V.232L-3.5.123C-3.391.014-3.391.014-3.118,0Z" transform="translate(243.865 695.66)" fill="#fdc500"/>
    <path id="Path_3666" data-name="Path 3666" d="M-3.647,0l.32.007V.225h-.436V.77L-4.09.88Q-4.1.5-4.09.116C-3.981.007-3.981.007-3.647,0Z" transform="translate(221.437 685.412)" fill="#fdc500"/>
    <path id="Path_3667" data-name="Path 3667" d="M-7.127,0a1.858,1.858,0,0,1-.109.436l-.327.109-.109,1.418L-8,1.855h.218L-7.8,1.56l-.012-.387L-7.824.789A.832.832,0,0,1-7.576.172C-7.345,0-7.345,0-7.127,0Z" transform="translate(241.274 667.855)" fill="#fdc500"/>
    <path id="Path_3668" data-name="Path 3668" d="M0,0,.764.218v.873H.545L.436.436,0,.327Z" transform="translate(189.31 776.075)" fill="#fdc500"/>
    <path id="Path_3669" data-name="Path 3669" d="M0,0H.109V1.964H.327L.436,2.4,0,2.182Z" transform="translate(183.746 718.692)" fill="#fdc500"/>
    <path id="Path_3670" data-name="Path 3670" d="M-.94,0A.92.92,0,0,1-.721.764h.436l-.109.327L-.5.982q-.273-.007-.545,0C-1.062.245-1.062.245-.94,0Z" transform="translate(255.596 704.292)" fill="#fdc500"/>
    <path id="Path_3671" data-name="Path 3671" d="M0,0,.655.109v1.2H.545V.655H.327L.218.327,0,.436Z" transform="translate(241.347 698.946)" fill="#fdc500"/>
    <path id="Path_3672" data-name="Path 3672" d="M-.891,0l.545.109V.545H-1Z" transform="translate(215.946 761.893)" fill="#fdc500"/>
    <path id="Path_3673" data-name="Path 3673" d="M-.2,0h.109l.034.4a2.277,2.277,0,0,0,.4,1.016,1.2,1.2,0,0,1-.109.436A2.187,2.187,0,0,1-.2,0Z" transform="translate(186.125 729.819)" fill="#fdc500"/>
    <path id="Path_3674" data-name="Path 3674" d="M-4.065,0-3.8.007V.225h-.436l.02.307c-.02.348-.02.348-.185.533l-.162.142q.023-.269.048-.539l.027-.3C-4.439.013-4.424.009-4.065,0Z" transform="translate(273.074 773.232)" fill="#fdc500"/>
    <path id="Path_3675" data-name="Path 3675" d="M0,0,.655.218v.873H.327L.348.839C.324.493.251.438,0,.218Z" transform="translate(225.419 761.456)" fill="#fdc500"/>
    <path id="Path_3676" data-name="Path 3676" d="M0,0H.327V.982H0Z" transform="translate(224.328 759.929)" fill="#fdc500"/>
    <path id="Path_3677" data-name="Path 3677" d="M-.036,0H.291L.4,1.418A2.078,2.078,0,0,1-.036,0Z" transform="translate(207.455 747.602)" fill="#fdc500"/>
    <path id="Path_3678" data-name="Path 3678" d="M-.224,0h.109q.056.255.109.511L.055.8A4.273,4.273,0,0,1,.1,1.636l-.327-.218A3.855,3.855,0,0,1-.245.7L-.236.3Z" transform="translate(188.77 742.147)" fill="#fdc500"/>
    <path id="Path_3679" data-name="Path 3679" d="M-3.564,0h.109a2.488,2.488,0,0,1,0,.873A1.453,1.453,0,0,1-4,1.2q.078-.27.157-.539l.088-.3C-3.673.109-3.673.109-3.564,0Z" transform="translate(198.982 720.874)" fill="#fdc500"/>
    <path id="Path_3680" data-name="Path 3680" d="M-2.738,0c0,.2,0,.4-.014.6-.008.3-.008.3.232.6-.423-.1-.423-.1-.545-.218-.015-.291,0-.581,0-.873Z" transform="translate(257.94 705.819)" fill="#fdc500"/>
    <path id="Path_3681" data-name="Path 3681" d="M0-.084a3.636,3.636,0,0,1,.545,0c.218.218.218.218.232.5L.764.68H.436L.341.421A.82.82,0,0,0,0-.084Z" transform="translate(193.891 778.667)" fill="#fdc500"/>
    <path id="Path_3682" data-name="Path 3682" d="M0,0A3.351,3.351,0,0,1,.655.218,1.706,1.706,0,0,1,.764.655l.327.218v.218A1.075,1.075,0,0,1,.361.607L.218.327Z" transform="translate(188.219 774.984)" fill="#fdc500"/>
    <path id="Path_3683" data-name="Path 3683" d="M0,0,.109.218q.38.067.764.109V.655L0,.545Z" transform="translate(249.965 738.438)" fill="#fdc500"/>
    <path id="Path_3684" data-name="Path 3684" d="M-2.673,0h.327l-.109.764L-3,.873V.545h.327Z" transform="translate(167 710.401)" fill="#fdc500"/>
    <path id="Path_3685" data-name="Path 3685" d="M0,0H.327A1.94,1.94,0,0,1,.436.982H.109Z" transform="translate(237.965 687.055)" fill="#fdc500"/>
    <path id="Path_3686" data-name="Path 3686" d="M-.956,0H-.52V.218H-.738l-.109.873L-1.065.982c-.011-.671-.011-.671,0-.873Z" transform="translate(219.503 682.146)" fill="#fdc500"/>
    <path id="Path_3687" data-name="Path 3687" d="M-.891-.028q.327-.007.655,0c.109.109.109.109.116.443l-.007.32H-.345L-.455.3-1,.19Z" transform="translate(191.728 777.63)" fill="#fdc500"/>
    <path id="Path_3688" data-name="Path 3688" d="M0,0,.47.1.735.149a1.393,1.393,0,0,1,.574.287C.374.468.374.468,0,.218Z" transform="translate(197.055 768.438)" fill="#fdc500"/>
    <path id="Path_3689" data-name="Path 3689" d="M-2.673,0h.109V1.309L-2.891,1.2-3,.655h.218Z" transform="translate(244.347 748.583)" fill="#fdc500"/>
    <path id="Path_3690" data-name="Path 3690" d="M-1.956,0a1.986,1.986,0,0,1,.007,1.118l-.064.356-.052.271h-.109q-.009-.344-.014-.689L-2.2.669A.918.918,0,0,1-1.956,0Z" transform="translate(243.957 748.147)" fill="#fdc500"/>
    <path id="Path_3691" data-name="Path 3691" d="M-.891,0l.327.218a1.9,1.9,0,0,1,.02.5l-.009.27L-.564,1.2-1,1.309-.673.545-1,.436Z" transform="translate(200.782 705.71)" fill="#fdc500"/>
    <path id="Path_3692" data-name="Path 3692" d="M0-.028q.273-.007.545,0c.109.109.109.109.116.5L.655.845.436.736V.3H0Z" transform="translate(242.438 702.574)" fill="#fdc500"/>
    <path id="Path_3693" data-name="Path 3693" d="M-7.127-.063l-.109.218q-.217.061-.436.109c-.173.173-.147.369-.17.607l-.028.273-.02.211H-8V.046A1.667,1.667,0,0,1-7.127-.063Z" transform="translate(223.601 690.391)" fill="#fdc500"/>
    <path id="Path_3694" data-name="Path 3694" d="M-.174,0H.7L.59.218A4.287,4.287,0,0,1,.044.327v.982C-.174,1.091-.174,1.091-.2.831l.008-.3.006-.3Z" transform="translate(216.32 688.473)" fill="#fdc500"/>
    <path id="Path_3695" data-name="Path 3695" d="M-.978,0h.327V.327H-.869v.764h-.218q0-.242-.007-.484l0-.272C-1.087.109-1.087.109-.978,0Z" transform="translate(222.252 673.964)" fill="#fdc500"/>
    <path id="Path_3696" data-name="Path 3696" d="M-.691,0h.218A4.364,4.364,0,0,1-.364.655L-.582.982A.878.878,0,0,1-.76.245Z" transform="translate(210.401 760.475)" fill="#fdc500"/>
    <path id="Path_3697" data-name="Path 3697" d="M-4.152,0l.375.007V.225h-.655a2.619,2.619,0,0,0,.109.982L-4.65,1.1q0-.242-.007-.484l0-.272C-4.642-.051-4.559.007-4.152,0Z" transform="translate(215.996 703.63)" fill="#fdc500"/>
    <path id="Path_3698" data-name="Path 3698" d="M-7.127,0l.109.218c-.14.28-.273.317-.552.45l-.242.117L-8,.873A2.306,2.306,0,0,1-7.782.218,2.306,2.306,0,0,1-7.127,0Z" transform="translate(242.256 666.764)" fill="#fdc500"/>
    <path id="Path_3699" data-name="Path 3699" d="M-3.2,0l.266.007V.334h-.436L-3.59.77Q-3.6.443-3.59.116C-3.481.007-3.481.007-3.2,0Z" transform="translate(266.647 777.486)" fill="#fdc500"/>
    <path id="Path_3700" data-name="Path 3700" d="M-5.345,0V.218l-.327.109V.873L-6,.764V.109C-5.782,0-5.782,0-5.345,0Z" transform="translate(275.602 771.602)" fill="#fdc500"/>
    <path id="Path_3701" data-name="Path 3701" d="M-6.236-.662a3.5,3.5,0,0,1-.545.327q-.067.38-.109.764H-7V-.662A.941.941,0,0,1-6.236-.662Z" transform="translate(277.584 769.973)" fill="#fdc500"/>
    <path id="Path_3702" data-name="Path 3702" d="M0,0H.109q.06.259.116.518L.29.81a1.4,1.4,0,0,1-.072.718V1.309H0Z" transform="translate(189.091 744.874)" fill="#fdc500"/>
    <path id="Path_3703" data-name="Path 3703" d="M0,0H.109q.06.259.116.518L.29.81a1.4,1.4,0,0,1-.072.718V1.309H0Z" transform="translate(188.11 739.965)" fill="#fdc500"/>
    <path id="Path_3704" data-name="Path 3704" d="M0,0,.655.327A3.6,3.6,0,0,1,.723.88l.025.3.016.235H.545V.436L0,.327Z" transform="translate(243.529 706.255)" fill="#fdc500"/>
    <path id="Path_3705" data-name="Path 3705" d="M-2.673,0a1.079,1.079,0,0,1,.218.873L-3,1.091A11.145,11.145,0,0,1-2.673,0Z" transform="translate(203.655 702.764)" fill="#fdc500"/>
    <path id="Path_3706" data-name="Path 3706" d="M0,0H.655L.545.218H.218V.873H0Z" transform="translate(213.637 697.31)" fill="#fdc500"/>
    <path id="Path_3707" data-name="Path 3707" d="M-2.673,0h.109L-2.5.65c.037.256.037.256.263.55-.109.109-.109.109-.443.116L-3,1.309l.327-.109Z" transform="translate(221.983 678.982)" fill="#fdc500"/>
    <path id="Path_3708" data-name="Path 3708" d="M0,0H.545L.655.655H.218Z" transform="translate(192.146 778.257)" fill="#fdc500"/>
    <path id="Path_3709" data-name="Path 3709" d="M-3.564,0a1.727,1.727,0,0,1,0,1.091L-3.891.982l.109-.327L-4,.545Z" transform="translate(271.856 773.457)" fill="#fdc500"/>
    <path id="Path_3710" data-name="Path 3710" d="M-.656,0c.218.109.218.109.287.311l.054.242.055.242.04.187L-.656.873A1.226,1.226,0,0,1-.656,0Z" transform="translate(210.693 760.693)" fill="#fdc500"/>
    <path id="Path_3711" data-name="Path 3711" d="M-3.564,0a4.08,4.08,0,0,1,.436.109l-.218.218-.1.28c-.123.266-.123.266-.355.355l-.2.02.109-.327h.218L-3.68.389C-3.673.109-3.673.109-3.564,0Z" transform="translate(209.783 737.892)" fill="#fdc500"/>
    <path id="Path_3712" data-name="Path 3712" d="M-.2,0A3.252,3.252,0,0,1,.142.955L.2,1.219l.04.2A1.463,1.463,0,0,1-.2.982,5.022,5.022,0,0,1-.2,0Z" transform="translate(259.546 718.801)" fill="#fdc500"/>
    <path id="Path_3713" data-name="Path 3713" d="M0,0,.327.109V.436H.764L.655.764,0,.545Z" transform="translate(254.002 702.982)" fill="#fdc500"/>
    <path id="Path_3714" data-name="Path 3714" d="M0,0,.545.109.655.873.436.982.327.327,0,.218Z" transform="translate(238.729 690.219)" fill="#fdc500"/>
    <path id="Path_3715" data-name="Path 3715" d="M0,0,.47.1.735.149a1.393,1.393,0,0,1,.574.287C.5.49.5.49.164.218Z" transform="translate(195.746 768.002)" fill="#fdc500"/>
    <path id="Path_3716" data-name="Path 3716" d="M-1.782,0h.218V.218H-.8V.327c-.81.234-.81.234-1.2.327V.436h.218Z" transform="translate(246.838 736.583)" fill="#fdc500"/>
    <path id="Path_3717" data-name="Path 3717" d="M-5.693,0-5.8.327-6.13.436l-.109,1.091h-.109c-.012-.193-.02-.386-.027-.58L-6.391.622a.584.584,0,0,1,.249-.5A.636.636,0,0,1-5.693,0Z" transform="translate(226.204 676.691)" fill="#fdc500"/>
    <path id="Path_3718" data-name="Path 3718" d="M-2.951,0l.327.327H-3.06v.764C-3.278.873-3.278.873-3.312.607A.726.726,0,0,1-2.951,0Z" transform="translate(223.898 675.6)" fill="#fdc500"/>
    <path id="Path_3719" data-name="Path 3719" d="M-7.127,0V.545L-7.455.327A2.136,2.136,0,0,0-8,.545V.109A5.989,5.989,0,0,1-7.127,0Z" transform="translate(229.056 673.637)" fill="#fdc500"/>
    <path id="Path_3720" data-name="Path 3720" d="M-8.018-.018l-.436.109V.418H-9V.091A2.981,2.981,0,0,1-8.018-.018Z" transform="translate(266.056 779.257)" fill="#fdc500"/>
    <path id="Path_3721" data-name="Path 3721" d="M-.056,0H.381A1.816,1.816,0,0,1,.053.764C-.056.655-.056.655-.062.32Z" transform="translate(262.13 778.038)" fill="#fdc500"/>
    <path id="Path_3722" data-name="Path 3722" d="M-.891,0h.764V.218L-1,.436Z" transform="translate(269.402 773.02)" fill="#fdc500"/>
    <path id="Path_3723" data-name="Path 3723" d="M-5.345,0h.109V.655L-6,1.091A1.7,1.7,0,0,1-5.455.327Z" transform="translate(266.438 766.038)" fill="#fdc500"/>
    <path id="Path_3724" data-name="Path 3724" d="M0,0C.43.47.43.47.464.852l-.027.239L.327.764,0,.655Z" transform="translate(239.492 758.947)" fill="#fdc500"/>
    <path id="Path_3725" data-name="Path 3725" d="M-.224,0A3.042,3.042,0,0,1,.1,1.309l-.327-.218A2.328,2.328,0,0,1-.245.532l.009-.3Z" transform="translate(189.861 747.602)" fill="#fdc500"/>
    <path id="Path_3726" data-name="Path 3726" d="M0,0,1.2.109,1.091.327H.327V.109Z" transform="translate(247.565 736.365)" fill="#fdc500"/>
    <path id="Path_3727" data-name="Path 3727" d="M0,0H.436L.545.436,0,.655Z" transform="translate(246.147 736.147)" fill="#fdc500"/>
    <path id="Path_3728" data-name="Path 3728" d="M0,0,.764.218.873,0,.764.436H.109Z" transform="translate(244.183 708.328)" fill="#fdc500"/>
    <path id="Path_3729" data-name="Path 3729" d="M0,0,.436.109V.764L.218.873Z" transform="translate(241.129 697.419)" fill="#fdc500"/>
    <path id="Path_3730" data-name="Path 3730" d="M0,0H.545V.764L.327.873V.218L0,.109Z" transform="translate(238.292 688.691)" fill="#fdc500"/>
    <path id="Path_3731" data-name="Path 3731" d="M0,0,.545.218V1.2H.436L.327.327H0Z" transform="translate(237.965 686.728)" fill="#fdc500"/>
    <path id="Path_3732" data-name="Path 3732" d="M-1.865,0l.327.109h-.218l-.109.764L-2.084.764a3.637,3.637,0,0,1,0-.545Z" transform="translate(219.975 683.891)" fill="#fdc500"/>
    <path id="Path_3733" data-name="Path 3733" d="M0,0H.327V.218H.545V.545L0,.436Z" transform="translate(240.474 666)" fill="#fdc500"/>
    <path id="Path_3734" data-name="Path 3734" d="M-5.345,0c.218.327.218.327.177.566l-.068.2L-6,.873l.109-.218A2.914,2.914,0,0,1-5.455.545Z" transform="translate(212.546 736.583)" fill="#fdc500"/>
    <path id="Path_3735" data-name="Path 3735" d="M0,0H.436V.655H.109Z" transform="translate(166.182 708.219)" fill="#fdc500"/>
    <path id="Path_3736" data-name="Path 3736" d="M-1.782,0h.436l-.109.436V.218c-.254.1-.254.1-.436.436A2.043,2.043,0,0,1-2,.218Z" transform="translate(213.019 705.383)" fill="#fdc500"/>
    <path id="Path_3737" data-name="Path 3737" d="M-2.673,0l.327.109V.982h-.109V.327H-3Z" transform="translate(244.892 700.91)" fill="#fdc500"/>
    <path id="Path_3738" data-name="Path 3738" d="M-.919,0A4.08,4.08,0,0,1-.482.109L-.81.218V.873L-1.028.764q-.007-.327,0-.655Z" transform="translate(215.211 695.673)" fill="#fdc500"/>
    <path id="Path_3739" data-name="Path 3739" d="M0,0H.218L.436.873H0Z" transform="translate(247.02 681.164)" fill="#fdc500"/>
    <path id="Path_3740" data-name="Path 3740" d="M0,0H.982V.109H.436V.436H.109Z" transform="translate(218.546 779.238)" fill="#fdc500"/>
    <path id="Path_3741" data-name="Path 3741" d="M-3.564,0a.941.941,0,0,1,0,.764A1.858,1.858,0,0,1-4,.873,4.052,4.052,0,0,1-3.564,0Z" transform="translate(264.656 765.602)" fill="#fdc500"/>
    <path id="Path_3742" data-name="Path 3742" d="M-.891,0h.436c0,.327,0,.327-.164.511L-.782.655-1,.545Z" transform="translate(245.074 762.547)" fill="#fdc500"/>
    <path id="Path_3743" data-name="Path 3743" d="M-.891,0l.436.109V.436H-1Z" transform="translate(230.347 762.438)" fill="#fdc500"/>
    <path id="Path_3744" data-name="Path 3744" d="M-.919,0q.328.047.655.109L-.373.327H-.81l-.218.436q-.007-.327,0-.655Z" transform="translate(215.865 761.674)" fill="#fdc500"/>
    <path id="Path_3745" data-name="Path 3745" d="M-1.782,0h.109V1.091L-2,1.2Z" transform="translate(266.584 750.329)" fill="#fdc500"/>
    <path id="Path_3746" data-name="Path 3746" d="M-.891,0l.218.109V.545l.436.109H-1Z" transform="translate(230.783 736.038)" fill="#fdc500"/>
    <path id="Path_3747" data-name="Path 3747" d="M-.919,0H-.81L-.7.545l.327.109L-.482.873-1.028.655q-.007-.273,0-.545Z" transform="translate(256.12 706.037)" fill="#fdc500"/>
    <path id="Path_3748" data-name="Path 3748" d="M-4.455,0h.218V.545L-5,.764c.109-.218.109-.218.436-.327A1.4,1.4,0,0,0-4.455,0Z" transform="translate(240.238 666)" fill="#fdc500"/>
    <path id="Path_3749" data-name="Path 3749" d="M-1.782,0h.218l-.109.764L-2,.655Z" transform="translate(226.328 747.165)" fill="#fdc500"/>
    <path id="Path_3750" data-name="Path 3750" d="M-1.782,0a2.043,2.043,0,0,1,.436.109l-.218.545L-1.782.545V.327L-2,.218Z" transform="translate(231.238 736.038)" fill="#fdc500"/>
    <path id="Path_3751" data-name="Path 3751" d="M-1.865,0h.109V.764h-.327a3.637,3.637,0,0,1,0-.545Z" transform="translate(247.903 677.782)" fill="#fdc500"/>
    <path id="Path_3752" data-name="Path 3752" d="M-1.782,0a1.266,1.266,0,0,1,0,.873H-2V.109Z" transform="translate(223.492 669.164)" fill="#fdc500"/>
  </g>
</svg>
