<svg xmlns="http://www.w3.org/2000/svg" width="114.571" height="114.797" viewBox="0 0 114.571 114.797">
  <g id="Untitled-1_2_" data-name="Untitled-1 (2)" transform="translate(-541.725 -249.726)">
    <path id="Path_1737" data-name="Path 1737" d="M-415.57,0h3.48q1.248,0,2.5,0h3.452a58.6,58.6,0,0,1,6,.256V.477l.252,0c2.131-.019,2.131-.019,2.791.342a10.978,10.978,0,0,0,2.029.676v.225l1.014.113v.225l.231.017.3.026.3.024a2.12,2.12,0,0,1,.741.272l.282.056a2.6,2.6,0,0,1,.733.282q.341.147.683.289l.356.148q.322.13.651.239v.225l.676.113v.225l.38.042c.409.07.409.07.634.3a2.625,2.625,0,0,0,.451.113v.225h.338v.225l.3.035a3.558,3.558,0,0,1,1.057.416v.225l.789.113v.225L-384.7,6v.225l.564.113v.225h.338v.225l.218.077a13.429,13.429,0,0,1,1.36.711V7.8l.564.113v.225l.268.106a4.843,4.843,0,0,1,.521.232V8.7l.2.021c.353.127.483.36.7.655l.225.113v.225l.2.089a5.328,5.328,0,0,1,1.606,1.489l.31.246.254.2v.225l.338.113v.225l.19.085a3.915,3.915,0,0,1,1.275,1.155l.2.183c.141.155.141.155.141.493h.225a4.361,4.361,0,0,1,.352.493l.184.277a.64.64,0,0,1,.14.469l.338.113a4.9,4.9,0,0,1,.564,1.127h.225l.113.338.2.2a2.727,2.727,0,0,1,.486.669c.168.378.168.378.437.486v.338h.225c.338.494.338.494.338.789h.225l.113.676h.225v.338h.225l.113.676h.225l.113.676h.225v.338h.225l.113.676h.225c.338.747.338.747.338,1.127h.225l.451,1.352.127.363a2.225,2.225,0,0,1,.1.877h.225l.037.223a4.094,4.094,0,0,0,.364,1.242,3.685,3.685,0,0,1,.275,1.465H-367l.045.309.06.4.059.4a2.342,2.342,0,0,0,.173.692c.014.3,0,.6,0,.9h.225l.045.362.06.469.03.239a2.488,2.488,0,0,0,.2.846c.017.237.028.475.036.712,0,.142.01.283.014.429s.009.3.013.45.01.3.015.453q.018.555.035,1.111h.113v3.607l2.7.113v.225l.423.035a1.529,1.529,0,0,1,.93.416c.35.155.7.292,1.061.43.291.133.291.133.4.359l.338.113v.225l.451.113v.225l.451.113v.225l.2.092a5.782,5.782,0,0,1,.734.464l.241.172.181.173v.338h.225a1.318,1.318,0,0,1,.338.9h.225l.113.451h.225v.338l.225.113a3.016,3.016,0,0,1,.113.451h.225l.113.564h.225v.338h.225q.17.468.338.937l.1.268.092.259.086.238a1.345,1.345,0,0,1,.062.552h.225l.113.9h.225l.049.387c.02.38.02.38.176.514a19.553,19.553,0,0,1,.255,3.8q0,.309,0,.619,0,.833,0,1.665,0,.876,0,1.752,0,1.47,0,2.941,0,1.694,0,3.389,0,1.461,0,2.922,0,.87,0,1.74,0,.818,0,1.636,0,.3,0,.6a21.162,21.162,0,0,1-.255,3.509h-.225c0,.146,0,.293.007.444s0,.305-.007.458l-.113.113c-.061.279-.109.559-.158.84a2.7,2.7,0,0,1-.293.737h-.225l-.021.261a7.551,7.551,0,0,1-.655,1.655h-.225l-.028.317c-.1.418-.19.471-.535.7l-.113.338h-.225l-.092.275-.134.289-.338.113c-.08.186-.154.374-.225.564q-.187.278-.394.542l-.208.27-.187.2h-.225v.225c-.5.451-.5.451-.789.451v.225l-.451.113v.225c-.39.338-.39.338-.676.338v.225l-.676.113v.225l-.676.113v.225l-.317.045-.409.06-.408.06c-.318.025-.318.025-.444.173a22.714,22.714,0,0,1-2.751.181l-.32.013-.288.01a1.3,1.3,0,0,0-.586.134q-.264.011-.528.007l-.276,0-.21,0c0,.125,0,.249,0,.377q0,.693,0,1.386,0,.3,0,.6,0,.431,0,.862c0,.134,0,.134,0,.271a2.961,2.961,0,0,1-.125,1.012c-.016.29-.026.578-.032.868,0,.085,0,.17-.006.258q-.01.409-.018.818-.011.536-.025,1.072c0,.081,0,.162,0,.246a10.744,10.744,0,0,1-.14,1.471h-.225l-.042.345a8.836,8.836,0,0,1-.3,1.233h-.225l-.113,1.014h-.225v.564h-.225l-.113.564h-.225l-.038.192a3.474,3.474,0,0,1-.363.794l-.155.273-.119.206h-.225v.338h-.225l-.113.564h-.225l-.106.211-.232.465h-.225l-.113.338h-.225l-.113.451h-.225v.338c-.489.451-.489.451-.789.451v.225l-.451.113v.225l-.451.113v.225h-.338v.225a.932.932,0,0,1-.641.416l-.261.035v.225l-.451.113v.225q-.3.17-.6.338l-.337.19a.982.982,0,0,1-.642.148v.225l-.676.113v.225l-.676.113v.225l-.2.041-.267.057-.262.055c-.329.081-.643.188-.964.3a16.217,16.217,0,0,1-5.185.676v.113h-3.043v-.113l-1.8-.113v.338h-.225l-.035.43a1.216,1.216,0,0,1-.24.7.5.5,0,0,1-.4.113v.338h-.225l-.021.254a1.22,1.22,0,0,1-.655.761h-.225v.225c-.39.338-.39.338-.676.338v.225a.861.861,0,0,1-.338.338,7.3,7.3,0,0,1-.9.113v.225a2.578,2.578,0,0,1-1.184.254l-.374,0h-.838c-.39,0-.779,0-1.169,0-.409,0-.817,0-1.226,0h-2.061q-1.188,0-2.376,0h-2.045c-.406,0-.813,0-1.219,0q-.681,0-1.362,0h-.4a9.078,9.078,0,0,1-2.2-.256v-.225l-1.127-.113v-.225l-.19-.085a4.293,4.293,0,0,1-.824-.592v-.225l-.2-.021a1.343,1.343,0,0,1-.7-.655v-.338h-.225c-.338-.494-.338-.494-.338-.789h-.225l-.045-.243-.06-.314-.059-.313c-.035-.252-.035-.252-.173-.37-.011-.183-.013-.367-.013-.551,0-.117,0-.235,0-.356s0-.255,0-.387c0-.195,0-.195,0-.394q0-.625,0-1.251,0-.423,0-.846,0-1.039.006-2.078h.225l.113-.676h.225l.028-.24a2.574,2.574,0,0,1,1.1-1.451l.113-.225h.225l.106-.211.232-.465h.225v-.225l.9-.225v-.113a5.416,5.416,0,0,1,1.465-.113V100c1.337-.115,2.671-.134,4.012-.142l1.147-.009,2.842-.021,2.415-.019,1.131-.008.688-.006h.318l.29,0,.252,0a.594.594,0,0,0,.43-.128,2.956,2.956,0,0,1,1.822.408c.471.229.958.417,1.446.606v.225h.451a2.031,2.031,0,0,1,.331.423,2.979,2.979,0,0,0,.655.725,1.3,1.3,0,0,1,.479.768h.225l.113.564h.225l.225,1.014h7.777v-.225l1.465-.113v-.225l.789-.113v-.225l.7-.275.4-.155a5.923,5.923,0,0,1,.815-.247v-.225l.564-.113.113-.338h.225l.089-.2a2.4,2.4,0,0,1,.517-.637,9.353,9.353,0,0,0,.859-.965l.451-.451.113-.225h.225l.113-.451h.225l.106-.268a4.851,4.851,0,0,1,.233-.521h.225l.113-.451h.225l.113-1.352h.113a8.625,8.625,0,0,0,.352-1.909l.029-.3q.036-.361.069-.723h.113V90.867h-.113V87.6l-1.267.016-1.223.009-.846.009c-.407.006-.814.008-1.22.01l-.378.007a4.521,4.521,0,0,1-2.165-.5v-.225l-.211-.021c-.24-.092-.24-.092-.38-.38l-.085-.275h-.225l-.113-.564h-.225v-.451h-.225a16.051,16.051,0,0,1-.131-2.512q0-.246,0-.492,0-.674,0-1.348,0-.578,0-1.157-.006-1.9-.008-3.81,0-.5,0-.993-.005-3.086-.008-6.172,0-.714,0-1.428c0-.118,0-.237,0-.359q0-2.873-.012-5.746-.009-2.953-.01-5.907,0-1.657-.007-3.313-.006-1.411,0-2.823,0-.719,0-1.438c-.025-3.691-.025-3.691.758-5.219h.225l-.035-.261.035-.3a1.169,1.169,0,0,1,.789-.338v-.225l.564-.113v-.225a2.641,2.641,0,0,1,.979-.12l.339,0,.259,0q-.02-1.2-.042-2.4-.007-.409-.014-.818-.01-.586-.021-1.172c0-.123,0-.245-.006-.372s0-.226-.007-.342c0-.1,0-.2-.005-.3.007-.227.007-.227-.13-.34-.027-.285-.048-.567-.064-.852l-.015-.243q-.018-.3-.034-.6h-.113l-.113-1.352h-.225l-.041-.2a6.545,6.545,0,0,0-.409-1.376h-.113l-.033-.19a4.851,4.851,0,0,0-.552-1.531.855.855,0,0,1-.091-.533h-.225l-.113-.676h-.225c-.338-.747-.338-.747-.338-1.127h-.225l-.113-.789h-.225l-.113-.338-.225-.113v-.451l-.338-.113V24.37h-.225c-.163-.215-.317-.437-.465-.662l-.247-.372c-.189-.318-.189-.318-.189-.543h-.225v-.338h-.225q-.229-.279-.451-.564l-.225-.113v-.225l-.338-.113v-.225h-.225a1.92,1.92,0,0,1-.338-.338v-.225l-.338-.113v-.225l-.2-.035a1.032,1.032,0,0,1-.585-.416v-.225l-.176-.085c-.362-.186-.712-.389-1.064-.592v-.225l-.451-.113V18.4l-.254-.035a1.509,1.509,0,0,1-.761-.416v-.225l-.211-.106-.465-.232v-.225l-.564-.113v-.225l-.451-.113v-.225l-.564-.113v-.225l-.373-.035c-.416-.077-.416-.077-.57-.234a2.189,2.189,0,0,0-.832-.464l-.363-.146-.342-.136-.479-.2-.31-.134v-.225l-.676-.113v-.225l-1.127-.113V14a15.3,15.3,0,0,0-2.141-.451v-.225l-.272-.017a5.985,5.985,0,0,1-1.757-.321c-.262-.042-.525-.081-.789-.113v-.225h-14.088v.225l-.327,0q-.612.01-1.224.025l-.525.009a12.343,12.343,0,0,0-2.983.341,4.836,4.836,0,0,1-1.14.071v.225l-1.691.338v.225l-.789.113v.225l-.789.113v.225l-.592.225-.333.127a1.725,1.725,0,0,1-.766.1v.225l-.359.148a5.84,5.84,0,0,0-.747.38.624.624,0,0,1-.472.148v.225l-.564.113v.225l-.564.113v.225a4.987,4.987,0,0,1-.549.352l-.309.184a.728.728,0,0,1-.494.14v.225c-.761.451-.761.451-1.014.451v.225a4.563,4.563,0,0,1-.409.359,6.509,6.509,0,0,0-1.009,1.063.572.572,0,0,1-.4.213l-.213.056-.113.338h-.225v.225a1.919,1.919,0,0,1-.338.338h-.225v.225l-.24.176a5.761,5.761,0,0,0-1.2,1.634l-.141.218h-.225v.338h-.225l-.042.275-.07.289-.225.113-.113.338h-.225l-.106.268a4.835,4.835,0,0,1-.232.521h-.225v.338l-.225.113-.113.338h-.225l-.113.789h-.225l-.113.789h-.225l-.042.176c-.091.357-.194.71-.3,1.064h-.225l-.042.24a8.51,8.51,0,0,1-.3,1h-.225l-.113.9h-.225c0,.164,0,.164.007.331-.007.345-.007.345-.12.458-.045.246-.084.492-.12.74l-.06.409-.045.317h-.225l-.113,2.029h-.113l-.113,5.3h1.014l.338.113v.225l.564.113v.225h.225v.338h.225q.172.28.338.564l.225.113a2.171,2.171,0,0,1,.338,1.465h.225q.008,7.828.011,15.656,0,.923,0,1.847c0,.184,0,.184,0,.371q0,2.98,0,5.959,0,3.056,0,6.112,0,1.887,0,3.773,0,1.292,0,2.585,0,.747,0,1.493,0,.683,0,1.366,0,.248,0,.5c0,.224,0,.447,0,.671,0,.124,0,.249,0,.377a1.549,1.549,0,0,1-.253.77h-.225c-.009.125-.019.251-.028.38l-.085.409a1.689,1.689,0,0,1-.451.225l-.113.338h-.225v.225a1.117,1.117,0,0,1-.9.451c-.244.011-.489.016-.734.017l-.45,0h-.492l-.519,0-1.7,0h-.588l-2.765,0q-1.592,0-3.184.009-1.233.005-2.466.006-.735,0-1.47,0-.693,0-1.385,0l-.505,0a7.957,7.957,0,0,1-3.01-.506v-.225l-.9-.113v-.225l-.451-.113v-.225h-.225v-.225l-.19-.021a2.076,2.076,0,0,1-.824-.655l-.225-.113v-.225l-.451-.113v-.338h-.225l-.035-.218-.077-.232-.338-.113q-.174-.279-.338-.564c-.208-.221-.422-.425-.648-.627-.141-.162-.141-.162-.141-.5h-.225l-.113-.789h-.225v-.338h-.225l-.113-.9h-.225a8.718,8.718,0,0,1-.578-1.733,2.01,2.01,0,0,0-.324-.972q-.007-.282,0-.564h-.225a20.342,20.342,0,0,1-.255-3.687q0-.311,0-.623,0-.839,0-1.677,0-.882,0-1.764,0-1.48,0-2.96,0-1.706,0-3.412,0-1.47,0-2.941,0-.876,0-1.752,0-.824,0-1.647,0-.3,0-.6a18.751,18.751,0,0,1,.255-3.393h.225c0-.112-.009-.223-.014-.338a4.1,4.1,0,0,1,.182-1.135,8.27,8.27,0,0,0,.17-.894h.225l.042-.176c.091-.357.194-.71.3-1.064h.225l.113-.9h.225v-.451h.225l.113-.9h.225l.033-.194a2.176,2.176,0,0,1,.453-.764l.2-.257c.21-.247.433-.473.664-.7l.225-.282a8.839,8.839,0,0,1,.676-.733l.113-.225h.225v-.225l.451-.113v-.225l.564-.113v-.225l.451-.113v-.225l.563-.113v-.225a2.084,2.084,0,0,1,1.353-.338v-.225l1.24-.113v-.225l2.367-.113v-.676h.113c0-.12,0-.12.009-.243q.02-.544.041-1.088c0-.126.009-.252.013-.382l.014-.367c0-.112.008-.223.013-.338a1.784,1.784,0,0,1,.136-.625c.015-.166.025-.332.032-.5,0-.1.008-.194.013-.294.006-.152.006-.152.012-.306.073-1.848.073-1.848.282-2.057.04-.207.074-.415.106-.623l.059-.383.061-.4q.059-.393.12-.785l.053-.354c.052-.27.052-.27.165-.382.045-.284.085-.567.12-.852l.031-.243q.038-.3.075-.6h.225c0-.079-.009-.158-.014-.24a3.244,3.244,0,0,1,.24-1c.041-.187.079-.375.113-.564h.225l.017-.227a2.771,2.771,0,0,1,.321-1.464h.225l.113-1.127h.225l.042-.183c.084-.32.189-.631.3-.944h.225l.042-.31a2.362,2.362,0,0,1,.3-.817h.225l.113-.676h.225c.009-.126.019-.251.028-.38l.085-.409a3.364,3.364,0,0,1,.451-.225,1.672,1.672,0,0,0,.113-.564h.225v-.338h.225l.039-.2a2.756,2.756,0,0,1,.348-.734l.148-.241.141-.181h.225l.113-.564h.225l.113-.564h.225v-.338h.225l.113-.451h.225l.042-.2a3.326,3.326,0,0,1,.3-.7h.225l.092-.275.134-.289.338-.113.113-.338h.225l.091-.275.134-.289.338-.113q.117-.28.225-.564a3.934,3.934,0,0,1,.451-.564h.225l.085-.19a5.17,5.17,0,0,1,.592-.824l.225-.338h.225v-.225l.451-.113v-.225l.451-.113v-.225a4.036,4.036,0,0,1,.43-.331,4.5,4.5,0,0,0,.656-.536c.154-.147.154-.147.379-.147V9.493l.451-.113V9.155l.451-.113V8.817c.39-.338.39-.338.676-.338V8.253l.451-.113V7.915l.564-.113V7.577l.451-.113V7.239l.564-.113V6.9c.494-.338.494-.338.789-.338V6.337l.451-.113V6l.564-.113V5.661l.451-.113V5.323c1.578-.789,1.578-.789,1.84-.913a.925.925,0,0,0,.414-.327c.262-.045.525-.083.789-.113V3.745l.923-.437.263-.125c.427-.2.852-.4,1.294-.566V2.505l1.127-.113V2.167l1.127-.113V1.829l1.014-.113V1.491l.186-.037a8.495,8.495,0,0,0,2.068-.639c.3-.015.6,0,.9,0V.589a25.224,25.224,0,0,1,2.7-.113V.251A49.716,49.716,0,0,1-415.57,0Z" transform="translate(1010.081 249.731)" fill="#fdc500"/>
    <path id="Path_1738" data-name="Path 1738" d="M-7.986,0h.113q.008,7.72.012,15.441,0,.911,0,1.822v.366q0,2.939,0,5.877,0,3.014,0,6.028,0,1.861,0,3.721,0,1.275,0,2.55,0,.736,0,1.472,0,.674,0,1.347,0,.244,0,.488c0,.221,0,.441,0,.662v.372a1.552,1.552,0,0,1-.253.766h-.225l-.028.38-.085.409a1.351,1.351,0,0,1-.451.225L-9,42.152a2.889,2.889,0,0,1,.225-.676h.225l.113-.789h.225q.032-2.62.056-5.241l0-.422q.064-6.684.056-13.368c0-.124,0-.249,0-.377q0-3.781-.006-7.561,0-1.45,0-2.9,0-.845,0-1.689Q-8.117,4.562-7.986,0Z" transform="translate(578.707 294.389)" fill="#fdc500"/>
    <path id="Path_1739" data-name="Path 1739" d="M-35.925-.662h2.331q1.011,0,2.021,0h2.3q.518,0,1.037,0h.312c.706,0,.706,0,.957.256h-11.5v.225h-2.029C-39.629-1.041-37.05-.665-35.925-.662Z" transform="translate(631.835 262.787)" fill="#fdc500"/>
    <path id="Path_1740" data-name="Path 1740" d="M-6.675-.12l.317,0h.347l.365,0q.6,0,1.2,0h2.573q1.119,0,2.237,0,.858,0,1.716,0l.825,0q.576,0,1.151,0l.347,0,.316,0h.275l.22.042.225.338C4.564.262,4.564.262,4.311.135,4.152.125,3.993.121,3.834.122H2.849L1.7.124h-.8l-2.1,0-2.137,0-4.2.006A1.129,1.129,0,0,1-6.675-.12Z" transform="translate(600.335 262.132)" fill="#fdc500"/>
    <path id="Path_1741" data-name="Path 1741" d="M-11.673-.04h.243l.794,0h.551l1.45,0,1.48,0,2.9.006V.085h-6.875V.311h-2.029C-12.732-.112-12.248-.041-11.673-.04Z" transform="translate(604.502 262.295)" fill="#fdc500"/>
    <path id="Path_1742" data-name="Path 1742" d="M-7.986,0h.113q.008,1.047.012,2.094,0,.356,0,.712,0,.512.005,1.024l0,.322c0,.1,0,.2,0,.3l0,.264A1.651,1.651,0,0,1-8.1,5.41h-.225l-.028.38-.085.409a1.353,1.353,0,0,1-.451.225L-9,6.65a2.89,2.89,0,0,1,.225-.676h.225l.113-.789h.225l.009-.318q.016-.6.033-1.19.007-.256.014-.511C-8.127,2.107-8.08,1.055-7.986,0Z" transform="translate(578.707 329.891)" fill="#fdc500"/>
    <path id="Path_1743" data-name="Path 1743" d="M0,0H3.607c-.4.4-.485.381-1.029.383h-.41L1.74.38l-.429,0H.525L.225.338Z" transform="translate(620.424 359.758)" fill="#fdc500"/>
    <path id="Path_1744" data-name="Path 1744" d="M-3.549,0h.225l.113,3.607h-.225l-.225-.676L-4,3.043l.113-.451h.225Z" transform="translate(570.664 287.288)" fill="#fdc500"/>
    <path id="Path_1745" data-name="Path 1745" d="M0,0A7.721,7.721,0,0,1,1.352.789l.24.049c.211.063.211.063.352.3l.085.218h.789l-.007.268a.629.629,0,0,0,.12.521A6.9,6.9,0,0,1,2.141,1.8V1.578l-.451-.113V1.24L1.437,1.2A1.509,1.509,0,0,1,.676.789V.564L.465.458,0,.225Z" transform="translate(619.072 266.889)" fill="#fdc500"/>
    <path id="Path_1746" data-name="Path 1746" d="M0,0H.676V.225L2.141.338V.564L2.515.549a.969.969,0,0,1,.754.24v.225L1.578.676V.451L1.29.438.916.416.543.4.225.338Z" transform="translate(608.703 262.606)" fill="#fdc500"/>
    <path id="Path_1747" data-name="Path 1747" d="M-.028,0H.31V4.846H.2l-.009-.36Q.173,3.827.156,3.167.148,2.881.142,2.6q-.01-.41-.021-.82l-.006-.26A.951.951,0,0,0-.028.789Q-.035.395-.028,0Z" transform="translate(630.934 285.823)" fill="#fdc500"/>
    <path id="Path_1748" data-name="Path 1748" d="M-1.775,0l.493.049L-1,.077A1.037,1.037,0,0,1-.535.225L-.648.564a4.026,4.026,0,0,1-.683.19L-1.708.84-2,.9l.113-.564h.564Z" transform="translate(630.765 358.406)" fill="#fdc500"/>
    <path id="Path_1749" data-name="Path 1749" d="M0,0,1.352.451V.676l.317.042a1.294,1.294,0,0,1,.7.3V1.24A7.316,7.316,0,0,1,1.006.665,3.01,3.01,0,0,0,.338.451V.225H0Z" transform="translate(613.887 264.071)" fill="#fdc500"/>
    <path id="Path_1750" data-name="Path 1750" d="M-7.986,0h.113c.032.837.032.837-.225,1.24h-.225l-.028.38-.085.409a1.353,1.353,0,0,1-.451.225L-9,2.48A2.89,2.89,0,0,1-8.775,1.8h.225l.113-.789h.225l.049-.444C-8.112.127-8.112.127-7.986,0Z" transform="translate(578.707 334.061)" fill="#fdc500"/>
    <path id="Path_1751" data-name="Path 1751" d="M-15.971-.126l.225.338H-18V.1A6.346,6.346,0,0,1-15.971-.126Z" transform="translate(629.633 349.515)" fill="#fdc500"/>
    <path id="Path_1752" data-name="Path 1752" d="M-3.549,0l.225.113-.338.676h.225V.564h.225L-3.1.9l-.676.338V1.014H-4V.564h.225Z" transform="translate(576.299 271.509)" fill="#fdc500"/>
    <path id="Path_1753" data-name="Path 1753" d="M-1.775,0l.338.113V.338l.2.035A1.118,1.118,0,0,1-.648.789l-.113.225L-1.436.564-1.549.9-2,.789Z" transform="translate(630.652 258.097)" fill="#fdc500"/>
    <path id="Path_1754" data-name="Path 1754" d="M-7.1,0l.113.676-.225.113L-7.324.564l-.451.113v.338H-8V.451l.451-.113V.113A.678.678,0,0,1-7.1,0Z" transform="translate(554.827 292.586)" fill="#fdc500"/>
    <path id="Path_1755" data-name="Path 1755" d="M-6.95,0l.225.113-.451,1.24H-7.4l-.042.247a4.852,4.852,0,0,1-.3.881.893.893,0,0,1,.016-.824q.092-.209.188-.416l.094-.21C-7.285.682-7.123.339-6.95,0Z" transform="translate(576.544 277.596)" fill="#fdc500"/>
    <path id="Path_1756" data-name="Path 1756" d="M-5.324,0c.28.42.2.537.113,1.014l.113.338A.428.428,0,0,1-5.507,1.2.428.428,0,0,1-5.662.789L-6,.676l.113-.225.225.113V.338h.225Z" transform="translate(629.242 269.593)" fill="#fdc500"/>
    <path id="Path_1757" data-name="Path 1757" d="M-9.76,0a4.215,4.215,0,0,1,.451.113L-9.76.451l.113.225H-11c.338-.451.338-.451.747-.528l.38-.035Z" transform="translate(595.02 263.169)" fill="#fdc500"/>
    <path id="Path_1758" data-name="Path 1758" d="M-10.648,0l.338.113-.254.2A2.494,2.494,0,0,0-11.091.8,1.94,1.94,0,0,1-12,1.24V1.014h.225V.789l.451-.113V.451l.451-.113V.113Z" transform="translate(577.537 260.352)" fill="#fdc500"/>
    <path id="Path_1759" data-name="Path 1759" d="M-11.535,0l.113.225a1.864,1.864,0,0,1-1.465.338L-13,.225Z" transform="translate(639.511 353.672)" fill="#fdc500"/>
    <path id="Path_1760" data-name="Path 1760" d="M-6.211,0l.338.113a4.7,4.7,0,0,1-.338.451h-.225l-.225.564h-.225L-7,.789c.225-.338.225-.338.564-.451Z" transform="translate(659.095 332.258)" fill="#fdc500"/>
    <path id="Path_1761" data-name="Path 1761" d="M0,0C1.028.492,1.028.492,1.352.789v.225l.338.113-.225.113A7.181,7.181,0,0,1,.676.789V.564L.465.458,0,.225Z" transform="translate(619.072 266.889)" fill="#fdc500"/>
    <path id="Path_1762" data-name="Path 1762" d="M-2.662,0A3.548,3.548,0,0,1-2.1.564a1.337,1.337,0,0,1-.113.564h-.113V.564h-.225ZM-3,.225l.338.113L-2.549.9h-.225V.564H-3Z" transform="translate(620.156 360.66)" fill="#fdc500"/>
    <path id="Path_1763" data-name="Path 1763" d="M0,0A5.976,5.976,0,0,1,1.014.338V.564L.338.789.225.451,0,.338Z" transform="translate(612.084 250.321)" fill="#fdc500"/>
    <path id="Path_1764" data-name="Path 1764" d="M0,0,1.127.338,1.014.676A1.919,1.919,0,0,1,.564.789V.564H.338A1.92,1.92,0,0,1,0,.225Z" transform="translate(634.625 355.025)" fill="#fdc500"/>
    <path id="Path_1765" data-name="Path 1765" d="M-2.662,0h.338l.113.789h.225v.225h-.338L-2.366.8l-.07-.232L-2.662.451l-.113.338L-3,.676Z" transform="translate(657.8 300.024)" fill="#fdc500"/>
    <path id="Path_1766" data-name="Path 1766" d="M0,0,.451.113V.338l.564.113V.676H1.24V.9L.866.845A2.821,2.821,0,0,0,.113.789L.338.451,0,.225Z" transform="translate(568.242 290.67)" fill="#fdc500"/>
    <path id="Path_1767" data-name="Path 1767" d="M-.778,0h.225q.09.3.176.592l.1.333a1.2,1.2,0,0,1-.05.766L-.44,1.014H-.665C-.9.515-.9.515-.848.19Z" transform="translate(628.979 276.356)" fill="#fdc500"/>
    <path id="Path_1768" data-name="Path 1768" d="M-3.549-.085c.225.092.225.092.366.324L-3.1.457-3.436.344V.119h-.225l.225.564A1.922,1.922,0,0,1-3.887.457,1.507,1.507,0,0,1-4,.006.562.562,0,0,1-3.549-.085Z" transform="translate(638.625 264.966)" fill="#fdc500"/>
    <path id="Path_1769" data-name="Path 1769" d="M-.887,0H.24L.127.225A3.094,3.094,0,0,1-1,.338Z" transform="translate(626.947 359.533)" fill="#fdc500"/>
    <path id="Path_1770" data-name="Path 1770" d="M-.887,0H.127L-.324.225V.451L-.6.493l-.289.07L-1,.789V.338h.225Z" transform="translate(580.399 265.987)" fill="#fdc500"/>
    <path id="Path_1771" data-name="Path 1771" d="M-.887,0A1.22,1.22,0,0,1-.324.113,3.364,3.364,0,0,1,.014.789H-.211V.564L-.662.676-1,.113Zm.338.225L-.662.451h.225Z" transform="translate(570.03 291.571)" fill="#fdc500"/>
    <path id="Path_1772" data-name="Path 1772" d="M-6.211,0-6.1.451-6.549.338l-.113.676L-7,.789C-6.912.279-6.754,0-6.211,0Z" transform="translate(571.86 261.704)" fill="#fdc500"/>
    <path id="Path_1773" data-name="Path 1773" d="M-.887,0A1.522,1.522,0,0,1-.211,1.127H-.436C-.775.633-.775.633-.775.338H-1Z" transform="translate(636.978 265.649)" fill="#fdc500"/>
    <path id="Path_1774" data-name="Path 1774" d="M-1.775,0h1.24A2.542,2.542,0,0,1-2,.338l.225-.113Z" transform="translate(592.557 262.268)" fill="#fdc500"/>
    <path id="Path_1775" data-name="Path 1775" d="M-9.76,0h.225V.338h-.338V.564L-11,.789c.16-.319.354-.34.683-.465L-10,.2-9.76.113Z" transform="translate(589.272 252.237)" fill="#fdc500"/>
    <path id="Path_1776" data-name="Path 1776" d="M0,0H.338L.38.218l.07.232L.676.564H.451L.338.9A1.9,1.9,0,0,1,0,0Z" transform="translate(545.813 333.723)" fill="#fdc500"/>
    <path id="Path_1777" data-name="Path 1777" d="M0,0,.486.155.759.242a2.014,2.014,0,0,1,.593.321L.338.451V.225H0Z" transform="translate(613.887 264.071)" fill="#fdc500"/>
    <path id="Path_1778" data-name="Path 1778" d="M-5.324,0V.225h-.338l.113.564A3.134,3.134,0,0,1-6,.451V.113A1.429,1.429,0,0,1-5.324,0Z" transform="translate(635.554 352.771)" fill="#fdc500"/>
    <path id="Path_1779" data-name="Path 1779" d="M-.887,0A.428.428,0,0,1-.479.155.428.428,0,0,1-.324.564H-.662V.789H-1V.451L-.775.338Z" transform="translate(617.142 350.629)" fill="#fdc500"/>
    <path id="Path_1780" data-name="Path 1780" d="M-1.775,0h.225l.113.451L-1.775.338l.225.338-.113.338A1.641,1.641,0,0,1-2,.564,2.048,2.048,0,0,1-1.775,0Z" transform="translate(654.658 295.403)" fill="#fdc500"/>
    <path id="Path_1781" data-name="Path 1781" d="M0,0H.9V.451L0,.225Z" transform="translate(618.508 266.55)" fill="#fdc500"/>
    <path id="Path_1782" data-name="Path 1782" d="M-9.76,0l.113.225a1.013,1.013,0,0,1-.9.338c.143-.286.278-.321.564-.451Zm-1.014.564h.225L-10.662.9-11,.789Z" transform="translate(591.639 264.522)" fill="#fdc500"/>
    <path id="Path_1783" data-name="Path 1783" d="M-4.436,0l.225.451L-5,1.014l.225-.564h.225Z" transform="translate(639.287 347.699)" fill="#fdc500"/>
    <path id="Path_1784" data-name="Path 1784" d="M-.887-.125a2.509,2.509,0,0,1,.564,0L-.1.213-.549.439V.213L-1,.1Z" transform="translate(579.385 266.675)" fill="#fdc500"/>
    <path id="Path_1785" data-name="Path 1785" d="M-7.986,0V.338L-9,.451c.113-.225.113-.225.38-.352A1.338,1.338,0,0,1-7.986,0Z" transform="translate(593.359 250.546)" fill="#fdc500"/>
    <path id="Path_1786" data-name="Path 1786" d="M-1.775,0a4.215,4.215,0,0,1,.451.113l-.113.338h-.225V.225L-1.887.113ZM-2,.451a1.919,1.919,0,0,1,.451.113L-1.436.9h-.225A4.7,4.7,0,0,1-2,.451Z" transform="translate(548.94 334.738)" fill="#fdc500"/>
    <path id="Path_1787" data-name="Path 1787" d="M-1.872,0h.113V1.014H-2.1C-2.125.38-2.125.38-1.872,0Z" transform="translate(555.912 289.655)" fill="#fdc500"/>
    <path id="Path_1788" data-name="Path 1788" d="M-.887,0h.225A.828.828,0,0,1-.436.676H-.662A.828.828,0,0,1-.887,0ZM-1,.564l.338.113L-1,.789Z" transform="translate(636.865 265.987)" fill="#fdc500"/>
    <path id="Path_1789" data-name="Path 1789" d="M0,0H.338A6.746,6.746,0,0,1,.564.9H.338L.225.451H0Z" transform="translate(627.412 334.963)" fill="#fdc500"/>
    <path id="Path_1790" data-name="Path 1790" d="M-.166,0H.059A2,2,0,0,1,.172,1.014,1.06,1.06,0,0,1-.187.254Z" transform="translate(630.847 284.358)" fill="#fdc500"/>
    <path id="Path_1791" data-name="Path 1791" d="M-7.986-.7l-.451.113v.225L-9-.245c.113-.338.113-.338.38-.479A.722.722,0,0,1-7.986-.7Z" transform="translate(592.344 264.88)" fill="#fdc500"/>
    <path id="Path_1792" data-name="Path 1792" d="M-4.436,0l.225.113-.113.451L-5,.676V.451l.218-.1C-4.532.245-4.532.245-4.436,0Z" transform="translate(583.16 265.987)" fill="#fdc500"/>
  </g>
</svg>
