<svg xmlns="http://www.w3.org/2000/svg" width="22.737" height="22.739" viewBox="0 0 22.737 22.739">
  <g id="speech-bubble-1" transform="translate(-0.018 0)">
    <g id="Group_236" data-name="Group 236" transform="translate(0.018 0)">
      <g id="Group_235" data-name="Group 235" transform="translate(0 0)">
        <path id="Path_159" data-name="Path 159" d="M.884,20.278a1.207,1.207,0,0,0,.348,2.275,5.921,5.921,0,0,0,.924.07A7.182,7.182,0,0,0,6.09,21.43a11.368,11.368,0,0,0,13.336-18.1,11.369,11.369,0,0,0-16.9,15.161A3.9,3.9,0,0,1,.884,20.278ZM4.474,4.453A9.778,9.778,0,1,1,18.3,18.281,9.785,9.785,0,0,1,6.438,19.8a.792.792,0,0,0-.892.056,5.567,5.567,0,0,1-2.939,1.152A6.657,6.657,0,0,0,4.2,18.69a.785.785,0,0,0-.135-.845A9.789,9.789,0,0,1,4.474,4.453Z" transform="translate(-0.018 0)" fill="#fff"/>
        <path id="Path_160" data-name="Path 160" d="M127.082,229.193H136.5a.8.8,0,1,0,0-1.593h-9.417a.8.8,0,1,0,0,1.593Z" transform="translate(-120.42 -217.031)" fill="#fff"/>
        <path id="Path_161" data-name="Path 161" d="M127.082,159.7H136.5a.8.8,0,1,0,0-1.6h-9.417a.8.8,0,1,0,0,1.6Z" transform="translate(-120.42 -150.759)" fill="#fff"/>
        <path id="Path_162" data-name="Path 162" d="M127.082,298.693H136.5a.8.8,0,1,0,0-1.593h-9.417a.8.8,0,1,0,0,1.593Z" transform="translate(-120.42 -283.304)" fill="#fff"/>
      </g>
    </g>
  </g>
</svg>
