<svg xmlns="http://www.w3.org/2000/svg" width="24.66" height="23.306" viewBox="0 0 24.66 23.306">
  <path id="Path_60" data-name="Path 60" d="M12.328,25.021a6.594,6.594,0,0,0,1.758-.253c.569,1.126,2.282,2.826,7.331,4.076,1.481.372,1.572,2.207,1.5,3.268a.857.857,0,0,0,.8.907h.06a.858.858,0,0,0,.862-.788c.191-2.707-.826-4.542-2.8-5.038-4.61-1.14-5.855-2.554-6.187-3.174a5.2,5.2,0,0,0,.9-.8c2.3-2.549,1.925-6.9,1.879-7.334-.267-5.653-4.767-6.154-6.142-6.174h-.1c-2.837.03-5.935,1.671-6.157,6.174-.045.431-.418,4.785,1.879,7.334a5.375,5.375,0,0,0,1.043.9c-.408.645-1.758,2-6.127,3.074-1.97.491-2.993,2.331-2.8,5.033a.858.858,0,0,0,.862.788h.06a.857.857,0,0,0,.8-.907c-.076-1.061.02-2.9,1.5-3.268,4.908-1.21,6.676-2.861,7.3-4.026a6.736,6.736,0,0,0,1.587.208Zm-.126-1.7a3.89,3.89,0,0,1-3-1.225c-1.859-2.058-1.456-6.015-1.456-6.054,0-.02.005-.035.005-.055.181-3.937,2.867-4.557,4.454-4.572h.055c1.582.02,4.268.645,4.449,4.572a.166.166,0,0,0,.005.05c.005.04.408,4-1.456,6.054a3.866,3.866,0,0,1-3,1.225H12.2v0Z" transform="translate(0 -9.714)" fill="#fff"/>
</svg>
