<svg id="Group_813" data-name="Group 813" xmlns="http://www.w3.org/2000/svg" width="20.97" height="22.347" viewBox="0 0 20.97 22.347">
  <g id="Group_812" data-name="Group 812">
    <g id="fingerprint" transform="translate(0 1.754)">
      <path id="Path_395" data-name="Path 395" d="M17.966,4.132a.637.637,0,0,1-.433-.168,10.083,10.083,0,0,0-13.686,0,.644.644,0,1,1-.867-.952,11.371,11.371,0,0,1,15.421,0,.643.643,0,0,1-.434,1.119Z" transform="translate(-1.68 0)" fill="#ababab"/>
      <path id="Path_396" data-name="Path 396" d="M18.875,8.754a.641.641,0,0,1-.535-.285,9.458,9.458,0,0,0-7.831-4.248A9.458,9.458,0,0,0,2.678,8.469a.644.644,0,1,1-1.069-.717,10.744,10.744,0,0,1,8.9-4.817,10.742,10.742,0,0,1,8.9,4.818.642.642,0,0,1-.535,1Z" transform="translate(-1.5 -0.417)" fill="#ababab"/>
      <path id="Path_397" data-name="Path 397" d="M8.987,21.843a.643.643,0,0,1-.457-.19c-.141-.142-3.438-3.508-3.438-6.749a6.022,6.022,0,0,1,5.928-6.1,6.022,6.022,0,0,1,5.928,6.1.644.644,0,1,1-1.287,0,4.734,4.734,0,0,0-4.641-4.813A4.734,4.734,0,0,0,6.378,14.9c0,2.717,3.035,5.812,3.066,5.842a.644.644,0,0,1-.457,1.1Z" transform="translate(-2.009 -1.25)" fill="#ababab"/>
      <path id="Path_398" data-name="Path 398" d="M12.648,21.426c-1.548,0-5.136-2.945-5.484-6.224A4.161,4.161,0,0,1,8.15,12.03,3.282,3.282,0,0,1,10.6,10.907h.018a3.426,3.426,0,0,1,2.428,1.009,3.6,3.6,0,0,1,1.061,2.572v.42a1.8,1.8,0,1,0,3.591,0v-.147a7.394,7.394,0,0,0-6.609-7.588A6.891,6.891,0,0,0,5.872,9.046a7.517,7.517,0,0,0-.712,10.112.644.644,0,0,1-1.006.8A8.8,8.8,0,0,1,4.991,8.106a8.164,8.164,0,0,1,6.18-2.218,8.683,8.683,0,0,1,7.811,8.872v.147a3.084,3.084,0,1,1-6.165,0v-.42a2.321,2.321,0,0,0-.681-1.659,2.144,2.144,0,0,0-1.52-.635H10.6a1.991,1.991,0,0,0-1.495.7,2.854,2.854,0,0,0-.666,2.179c.284,2.675,3.358,5.074,4.2,5.074a.643.643,0,1,1,0,1.286Z" transform="translate(-1.606 -0.833)" fill="#ababab"/>
      <path id="Path_399" data-name="Path 399" d="M16.306,21.417c-2.3,0-5.115-2.814-5.115-6.1a.644.644,0,0,1,1.287,0c0,2.547,2.141,4.813,3.828,4.813a.644.644,0,0,1,0,1.287Z" transform="translate(-2.875 -2.083)" fill="#ababab"/>
    </g>
    <g id="Group_651" data-name="Group 651" transform="translate(9.009)">
      <path id="Path_224" data-name="Path 224" d="M201.581,195.6h-3.22v-3.22a1.38,1.38,0,1,0-2.76,0v3.22h-3.22a1.38,1.38,0,1,0,0,2.76h3.22v3.22a1.38,1.38,0,0,0,2.76,0v-3.22h3.22a1.38,1.38,0,0,0,0-2.76Z" transform="translate(-191 -191)" fill="#0984e3"/>
      <path id="Path_225" data-name="Path 225" d="M260.6,195.6h-3.22v-3.22A1.38,1.38,0,0,0,256,191v11.961a1.38,1.38,0,0,0,1.38-1.38v-3.22h3.22a1.38,1.38,0,1,0,0-2.76Z" transform="translate(-250.021 -191)" fill="#74b9ff"/>
    </g>
  </g>
</svg>
