<svg id="edit-tree" xmlns="http://www.w3.org/2000/svg" width="10.065" height="10.062" viewBox="0 0 10.065 10.062">
  <path id="Path_88" data-name="Path 88" d="M82.564,147.477l-4.738,4.74a.352.352,0,1,0,.5.5l4.738-4.738a.353.353,0,0,0,0-.5A.349.349,0,0,0,82.564,147.477Z" transform="translate(-76.128 -144.35)" fill="#00d3ff"/>
  <path id="Path_89" data-name="Path 89" d="M301.148,4.025a.351.351,0,0,0,.248-.1l.517-.517a1.53,1.53,0,0,0,0-2.164l-.706-.706a1.532,1.532,0,0,0-2.164,0l-.517.517a.353.353,0,0,0,0,.5L300.9,3.924A.358.358,0,0,0,301.148,4.025Zm-1.605-3a.828.828,0,0,1,1.17,0l.706.706a.826.826,0,0,1,0,1.168l-.271.271L299.271,1.3Z" transform="translate(-292.296 -0.087)" fill="#00d3ff"/>
  <path id="Path_90" data-name="Path 90" d="M3.343,97.315l5-5a.353.353,0,0,0-.5-.5L2.93,96.734l-2.168.292.292-2.168,4.693-4.693a.353.353,0,0,0-.5-.5L.473,94.444a.349.349,0,0,0-.1.2L0,97.388a.352.352,0,0,0,.349.4.365.365,0,0,0,.047,0l2.743-.37A.329.329,0,0,0,3.343,97.315Z" transform="translate(0 -87.725)" fill="#00d3ff"/>
</svg>
