<svg id="Group_814" data-name="Group 814" xmlns="http://www.w3.org/2000/svg" width="22.363" height="22.338" viewBox="0 0 22.363 22.338">
  <g id="Group_811" data-name="Group 811">
    <g id="fingerprint" transform="translate(12.374 10.922)">
      <path id="Path_395" data-name="Path 395" d="M3.126,2.291a.353.353,0,0,0,.24-.093,5.589,5.589,0,0,1,7.587,0,.357.357,0,0,0,.481-.528,6.3,6.3,0,0,0-8.549,0,.357.357,0,0,0,.241.62Z" transform="translate(-2.165 0)" fill="#ababab"/>
      <path id="Path_396" data-name="Path 396" d="M1.857,6.161A.355.355,0,0,0,2.153,6,5.243,5.243,0,0,1,6.494,3.648,5.243,5.243,0,0,1,10.836,6a.357.357,0,1,0,.593-.4,5.956,5.956,0,0,0-4.934-2.67A5.955,5.955,0,0,0,1.56,5.606a.356.356,0,0,0,.3.555Z" transform="translate(-1.5 -1.539)" fill="#ababab"/>
      <path id="Path_397" data-name="Path 397" d="M9.5,16.032a.356.356,0,0,0,.254-.106c.078-.078,1.906-1.945,1.906-3.741A3.339,3.339,0,0,0,8.377,8.8a3.339,3.339,0,0,0-3.286,3.382.357.357,0,1,0,.713,0A2.625,2.625,0,0,1,8.377,9.518a2.625,2.625,0,0,1,2.573,2.668c0,1.506-1.682,3.222-1.7,3.239a.357.357,0,0,0,.254.608Z" transform="translate(-3.383 -4.616)" fill="#ababab"/>
      <path id="Path_398" data-name="Path 398" d="M5.759,14.493c.858,0,2.847-1.632,3.04-3.45a2.307,2.307,0,0,0-.547-1.759A1.819,1.819,0,0,0,6.9,8.662h-.01a1.9,1.9,0,0,0-1.346.559,1.994,1.994,0,0,0-.588,1.426v.233a1.019,1.019,0,0,1-1,1.039,1.019,1.019,0,0,1-1-1.039V10.8A4.1,4.1,0,0,1,6.625,6.592,3.82,3.82,0,0,1,9.516,7.63a4.167,4.167,0,0,1,.395,5.606.357.357,0,0,0,.558.445A4.881,4.881,0,0,0,10,7.109a4.526,4.526,0,0,0-3.426-1.23A4.814,4.814,0,0,0,2.248,10.8v.081a1.733,1.733,0,0,0,1.709,1.753,1.733,1.733,0,0,0,1.709-1.753v-.233a1.287,1.287,0,0,1,.378-.92,1.188,1.188,0,0,1,.843-.352h.007a1.1,1.1,0,0,1,.829.385,1.582,1.582,0,0,1,.369,1.208A3.848,3.848,0,0,1,5.76,13.78a.357.357,0,0,0,0,.713Z" transform="translate(-1.891 -3.077)" fill="#ababab"/>
      <path id="Path_399" data-name="Path 399" d="M11.548,18.412c1.277,0,2.835-1.56,2.835-3.382a.357.357,0,1,0-.713,0A2.682,2.682,0,0,1,11.548,17.7a.357.357,0,0,0,0,.714Z" transform="translate(-9.004 -7.694)" fill="#ababab"/>
    </g>
    <g id="fingerprint-2" data-name="fingerprint">
      <path id="Path_395-2" data-name="Path 395" d="M3.126,2.291a.353.353,0,0,0,.24-.093,5.589,5.589,0,0,1,7.587,0,.357.357,0,0,0,.481-.528,6.3,6.3,0,0,0-8.549,0,.357.357,0,0,0,.241.62Z" transform="translate(-2.165 0)" fill="#6ebafc"/>
      <path id="Path_396-2" data-name="Path 396" d="M1.857,6.161A.355.355,0,0,0,2.153,6,5.243,5.243,0,0,1,6.494,3.648,5.243,5.243,0,0,1,10.836,6a.357.357,0,1,0,.593-.4,5.956,5.956,0,0,0-4.934-2.67A5.955,5.955,0,0,0,1.56,5.606a.356.356,0,0,0,.3.555Z" transform="translate(-1.5 -1.539)" fill="#6ebafc"/>
      <path id="Path_397-2" data-name="Path 397" d="M9.5,16.032a.356.356,0,0,0,.254-.106c.078-.078,1.906-1.945,1.906-3.741A3.339,3.339,0,0,0,8.377,8.8a3.339,3.339,0,0,0-3.286,3.382.357.357,0,1,0,.713,0A2.625,2.625,0,0,1,8.377,9.518a2.625,2.625,0,0,1,2.573,2.668c0,1.506-1.682,3.222-1.7,3.239a.357.357,0,0,0,.254.608Z" transform="translate(-3.383 -4.616)" fill="#6ebafc"/>
      <path id="Path_398-2" data-name="Path 398" d="M5.759,14.493c.858,0,2.847-1.632,3.04-3.45a2.307,2.307,0,0,0-.547-1.759A1.819,1.819,0,0,0,6.9,8.662h-.01a1.9,1.9,0,0,0-1.346.559,1.994,1.994,0,0,0-.588,1.426v.233a1.019,1.019,0,0,1-1,1.039,1.019,1.019,0,0,1-1-1.039V10.8A4.1,4.1,0,0,1,6.625,6.592,3.82,3.82,0,0,1,9.516,7.63a4.167,4.167,0,0,1,.395,5.606.357.357,0,0,0,.558.445A4.881,4.881,0,0,0,10,7.109a4.526,4.526,0,0,0-3.426-1.23A4.814,4.814,0,0,0,2.248,10.8v.081a1.733,1.733,0,0,0,1.709,1.753,1.733,1.733,0,0,0,1.709-1.753v-.233a1.287,1.287,0,0,1,.378-.92,1.188,1.188,0,0,1,.843-.352h.007a1.1,1.1,0,0,1,.829.385,1.582,1.582,0,0,1,.369,1.208A3.848,3.848,0,0,1,5.76,13.78a.357.357,0,0,0,0,.713Z" transform="translate(-1.891 -3.077)" fill="#6ebafc"/>
      <path id="Path_399-2" data-name="Path 399" d="M11.548,18.412c1.277,0,2.835-1.56,2.835-3.382a.357.357,0,1,0-.713,0A2.682,2.682,0,0,1,11.548,17.7a.357.357,0,0,0,0,.714Z" transform="translate(-9.004 -7.694)" fill="#6ebafc"/>
    </g>
    <path id="Path_501" data-name="Path 501" d="M.394,1.212a4.6,4.6,0,0,1,.892,2.555H.662A.511.511,0,0,0,.3,4.641L2.153,6.482a.513.513,0,0,0,.721,0L4.726,4.641a.511.511,0,0,0-.361-.874h-.63a5,5,0,0,0-.686-1.995.5.5,0,0,0-.535-.335.38.38,0,0,0-.289.453c.048.218.921,1.532.753,2.027v.23a.38.38,0,0,0,.38.38h.406L2.514,5.769,1.264,4.526H1.67a.38.38,0,0,0,.38-.38v-.2a5.354,5.354,0,0,0-.781-2.8,3.064,3.064,0,0,1,.983.773c.614,1.152.375.181.535.046a.38.38,0,0,0,.046-.535A3.821,3.821,0,0,0,1.559.451L.728.05A.508.508,0,0,0,.1.808Z" transform="matrix(0.848, -0.53, 0.53, 0.848, 10.484, 5.299)" fill="rgba(0,0,0,0.6)"/>
  </g>
</svg>
