<svg xmlns="http://www.w3.org/2000/svg" width="32" height="32" viewBox="0 0 32 32">
  <g id="Group_1000" data-name="Group 1000" transform="translate(-1428 -659)">
    <rect id="Rectangle_737" data-name="Rectangle 737" width="32" height="32" rx="4" transform="translate(1428 659)" fill="rgba(255,255,255,0)"/>
    <g id="Layer_x0020_1" transform="translate(1433.99 664.99)">
      <g id="_2526855808640" transform="translate(0.01 0.01)">
        <path id="Path_232" data-name="Path 232" d="M33.964,7.919a.628.628,0,0,1-.44-.182L28.809,3.021a.623.623,0,0,1,0-.884L30.027.911A3.048,3.048,0,0,1,32.2.01h.008A3.009,3.009,0,0,1,34.37.915l1.256,1.256a3.068,3.068,0,0,1,0,4.343L34.408,7.737a.624.624,0,0,1-.444.186h0Z" transform="translate(-16.523 -0.01)" fill="#f44336"/>
        <path id="Path_233" data-name="Path 233" d="M.631,37.556a.61.61,0,0,1-.44-.182.618.618,0,0,1-.169-.562L1.2,30.92a.635.635,0,0,1,.431-.478.614.614,0,0,1,.622.156l4.716,4.716a.623.623,0,0,1-.321,1.053L.754,37.543a.636.636,0,0,1-.123.013Z" transform="translate(-0.01 -17.556)" fill="#ffe082"/>
        <path id="Path_234" data-name="Path 234" d="M8.784,21.269l10.924-10.92a.623.623,0,0,1,.884,0l2.859,2.741L12.024,24.513,8.78,21.269Z" transform="translate(-5.071 -5.87)" fill="#ffb300"/>
        <path id="Path_235" data-name="Path 235" d="M6.01,18.144l-2.8-2.8L14.578,3.98l2.8,2.8Z" transform="translate(-1.856 -2.301)" fill="#ffc107"/>
      </g>
    </g>
  </g>
</svg>
