<svg xmlns="http://www.w3.org/2000/svg" xmlns:xlink="http://www.w3.org/1999/xlink" width="25" height="25" viewBox="0 0 25 25">
  <defs>
    <clipPath id="clip-path">
      <rect width="25" height="25" fill="none"/>
    </clipPath>
    <linearGradient id="linear-gradient" x1="0.5" x2="0.5" y2="1" gradientUnits="objectBoundingBox">
      <stop offset="0" stop-color="#4ba9ef"/>
      <stop offset="1" stop-color="#1a3d82"/>
    </linearGradient>
  </defs>
  <g id="Scroll_Group_1" data-name="Scroll Group 1" clip-path="url(#clip-path)" style="isolation: isolate">
    <g id="Group_857" data-name="Group 857">
      <g id="Rectangle_490" data-name="Rectangle 490" transform="translate(0 0)" fill="#fff" stroke="#dbdbdb" stroke-width="0.3">
        <rect width="25" height="25" rx="4" stroke="none"/>
        <rect x="0.15" y="0.15" width="24.7" height="24.7" rx="3.85" fill="none"/>
      </g>
      <g id="Group_796" data-name="Group 796" transform="translate(6.79 4.5)">
        <path id="Path_559" data-name="Path 559" d="M77.729,27.49l-.216.216a.648.648,0,0,0,.162-.27Z" transform="translate(-75.779 -6.206)" fill="#4ba9ef"/>
        <path id="Path_560" data-name="Path 560" d="M77.729,27.49l-.216.216a.648.648,0,0,0,.162-.27Z" transform="translate(-75.779 -6.206)" fill="#4ba9ef"/>
        <path id="Path_561" data-name="Path 561" d="M20.567,9.911,19.04,8.385a.491.491,0,0,0-.695,0L16.965,9.766l-.361.361V7.113a.492.492,0,0,0-.49-.49H5.49a.491.491,0,0,0-.49.49V21.276a.491.491,0,0,0,.49.49H16.113a.492.492,0,0,0,.49-.49V14.567L20.567,10.6A.49.49,0,0,0,20.567,9.911ZM15.623,20.786H5.981V7.6h9.642v3.5l-2.756,2.755H7.775a.327.327,0,0,0,0,.654h4.439l-.587.587a.491.491,0,0,0-.1.154l-.279.654H7.775a.327.327,0,1,0,0,.654h3.188l-.583,1.363a.384.384,0,0,0-.013.039H7.775a.327.327,0,1,0,0,.654H10.8a.3.3,0,0,0,.095-.015h0a.494.494,0,0,0,.126-.034l2.669-1.144a.486.486,0,0,0,.154-.1l1.776-1.776v5.238ZM12.8,16.741l-1.039.446.446-1.039Zm2.965-2.723L13.384,16.4l-.832-.832,3.908-3.909.9-.9.832.832Zm2.888-2.888-.834-.834-.163.163a.49.49,0,0,0,.123-.2l.041.041.871-.873.834.834Z" transform="translate(-5 -6.623)" fill="url(#linear-gradient)"/>
        <path id="Path_562" data-name="Path 562" d="M25.4,25.3H19.351a.327.327,0,1,1,0-.654H25.4a.327.327,0,1,1,0,.654Z" transform="translate(-16.576 -21.498)" fill="#27d8f6"/>
        <path id="Path_563" data-name="Path 563" d="M25.4,37.026H19.351a.327.327,0,1,1,0-.654H25.4a.327.327,0,1,1,0,.654Z" transform="translate(-16.576 -31.179)" fill="#27d8f6"/>
      </g>
    </g>
  </g>
</svg>
