<svg id="_2526855809936" xmlns="http://www.w3.org/2000/svg" width="13.237" height="13.266" viewBox="0 0 13.237 13.266">
  <path id="Path_314" data-name="Path 314" d="M17.189,0H12.423A1.946,1.946,0,0,0,10.48,1.943V3.731a.389.389,0,0,0,.389.389h7.875a.389.389,0,0,0,.389-.389V1.943A1.946,1.946,0,0,0,17.191,0h0Z" transform="translate(-8.2)" fill="#27d8f6"/>
  <path id="Path_315" data-name="Path 315" d="M32.744,0H30.36V4.12H34.3a.389.389,0,0,0,.389-.389V1.943A1.946,1.946,0,0,0,32.744,0h0Z" transform="translate(-23.755)" fill="#3aaaff"/>
  <path id="Path_316" data-name="Path 316" d="M11.295,15.36H1.943A1.946,1.946,0,0,0,0,17.3v3.109a1.946,1.946,0,0,0,1.943,1.943h9.352a1.946,1.946,0,0,0,1.943-1.943V17.3a1.946,1.946,0,0,0-1.943-1.943Z" transform="translate(0 -12.019)" fill="#6c6c6c"/>
  <path id="Path_317" data-name="Path 317" d="M35.058,15.36H30.37v6.994h4.688A1.946,1.946,0,0,0,37,20.411V17.3a1.946,1.946,0,0,0-1.943-1.943Z" transform="translate(-23.763 -12.019)" fill="#404040"/>
  <path id="Path_318" data-name="Path 318" d="M18.744,34.42H10.869a.389.389,0,0,0-.389.389v4.222A1.167,1.167,0,0,0,11.646,40.2h6.322a1.167,1.167,0,0,0,1.166-1.166V34.809a.389.389,0,0,0-.389-.389Z" transform="translate(-8.2 -26.932)" fill="#f5f0eb"/>
  <path id="Path_319" data-name="Path 319" d="M34.307,34.42H30.37V40.2h3.161A1.167,1.167,0,0,0,34.7,39.032V34.809a.389.389,0,0,0-.389-.389Z" transform="translate(-23.763 -26.932)" fill="#dad0cb"/>
  <path id="Path_320" data-name="Path 320" d="M17.129,35.189H8.009a.389.389,0,0,1,0-.779h9.119a.389.389,0,1,1,0,.779Z" transform="translate(-5.962 -26.924)" fill="#27d8f6"/>
  <path id="Path_321" data-name="Path 321" d="M34.93,34.412H30.37v.777h4.56a.389.389,0,1,0,0-.779h0Z" transform="translate(-23.763 -26.924)" fill="#3aaaff"/>
  <path id="Path_322" data-name="Path 322" d="M9.244,22.98H8a.389.389,0,0,0,0,.779H9.244a.389.389,0,0,0,0-.779Z" transform="translate(-5.955 -17.981)" fill="#27d8f6"/>
</svg>
