<svg xmlns="http://www.w3.org/2000/svg" width="25" height="25" viewBox="0 0 25 25">
  <g id="Group_853" data-name="Group 853" transform="translate(-1512 -167)">
    <g id="Rectangle_563" data-name="Rectangle 563" transform="translate(1512 167)" fill="#fff" stroke="#dbdbdb" stroke-width="0.3">
      <rect width="25" height="25" rx="4" stroke="none"/>
      <rect x="0.15" y="0.15" width="24.7" height="24.7" rx="3.85" fill="none"/>
    </g>
    <path id="Path_434" data-name="Path 434" d="M13.526,2.249,11.394.117A.4.4,0,0,0,11.112,0H.4A.4.4,0,0,0,0,.4V13.244a.4.4,0,0,0,.4.4H13.244a.4.4,0,0,0,.4-.4V2.531A.4.4,0,0,0,13.526,2.249Z" transform="translate(1518 173)" fill="#72a3fc"/>
    <path id="Path_435" data-name="Path 435" d="M262.7,2.249,260.573.117A.4.4,0,0,0,260.29,0H256V13.643h6.422a.4.4,0,0,0,.4-.4V2.531A.4.4,0,0,0,262.7,2.249Z" transform="translate(1268.822 173)" fill="#2892fc"/>
    <path id="Path_436" data-name="Path 436" d="M99.394,242H91.4a.4.4,0,0,0-.4.4v6.795h8.794V242.4A.4.4,0,0,0,99.394,242Z" transform="translate(1429.425 -62.551)" fill="#f9f9f9"/>
    <path id="Path_437" data-name="Path 437" d="M260.4,242.4a.4.4,0,0,0-.4-.4h-4v7.195h4.4Z" transform="translate(1268.822 -62.551)" fill="#dfe4ea"/>
    <path id="Path_438" data-name="Path 438" d="M156.2,422.8h-4.8a.4.4,0,0,1,0-.8h4.8a.4.4,0,0,1,0,.8Z" transform="translate(1371.023 -237.755)" fill="#fad557"/>
    <path id="Path_439" data-name="Path 439" d="M156.2,302.8h-4.8a.4.4,0,1,1,0-.8h4.8a.4.4,0,1,1,0,.8Z" transform="translate(1371.023 -120.953)" fill="#fad557"/>
    <path id="Path_440" data-name="Path 440" d="M156.2,362.8h-4.8a.4.4,0,1,1,0-.8h4.8a.4.4,0,1,1,0,.8Z" transform="translate(1371.023 -179.354)" fill="#fad557"/>
    <path id="Path_441" data-name="Path 441" d="M98.195,0H91V3.864a.4.4,0,0,0,.4.4h6.4a.4.4,0,0,0,.4-.4Z" transform="translate(1429.425 173)" fill="#5458ea"/>
    <path id="Path_442" data-name="Path 442" d="M256,0V4.264h2.4a.4.4,0,0,0,.4-.4V0Z" transform="translate(1268.822 173)" fill="#3545e3"/>
    <path id="Path_443" data-name="Path 443" d="M258.4,422H256v.8h2.4a.4.4,0,0,0,0-.8Z" transform="translate(1268.822 -237.755)" fill="#fcb12b"/>
    <path id="Path_444" data-name="Path 444" d="M258.4,302H256v.8h2.4a.4.4,0,0,0,0-.8Z" transform="translate(1268.822 -120.953)" fill="#fcb12b"/>
    <path id="Path_445" data-name="Path 445" d="M258.4,362H256v.8h2.4a.4.4,0,0,0,0-.8Z" transform="translate(1268.822 -179.354)" fill="#fcb12b"/>
  </g>
</svg>
