<svg xmlns="http://www.w3.org/2000/svg" width="10.992" height="11.013" viewBox="0 0 10.992 11.013">
  <g id="Group_965" data-name="Group 965" transform="translate(-3671.712 45.694)">
    <path id="Path_635" data-name="Path 635" d="M2.6,9.113C2.5,9.042,1.479,7.8,1.215,7.527a.824.824,0,0,1-.076-.094L.9,7.164C.842,7.092.8,7.052.742,6.982c-.38-.491-.752-.1-.752.094,0,.254.086.314.313.557l.361.424c.064.072.113.132.18.2l1.738,2a1.024,1.024,0,0,0,.086.1c.142.147.19.132.4.132.18,0,.4-.331.568-.515l.924-1.071c.034-.04.06-.057.094-.1l.51-.593c.064-.067.1-.121.17-.191.041-.044.039-.052.075-.095.13-.153.532-.549.567-.729a.375.375,0,0,0-.542-.413c-.114.055-.259.265-.354.367l-.764.87c-.04.045-.042.06-.085.106-.068.073-.112.128-.18.2l-.414.477a1.308,1.308,0,0,0-.086.105c-.036.043-.054.052-.091.1s-.034.057-.094.1V.01H2.6v9.1Z" transform="translate(3671.722 -45.705)" fill="#4d689d" fill-rule="evenodd"/>
    <path id="Path_641" data-name="Path 641" d="M2.6,1.39c-.1.071-1.121,1.315-1.385,1.586a.824.824,0,0,0-.076.094l-.24.27c-.058.072-.1.112-.158.182-.38.491-.752.1-.752-.094,0-.254.086-.314.313-.557l.361-.424c.064-.072.113-.132.18-.2l1.737-2a1.024,1.024,0,0,1,.086-.1c.142-.147.19-.132.4-.132.18,0,.4.331.568.515L4.558,1.6c.034.04.06.057.094.1l.51.593c.064.067.1.121.17.191.041.044.039.052.075.095.13.153.532.549.567.729a.375.375,0,0,1-.542.413c-.114-.055-.259-.265-.354-.367l-.764-.87c-.04-.045-.042-.06-.085-.106-.068-.073-.112-.128-.18-.2l-.414-.477a1.308,1.308,0,0,1-.086-.105c-.036-.043-.054-.052-.091-.1s-.034-.057-.094-.1v9.1H2.6V1.39Z" transform="translate(3676.722 -45.705)" fill="#4d689d" fill-rule="evenodd"/>
  </g>
</svg>
