<svg xmlns="http://www.w3.org/2000/svg" width="13.03" height="13.917" viewBox="0 0 13.03 13.917">
  <g id="Group_1093" data-name="Group 1093" transform="translate(-1147.395 -207.303)">
    <path id="Path_266" data-name="Path 266" d="M12.9,16.862s-.013.018-4.449,5.848c-.219.306-.158.186-.153,4.635,0,.692-.508.878-1.833,1.853-.579.424-.705.559-1.006.559a.7.7,0,0,1-.714-.685c-.007-6.3.06-6.039-.168-6.356C-.106,16.583.107,16.864.118,16.877A.649.649,0,0,1,.67,15.855l11.679-.015a.649.649,0,0,1,.554,1.02Z" transform="translate(1147.4 191.463)" fill="#707070"/>
    <path id="Path_267" data-name="Path 267" d="M41.946,16.87s-.013.018-4.449,5.848c-.219.306-.158.186-.153,4.635,0,.692-.508.878-1.833,1.853-.011-1.518,0-5.086.005-13.348l5.875-.007a.649.649,0,0,1,.554,1.02h0Z" transform="translate(1118.356 191.455)" fill="#8e8e8e"/>
  </g>
</svg>
